<svg xmlns="http://www.w3.org/2000/svg" xmlns:xlink="http://www.w3.org/1999/xlink" version="1.1" x="0px" y="0px" viewBox="0 0 100 100" enable-background="new 0 0 100 100" xml:space="preserve"><path fill="#00B2FF" d="M57.204,91.55c-0.302,0.009-0.724-0.062-1.021-0.17c-0.117-0.04-0.209-0.083-0.227-0.083l0,0    c-0.682-0.629-1.223-0.839-1.657-1.007l-0.127-0.049c-1.467-0.485-2.937-0.568-4.311-0.586c-1.026,0.003-1.917,0.075-2.749,0.226    c-0.834,0.208-2.129,0.9-2.825,1.271l-0.2,0.107c-0.406,0.215-1.085,0.283-1.298,0.291l-0.15,0.001    c-0.283,0.001-0.431,0.007-0.76-0.153c-0.196-0.11-0.683-1.068-1.15-3.166l-0.781,0.175c0.336,1.508,0.884,3.376,1.583,3.712    c0.433,0.208,0.706,0.232,0.987,0.232c0.044,0,0.087,0,0.132,0l0.153-0.002c0.041,0,1.005-0.037,1.659-0.384l0.204-0.108    c0.618-0.33,1.904-1.018,2.616-1.195c0.76-0.137,1.605-0.205,2.577-0.208c1.508,0.021,2.777,0.12,4.042,0.538l0.111,0.043    c0.409,0.158,0.832,0.324,1.402,0.85l0.104,0.073c0.106,0.063,0.256,0.129,0.399,0.177c0.371,0.137,0.845,0.217,1.269,0.217    c0.418,0,0.861-0.071,1.228-0.211l-0.284-0.748C57.857,91.495,57.539,91.55,57.204,91.55z"/><path fill="#00B2FF" d="M62.252,43.747c0-0.465,0.164-0.965,0.391-1.656c0.519-1.577,1.385-4.215,1.385-9.967    c0-7.791-6.906-14.081-8.274-15.251v-2.214h1.456v-1.2h-0.6V6.346c0-1.075-0.875-1.95-1.949-1.95h-9.321    c-1.075,0-1.95,0.875-1.95,1.95v7.112H42.79v1.2h1.458v2.214c-1.368,1.17-8.274,7.46-8.274,15.251c0,5.751,0.865,8.39,1.382,9.967    c0.227,0.691,0.39,1.19,0.39,1.656c0,0.585-0.246,1.29-0.558,2.182c-0.512,1.465-1.214,3.472-1.214,6.289v30.928    c0,2.942,1.178,10.539,4.092,11.873c2.672,1.226,5.656,0.316,6.782-0.811c0.741-0.743,5.699-0.585,6.306,0    c0.744,0.745,2.302,1.395,4.045,1.395c0.891,0,1.832-0.17,2.736-0.584c2.914-1.334,4.092-8.931,4.092-11.873V52.218    c0-2.817-0.702-4.824-1.215-6.29C62.499,45.037,62.252,44.332,62.252,43.747z M45.339,5.596h9.321c0.414,0,0.75,0.336,0.75,0.75    v4.69H44.589v-4.69C44.589,5.933,44.925,5.596,45.339,5.596z M44.589,11.836H55.41v1.623H44.589V11.836z M62.827,83.146    c0,3.629-1.457,9.895-3.394,10.781c-2.219,1.018-4.68,0.186-5.433-0.568c-1.056-1.053-6.742-1.258-8.002,0    c-0.752,0.752-3.211,1.586-5.433,0.567c-1.936-0.887-3.392-7.151-3.392-10.782V52.218c0-2.614,0.636-4.432,1.146-5.893    c0.335-0.96,0.625-1.789,0.625-2.578c0-0.657-0.199-1.263-0.45-2.03c-0.526-1.606-1.322-4.033-1.322-9.593    c0-7.885,7.971-14.439,8.051-14.504c0.141-0.114,0.223-0.286,0.223-0.466v-2.495h9.105v2.495c0,0.181,0.082,0.352,0.224,0.466    c0.08,0.065,8.051,6.62,8.051,14.504c0,5.56-0.797,7.987-1.324,9.593c-0.252,0.767-0.451,1.373-0.451,2.03    c0,0.789,0.291,1.618,0.626,2.578c0.513,1.461,1.148,3.279,1.148,5.893v30.929H62.827z"/><rect x="41.503" y="44.972" fill="#00B2FF" width="16.992" height="0.8"/></svg>