<?xml version="1.0" encoding="utf-8"?>
<!-- Generator: Adobe Illustrator 22.0.0, SVG Export Plug-In . SVG Version: 6.00 Build 0)  -->
<svg version="1.1" id="Layer_1" xmlns="http://www.w3.org/2000/svg" xmlns:xlink="http://www.w3.org/1999/xlink" x="0px" y="0px"
	 viewBox="0 0 100 100" style="enable-background:new 0 0 100 100;" xml:space="preserve">
<style type="text/css">
	.st0{opacity:0.2;enable-background:new    ;}
	.st1{fill:#227799;stroke:#227799;stroke-width:0.75;stroke-miterlimit:10;}
	.st2{fill:#227799;stroke:#227799;stroke-width:1.25;stroke-miterlimit:10;}
	.st3{fill:#227799;stroke:#227799;stroke-width:0.75;stroke-miterlimit:10;enable-background:new    ;}
</style>
<path class="st0" d="M66.6,46.1c1.3-1.4,1.9-3.2,1.7-5.1c-0.2-2.2-1.6-5.7-3.3-8.5c-2.4-4-5.2-6.1-8.1-6.1c-4.7,0-7.4,4.6-7.4,12.8
	c0,1.7,0.3,4.1,1.5,6.2c1.4,2.4,3.6,3.7,6.5,3.9c0.2,0,0.4,0,0.7,0C61.7,49.3,64.7,48.2,66.6,46.1z M54.5,43.5
	c-0.6-1.1-0.9-2.5-0.9-4.2c0-1.3,0.1-3.9,0.8-6c0.9-2.7,2.1-2.7,2.6-2.7c1.3,0,3.1,1.6,4.7,4.2c1.7,2.7,2.6,5.6,2.7,6.8
	c0.1,0.7-0.2,1.4-0.7,1.9c-1.1,1.2-3.1,1.9-5.5,1.9c-0.2,0-0.3,0-0.5,0C56.2,45.2,55.2,44.7,54.5,43.5z M82,18.2
	C73.5,9.7,62.2,5,50.2,5S26.9,9.7,18.4,18.2S5.2,38,5.2,50s4.7,23.3,13.2,31.8S38.2,95,50.2,95S73.5,90.3,82,81.8S95.2,62,95.2,50
	S90.5,26.7,82,18.2z M31.8,13.4L31.8,13.4c0,0.1-0.1,0.2-0.2,0.3C31.6,13.6,31.7,13.5,31.8,13.4z M31.5,13.7
	c-0.1,0.2-0.3,0.3-0.5,0.4C31.3,14,31.4,13.9,31.5,13.7z M9.2,50c0-10.9,4.3-21.2,12-29c2.6-2.6,5.5-4.8,8.7-6.6c0.1,0,0.3,0,0.4,0
	c0.4,0,1.8,0.1,3.2,0.5c1.7,0.4,2.5,1.1,2.6,1.5c0.2,0.5-0.2,1.4-1,2.5c-1.4,1.9-3.9,4.1-7.6,6.6c-0.8,0.6-3.4,2.4-3.2,4.9
	c0.2,2.7,3,4.1,5.9,5.6c2,1,4.6,2.3,5,3.6c0,0.1,0.2,0.5-0.3,1.4c-0.6,1.2-1.5,2.3-2.3,3.5c-1.9,2.7-3.9,5.5-4.1,8.9
	c-0.2,3.9,2,7.6,6.9,11.6c5.7,4.7,5.6,6.8,5.5,7.4C40.7,72.9,40,74,36.7,75c-2.7,0.8-5.9,1.2-8.8,1.6c-3.7,0.5-6.1,0.8-7.3,1.8
	C13.3,70.7,9.2,60.7,9.2,50z M58.9,90c0-1.7,0.4-4.5,2.1-6.4c1.2-1.4,3-2,5.4-2c5.6,0,7.8,0.8,8.5,1.2C70.1,86.3,64.6,88.8,58.9,90z
	 M79.1,79c-0.4,0.4-0.8,0.7-1.2,1.1c-0.3-0.3-0.8-0.7-1.4-1c-2.1-1-5.5-1.6-10.3-1.6c-3.5,0-6.4,1.1-8.4,3.4
	c-2.8,3.2-3.1,7.7-3.1,9.8c-1.5,0.2-3.1,0.3-4.6,0.3c-9.7,0-18.9-3.4-26.3-9.5v-0.1c1.1-0.3,3.1-0.5,4.6-0.7
	c6.6-0.9,14.9-2,16.3-7.1c1.2-4.3-3.3-8.7-6.8-11.6c-3.8-3.1-5.6-5.8-5.4-8.3c0.1-2.2,1.7-4.4,3.3-6.7c0.9-1.2,1.8-2.5,2.6-3.9
	c0.8-1.5,1.1-3,0.6-4.5c-0.9-2.9-4.2-4.6-7.1-6c-1.2-0.6-3.2-1.6-3.7-2.3c0.1-0.2,0.5-0.6,1.5-1.3c8-5.6,11.2-9.9,10.2-13.5
	c-0.5-1.9-2.1-3.1-3.9-3.8c4.4-1.6,9.2-2.5,14-2.5c3.4,0,6.7,0.4,9.8,1.2c-0.8,4.6,3.9,11,8.8,17.7c2.6,3.5,5,6.9,6.4,9.6
	c1.2,2.4,1.5,4.6,0.7,6.7c-1.1,3-4.3,5.9-9.1,8c-2.5,1.1-4.8,3-6.5,5.2s-2.6,4.7-2.6,6.9c-0.1,2.8,1.3,5.1,3.7,6.3
	c0.9,0.5,2.1,0.6,3.5,0.6c3.1,0,7.3-1,11.8-2c2.6-0.6,5.1-1.2,7.2-1.5c1.8-0.3,2.7-0.3,3.2-0.2c0,0.1,0,0.1,0,0.2
	C85.1,71.9,82.5,75.6,79.1,79z M75.8,65.3C73,66,70.1,66.6,67.7,67c-3.2,0.5-4.3,0.2-4.6,0c-1-0.5-1.5-1.3-1.5-2.6
	c0.1-3.5,3.5-7.1,6.8-8.5c5.9-2.6,9.8-6.2,11.3-10.3c1.1-3.1,0.8-6.5-0.9-9.9c-1.5-3-4.1-6.5-6.8-10.1c-2.4-3.2-4.8-6.6-6.4-9.5
	c-1.4-2.5-1.7-3.9-1.7-4.7c5.7,2,10.8,5.3,15.2,9.6c7.7,7.7,12,18,12,29c0,4.8-0.8,9.4-2.4,13.8C86.3,63,82.1,63.9,75.8,65.3z"/>
<path class="st1" d="M57.2,91.6c-0.3,0-0.7-0.1-1-0.2c-0.1,0-0.2-0.1-0.2-0.1l0,0c-0.7-0.6-1.2-0.8-1.7-1h-0.1
	c-1.5-0.5-2.9-0.6-4.3-0.6c-1,0-1.9,0.1-2.7,0.2c-0.8,0.2-2.1,0.9-2.8,1.3l-0.2,0.1c-0.4,0.2-1.1,0.3-1.3,0.3h-0.2
	c-0.3,0-0.4,0-0.8-0.2c-0.2-0.1-0.7-1.1-1.2-3.2l-0.8,0.2c0.3,1.5,0.9,3.4,1.6,3.7c0.4,0.2,0.7,0.2,1,0.2h0.1h0.2c0,0,1,0,1.7-0.4
	l0.2-0.1c0.6-0.3,1.9-1,2.6-1.2c0.8-0.1,1.6-0.2,2.6-0.2c1.5,0,2.8,0.1,4,0.5H54c0.4,0.2,0.8,0.3,1.4,0.8l0.1,0.1
	c0.1,0.1,0.3,0.1,0.4,0.2c0.4,0.1,0.8,0.2,1.3,0.2c0.4,0,0.9-0.1,1.2-0.2l-0.3-0.7C57.9,91.5,57.5,91.6,57.2,91.6z"/>
<path class="st2" d="M62.3,43.7c0-0.5,0.2-1,0.4-1.7c0.5-1.6,1.4-4.2,1.4-10c0-7.8-6.9-14.1-8.3-15.3v-2.2h1.5v-1.2h-0.6v-7
	c0-1.1-0.9-2-1.9-2h-9.3c-1.1,0-2,0.9-2,1.9v7.1h-0.6v1.2h1.5v2.2C42.9,18,36,24.3,36,32.1c0,5.8,0.9,8.4,1.4,10
	c0.2,0.7,0.4,1.2,0.4,1.7c0,0.6-0.2,1.3-0.6,2.2c-0.5,1.5-1.2,3.5-1.2,6.3v30.9c0,2.9,1.2,10.5,4.1,11.9c2.7,1.2,5.7,0.3,6.8-0.8
	c0.7-0.7,5.7-0.6,6.3,0c0.7,0.7,2.3,1.4,4,1.4c0.9,0,1.8-0.2,2.7-0.6c2.9-1.3,4.1-8.9,4.1-11.9v-31c0-2.8-0.7-4.8-1.2-6.3
	C62.5,45,62.3,44.3,62.3,43.7z M45.3,5.6h9.3c0.4,0,0.8,0.3,0.8,0.8V11H44.6V6.3C44.6,5.9,44.9,5.6,45.3,5.6z M44.6,11.8h10.8v1.6
	H44.6V11.8z M62.8,83.1c0,3.6-1.5,9.9-3.4,10.8c-2.2,1-4.7,0.2-5.4-0.6c-1.1-1.1-6.7-1.3-8,0c-0.8,0.8-3.2,1.6-5.4,0.6
	c-1.9-0.9-3.4-7.2-3.4-10.8V52.2c0-2.6,0.6-4.4,1.1-5.9c0.3-1,0.6-1.8,0.6-2.6c0-0.7-0.2-1.3-0.5-2c-0.5-1.6-1.3-4-1.3-9.6
	c0-7.9,8-14.4,8.1-14.5s0.2-0.3,0.2-0.5v-2.5h9.1v2.5c0,0.2,0.1,0.4,0.2,0.5c0.1,0.1,8.1,6.6,8.1,14.5c0,5.6-0.8,8-1.3,9.6
	c-0.3,0.8-0.5,1.4-0.5,2c0,0.8,0.3,1.6,0.6,2.6c0.5,1.5,1.1,3.3,1.1,5.9L62.8,83.1L62.8,83.1L62.8,83.1z"/>
<rect x="41.5" y="45" class="st3" width="17" height="0.8"/>
</svg>
