<?xml version="1.0" encoding="utf-8"?>
<!-- Generator: Adobe Illustrator 21.1.0, SVG Export Plug-In . SVG Version: 6.00 Build 0)  -->
<svg version="1.1" id="Layer_1" xmlns="http://www.w3.org/2000/svg" xmlns:xlink="http://www.w3.org/1999/xlink" x="0px" y="0px"
	 viewBox="0 0 39.3 26.4" style="enable-background:new 0 0 39.3 26.4;" xml:space="preserve">
<style type="text/css">
	.st0{fill:none;}
	.st1{fill:url(#SVGID_1_);}
	.st2{fill:#FFFFFF;}
</style>
<title>cup_2</title>
<g id="Layer_2">
	<g id="Layer_3">
		<path class="st0" d="M34.4,4.6c-0.9,0.1-1.8,0.7-2.1,1.6c-0.1,2-0.4,4.1-1,6c-0.2,0.5-0.4,1-0.6,1.5c2-0.6,5-1.7,6-4
			c0.8-1.9,0.8-3.4,0.1-4.3C36.2,4.8,35.3,4.4,34.4,4.6z"/>
		
			<linearGradient id="SVGID_1_" gradientUnits="userSpaceOnUse" x1="16.175" y1="17.49" x2="16.175" y2="1.04" gradientTransform="matrix(1 0 0 -1 0 25.89)">
			<stop  offset="0" style="stop-color:#BD6F30"/>
			<stop  offset="0.11" style="stop-color:#A6683A"/>
			<stop  offset="0.27" style="stop-color:#896047"/>
			<stop  offset="0.36" style="stop-color:#7E5D4C"/>
			<stop  offset="0.4" style="stop-color:#795949"/>
			<stop  offset="0.57" style="stop-color:#684D3E"/>
			<stop  offset="0.76" style="stop-color:#5E4638"/>
			<stop  offset="1" style="stop-color:#5B4436"/>
		</linearGradient>
		<path class="st1" d="M3,11.6c0.9,2.4,2.3,4.6,4,6.5c1.3,1.6,2.4,2.9,2.7,4.3c0.2,0.9,0.3,1.5,0.3,1.9h12.3c0.1-0.4,0.2-1,0.3-1.9
			c0.3-1.4,1.4-2.8,2.7-4.3c1.7-1.9,3.1-4.1,4.1-6.5c0.3-1.1,0.6-2.1,0.7-3.2H2.3C2.4,9.5,2.7,10.6,3,11.6z"/>
		<path class="st2" d="M2.3,8.4h27.8c0.3-2.3,0.3-4.6,0.2-6.9h0.2c-0.7-0.6-3.1-2.2-8-1.2s-6.9,3.4-11.9,3.4c-2.8,0-5.6-1.9-8.6-2
			C1.9,3.9,2,6.2,2.3,8.4z"/>
		<path class="st2" d="M38.4,4.2c-1-1.3-2.6-1.9-4.2-1.6c-0.6,0.1-1.2,0.3-1.7,0.6c0-1.1-0.1-1.8-0.1-1.9l-1.8,0.1h-0.2
			c0.1,2.3,0.1,4.6-0.2,6.9c-0.1,1.1-0.4,2.2-0.7,3.2c-0.9,2.4-2.3,4.6-4.1,6.5c-1.3,1.6-2.4,2.9-2.7,4.3c-0.2,0.9-0.3,1.5-0.3,1.9
			H10c-0.1-0.4-0.2-1-0.3-1.9C9.4,21,8.3,19.7,7,18.1c-1.7-1.9-3.1-4.1-4-6.5c-0.3-1.1-0.6-2.1-0.7-3.2C2,6.2,1.9,3.9,2.1,1.7V1.5
			l-2-0.1c0,0.3-0.4,6.6,1,10.9c1,2.6,2.5,5,4.4,7.1c1.1,1.3,2.1,2.5,2.2,3.4c0.4,2,0.4,2.5,0.4,2.6c0,0.6,0.4,1,1,1h14
			c0.6,0,1-0.4,1-1c0-0.1,0.1-0.6,0.4-2.6c0.2-0.9,1.1-2.1,2.2-3.4c0.9-1,1.7-2.1,2.5-3.3c1.6-0.3,7.4-1.5,9.1-5.6
			C40,7.1,39,5.1,38.4,4.2z M36.7,9.7c-1,2.3-4,3.5-6,4c0.2-0.5,0.4-1,0.6-1.5c0.6-1.9,0.9-4,1-6c0.4-0.9,1.2-1.5,2.1-1.6
			c0.9-0.2,1.8,0.1,2.3,0.8C37.5,6.3,37.4,7.9,36.7,9.7z"/>
	</g>
</g>
</svg>
