<svg xmlns="http://www.w3.org/2000/svg" viewBox="0 0 19.01 60"><defs><style>.cls-1{fill:#fff;}</style></defs><title>ldn</title><g id="Layer_2" data-name="Layer 2"><g id="Layer_3" data-name="Layer 3"><path class="cls-1" d="M12.15,35.36H9.51a.5.5,0,0,1-.5-.5V31a.5.5,0,0,1,1,0v3.37h2.14a.5.5,0,0,1,0,1Z"/><rect class="cls-1" x="7.79" y="9.68" width="0.99" height="3.17" rx="0.25" ry="0.25"/><rect class="cls-1" x="10.24" y="9.68" width="0.99" height="3.17" rx="0.25" ry="0.25"/><rect class="cls-1" x="5.34" y="21.41" width="0.99" height="3.17" rx="0.25" ry="0.25"/><rect class="cls-1" x="7.79" y="21.41" width="0.99" height="3.17" rx="0.25" ry="0.25"/><rect class="cls-1" x="10.24" y="21.41" width="0.99" height="3.17" rx="0.25" ry="0.25"/><rect class="cls-1" x="12.69" y="21.41" width="0.99" height="3.17" rx="0.25" ry="0.25"/><path class="cls-1" d="M16.1,27.74H2.92a.49.49,0,0,0-.49.49V41.41a.49.49,0,0,0,.49.49H16.1a.49.49,0,0,0,.49-.49V28.23A.49.49,0,0,0,16.1,27.74ZM9.51,40.1a5.28,5.28,0,1,1,5.28-5.28A5.28,5.28,0,0,1,9.51,40.1Z"/><path class="cls-1" d="M18.51,25.31H16.79V19.24a.5.5,0,0,0-.1-.3l-3.16-4.29V7.75A78.07,78.07,0,0,1,10,.36a.5.5,0,0,0-1,0A78.9,78.9,0,0,1,5.47,7.75v6.91L2.31,18.95a.5.5,0,0,0-.1.3v6.07H.5a.5.5,0,0,0-.5.5v18a.5.5,0,0,0,.5.5H2.06v10H1.51a.25.25,0,0,0-.25.25v1a.25.25,0,0,0,.25.25h.56V60h1V55.81H5V60H5.9V55.81H7.17V60h.89V55.81h2.89V60h.89V55.81H13.1V60H14V55.81h2V60h1V55.81h.56a.25.25,0,0,0,.25-.25v-1a.25.25,0,0,0-.25-.25h-.56v-10h1.57a.5.5,0,0,0,.5-.5v-18A.5.5,0,0,0,18.51,25.31Zm-9-23.59c.78,1.83,2.17,4.6,2.78,5.78H6.72C7.33,6.33,8.72,3.55,9.51,1.73ZM6.47,9h6.06V13.5H6.47Zm-.07,6H12.6l3,4.12H3.41ZM3.21,20.67H15.79v4.64H3.21ZM5,54.28h-2v-10H5Zm2.16,0H5.9v-10H7.17Zm3.77,0H8.06v-10h2.89Zm2.16,0H11.83v-10H13.1Zm2.84,0H14v-10h2Zm2.07-11H1v-17H18Z"/></g></g></svg>