<svg xmlns="http://www.w3.org/2000/svg" viewBox="0 0 30.16 59.98"><defs><style>.cls-1{fill:#fff;}</style></defs><title>nyc</title><g id="Layer_2" data-name="Layer 2"><g id="Layer_3" data-name="Layer 3"><path class="cls-1" d="M12.49,41.37h-.41a.25.25,0,0,0-.25.25V60h.91V41.62A.25.25,0,0,0,12.49,41.37Z"/><path class="cls-1" d="M15.09,41.17c-.69,0-.8.76-.8.77V60h1.59v-18S15.78,41.17,15.09,41.17Z"/><path class="cls-1" d="M15.08,14.72c1.63,0,2.58,2.57,3,4.57a4.7,4.7,0,0,0-2.25-1l-.69-2.51a.1.1,0,0,0-.1-.07h0a.1.1,0,0,0-.1.08l-.65,2.51a4.7,4.7,0,0,0-2.27,1C12.5,17.29,13.45,14.73,15.08,14.72ZM29.66,53h-3V38.6a.5.5,0,0,0-.5-.5H24a12.77,12.77,0,0,0-.9-2.78,15.2,15.2,0,0,0-1.52-7.81,16,16,0,0,0-2.22-6.85c-.12-.89-.73-4.85-2.66-6.35-.12-1.19-.44-3.65-1.2-4.4V.2a.2.2,0,0,0-.2-.2h-.41a.2.2,0,0,0-.2.2V9.89c-.78.72-1.11,3.22-1.23,4.42-1.93,1.5-2.55,5.46-2.66,6.35a16,16,0,0,0-2.22,6.85,15.2,15.2,0,0,0-1.52,7.82,12.83,12.83,0,0,0-.89,2.77H4a.5.5,0,0,0-.5.5V53H.5a.5.5,0,0,0-.5.5V60H1V54H6.08V60h1V54H9.51V60h1V41.5c0-.17.52-4.19,4.57-4.2s4.55,4,4.57,4.15V60h1V54h2.44V60h1V54h5.08V60h1V53.53A.5.5,0,0,0,29.66,53ZM6.08,53H4.51V39.1H6.08Zm9-33.83c3.69,0,5,5.29,5.23,6.65a6.58,6.58,0,0,0-2-1.37l.05-2.25a.2.2,0,0,0-.14-.2h-.06a.2.2,0,0,0-.17.1L16.83,24q-.38-.08-.79-.12l-.88-3.22a.1.1,0,0,0-.1-.07.12.12,0,0,0-.1.08l-.83,3.22q-.42,0-.81.12l-1.15-1.9A.2.2,0,0,0,12,22h-.06a.2.2,0,0,0-.14.2l.05,2.25a6.58,6.58,0,0,0-2,1.37C10.12,24.5,11.39,19.2,15.08,19.2Zm0,5.65c6.06,0,6.95,6.85,7,8.73a8.69,8.69,0,0,0-1.6-1.72l.58-2.27a.2.2,0,0,0-.08-.22.37.37,0,0,0-.23,0l-1.85,1.46-.37-.15.08-3.3a.2.2,0,0,0-.14-.2s-.19,0-.23.09l-1.72,2.85-.23,0-1.16-4.24a.1.1,0,0,0-.1-.07h0a.1.1,0,0,0-.1.08l-1.09,4.24-.25,0-1.72-2.85c0-.06-.21-.09-.23-.09a.2.2,0,0,0-.14.2l.08,3.3-.37.15L9.38,29.39a.37.37,0,0,0-.23,0,.2.2,0,0,0-.08.22l.58,2.27A8.68,8.68,0,0,0,8,33.59C8.13,31.7,9,24.85,15.08,24.85Zm8,28.18H20.65V41.39a6.16,6.16,0,0,0-.13-.62h0l2.21-2.11a.21.21,0,0,0,0-.24c-.05-.12-.21-.1-.22-.1L19.8,39q-.13-.23-.3-.47L21,35.38a.2.2,0,0,0-.3-.25L18,37l-.4-.21.12-3.58a.21.21,0,0,0-.14-.2.18.18,0,0,0-.23.09l-2,3.16H14.8l-2-3.16a.21.21,0,0,0-.23-.09.2.2,0,0,0-.14.2l.12,3.58L12.2,37,9.47,35.14a.24.24,0,0,0-.24,0,.19.19,0,0,0-.05.24l1.48,3.14c-.11.15-.2.31-.29.46l-2.74-.68a.22.22,0,0,0-.22.1.21.21,0,0,0,0,.24l2.21,2.11-.13.68V53H7.07V38.66c0-.13,1.06-7.62,8-7.62s8,7.46,8,7.57Zm2.56,0H24.08V39.1h1.56Z"/><path class="cls-1" d="M18.08,41.37h-.41a.25.25,0,0,0-.25.25V60h.91V41.62A.25.25,0,0,0,18.08,41.37Z"/></g></g></svg>