<svg xmlns="http://www.w3.org/2000/svg" viewBox="0 0 40.27 60.01"><defs><style>.cls-1{fill:#fff;}</style></defs><title>sea</title><g id="Layer_2" data-name="Layer 2"><g id="Layer_3" data-name="Layer 3"><path class="cls-1" d="M40.26,23.84h0a.49.49,0,0,0-.05-.16h0a.49.49,0,0,0-.1-.12l0,0-.1-.06-.05,0h0l-5.65-1.68.35-2a.48.48,0,0,0,0-.08.5.5,0,0,0-.28-.56A82.23,82.23,0,0,0,24,15.17a4.74,4.74,0,0,0,1.2-2.37.5.5,0,0,0-.5-.52H23.22V10.56a.5.5,0,0,0-.5-.5H20.56V.25A.25.25,0,0,0,20.31,0H20a.25.25,0,0,0-.25.25v9.81H17.56a.5.5,0,0,0-.5.5v1.72H15.54a.5.5,0,0,0-.5.52,4.74,4.74,0,0,0,1.2,2.37A82.23,82.23,0,0,0,5.91,19.08a.5.5,0,0,0-.28.56l0,0L6,21.74.36,23.42a.49.49,0,0,0-.36.44.48.48,0,0,0,.35.52l5.83,1.73,1.07,3.22h-1a.25.25,0,0,0-.25.25v.78a.25.25,0,0,0,.25.25h5.49c.29,1.58,2,10.87,2.76,14.1C15,47,15.58,54.78,15.92,60h1c-.35-5.25-.93-13.17-1.47-15.52-.7-3.1-2.35-11.87-2.72-13.88H15.6C16,36.6,17.22,50,20.11,50c3,0,4.13-13.3,4.56-19.36h2.86c-.37,2-2,10.77-2.72,13.88-.53,2.36-1.12,10.28-1.47,15.52h1c.35-5.22.93-13,1.44-15.3.73-3.23,2.47-12.52,2.76-14.1H34a.25.25,0,0,0,.25-.25v-.78a.25.25,0,0,0-.25-.25H33l1.07-3.22,5.82-1.73h0l.12-.06,0,0a.5.5,0,0,0,.1-.11h0a.49.49,0,0,0,.06-.15v0A.49.49,0,0,0,40.26,23.84ZM18.06,11.06h4.16v1.22H18.06Zm-.79,4.88a.5.5,0,0,0,.25-.84,7.55,7.55,0,0,1-1.32-1.82h7.91a7.55,7.55,0,0,1-1.32,1.82.5.5,0,0,0,.25.84A66.9,66.9,0,0,1,31.76,19H8.52A66.9,66.9,0,0,1,17.26,15.94Zm-9,13.39-1-3.13H9.37l.73,3.13Zm2.83,0L10.4,26.2h2.65l.44,3.13ZM18,43.28c-.58-3.25-1.09-8.08-1.41-12.67H18Zm4.22.05V30.61h1.42C23.34,35.22,22.82,40.07,22.24,43.33Zm3.53-14H14.5l-.44-3.13H26.21Zm3.37,0H26.79l.44-3.13h2.65Zm2.83,0h-1.8l.73-3.13H33Zm1.65-4.13h-27L1.78,23.9l1.86-.5,3-.8h27l4.92,1.3Z"/></g></g></svg>