<svg xmlns="http://www.w3.org/2000/svg" viewBox="0 0 59.99 56.92"><defs><style>.cls-1{fill:#fff;}</style></defs><title>sfc</title><g id="Layer_2" data-name="Layer 2"><g id="Layer_3" data-name="Layer 3"><path class="cls-1" d="M39.18,2.94s-.07-.5-.5-.5H38V.25A.25.25,0,0,0,37.77,0h-.86a.25.25,0,0,0-.25.25V2.44H36a.5.5,0,0,0-.5.5v2.3h-11V2.94a.5.5,0,0,0-.5-.5h-.66V.25A.25.25,0,0,0,23.08,0h-.86A.25.25,0,0,0,22,.25V2.44h-.66a.5.5,0,0,0-.45.29C20.54,8.07,14.15,37.64,0,56.92H1.24a90.15,90.15,0,0,0,5.42-8.49v8.49h1V46.61c1.57-2.92,3-5.91,4.29-8.87V56.92h1V35.37c1.44-3.51,2.7-7.6,3.77-10.9V56.92h1v-35c1.4-4.65,2.42-8.88,3.1-12.31V56.92h3.69V48c0-2,.8-3.4,5.5-3.53,4.8.11,5.5,1.61,5.5,3.53v8.92h3.69V9.59c.68,3.43,1.7,7.65,3.1,12.31v35h1V24.73C44.35,28,45.6,31.87,47,35.37V56.92h1V37.74c1.29,3,2.72,5.95,4.29,8.87V56.92h1V48.42a90.15,90.15,0,0,0,5.42,8.49H60C45.86,37.75,39.8,10.83,39.18,2.94ZM35.5,40.2h-11V35.64c0-1.94.84-3.38,5.5-3.52,4.83.12,5.5,1.52,5.5,3.52Zm0-12.35h-11V23.77c0-1.92.58-3.55,5.5-3.52s5.5,1.51,5.5,3.52ZM35.5,16h-11V13c.1-2,.79-3.42,5.5-3.53,4.76.1,5.5,1.7,5.5,3.53Z"/></g></g></svg>