<svg xmlns="http://www.w3.org/2000/svg" viewBox="0 0 59.53 53.8"><defs><style>.cls-1{fill:#fff;}</style></defs><title>sgp</title><g id="Layer_2" data-name="Layer 2"><g id="Layer_3" data-name="Layer 3"><path class="cls-1" d="M59.53,2.86a.5.5,0,0,0-.5-.5H50.37a.5.5,0,0,0-.3.1l-4.1,3H21V2.86a.5.5,0,0,0-.5-.5H18.65V.5a.5.5,0,0,0-.5-.5h-3.8a.5.5,0,0,0-.5.5V2.36h-2a.5.5,0,0,0-.3.1l-4.1,3H.5A.5.5,0,0,0,0,6C0,8.34,4.26,12.8,10.94,12.8H11v.81s0,.06,0,.09h-3a.5.5,0,0,0-.5.56l.71,5.91v0a.48.48,0,0,0,0,.1l.39,3.23a.43.43,0,0,0,0,.41l.38,3.13a.5.5,0,0,0,0,.18.49.49,0,0,0,.09.27l1.2,9.9v0a.48.48,0,0,0,0,.1l2,16.24h1L11.47,37.95h9.77V53.8h1V14.21a.5.5,0,0,0-.5-.5H19.85s0-.06,0-.09v-.81h9v.81s0,.06,0,.09H26.07a.5.5,0,0,0-.5.56l.71,5.91v0a.48.48,0,0,0,0,.1l.39,3.23a.43.43,0,0,0,0,.41l.38,3.13a.5.5,0,0,0,0,.18.49.49,0,0,0,.09.27l1.2,9.9v0a.48.48,0,0,0,0,.1l2,16.24h1L29.44,37.95h9.77V53.8h1V14.21a.5.5,0,0,0-.5-.5h-2s0-.06,0-.09v-.81h9v.81s0,.06,0,.09H44.16a.5.5,0,0,0-.5.56l.71,5.91v0a.48.48,0,0,0,0,.1l.39,3.23a.43.43,0,0,0,0,.41l.38,3.13a.5.5,0,0,0,0,.18.49.49,0,0,0,.09.27l1.2,9.9v0a.48.48,0,0,0,0,.1l2,16.24h1L47.54,37.95h9.77V53.8h1V14.21a.5.5,0,0,0-.5-.5H55.63s0-.06,0-.09v-.81h2.22a.5.5,0,0,0,.49-.41L59.52,6.1a.48.48,0,0,0,0-.09h0ZM12,3.36h8V5.51H9.13Zm9.22,33.59H11.34l-.58-4.77H21.24Zm0-5.77H10.65l-.41-3.43h11Zm0-4.43H10.11L9.8,24.18H21.24Zm0-3.57H9.68l-.3-2.48H21.24Zm0-3.48h-12L9,17.53H21.24Zm0-5v1.82H8.88l-.22-1.82Zm18,22.24H29.32l-.58-4.77H39.21Zm0-5.77H28.62l-.41-3.43h11Zm0-4.43H28.08l-.31-2.57H39.21Zm0-3.57H27.65l-.3-2.48H39.21Zm0-3.48h-12L27,17.53H39.21Zm0-5v1.82H26.85l-.22-1.82Zm18.1,22.24H47.41l-.58-4.77H57.31Zm0-5.77H46.72l-.41-3.43h11Zm0-4.43H46.18l-.31-2.57H57.31Zm0-3.57H45.75l-.3-2.48H57.31Zm0-3.48h-12l-.26-2.18H57.31Zm0-5v1.82H44.95l-.22-1.82Zm.16-2.91H10.94c-5.55,0-9.25-3.39-9.86-5.29H58.43Zm1.06-6.29H47.65l2.89-2.15h8Z"/></g></g></svg>