<?xml version="1.0" standalone="no"?>
<!DOCTYPE svg PUBLIC "-//W3C//DTD SVG 1.1//EN" "http://www.w3.org/Graphics/SVG/1.1/DTD/svg11.dtd" >
<svg xmlns="http://www.w3.org/2000/svg" xmlns:xlink="http://www.w3.org/1999/xlink" version="1.1">
<metadata>
Created by FontForge 20171206 at Sun Mar  3 21:59:14 2019
 By fw_worker
Copyright (c) 2014 Indian Type Foundry (info@indiantypefoundry.com)
</metadata>
<defs>
<font id="Laila-Regular" horiz-adv-x="272" >
  <font-face 
    font-family="Laila"
    font-weight="400"
    font-stretch="normal"
    units-per-em="1000"
    panose-1="2 0 0 0 0 0 0 0 0 0"
    ascent="800"
    descent="-200"
    x-height="517"
    cap-height="725"
    bbox="-491 -390 2127 1027"
    underline-thickness="50"
    underline-position="-100"
    unicode-range="U+000D-FB02"
  />
<missing-glyph horiz-adv-x="0" 
 />
    <glyph glyph-name="fi" unicode="fi" horiz-adv-x="583" 
d="M492 438v-376q0 -28 25 -39q-20 -32 -52 -32q-55 0 -55 70v384l-203 -1v-571q0 -60 -25.5 -90.5t-64.5 -30.5q-54 0 -76 51q46 0 64 20.5t18 68.5v553q-88 5 -88 38q0 16 13 29q35 -5 67 -5h8v71q0 93 56.5 137.5t137 44.5t132 -27.5t51.5 -67.5q0 -28 -27 -43
q-16 -9 -32 -9t-31 5q-25 80 -99 80q-104 0 -104 -116v-75h231q54 0 54 -69z" />
    <glyph glyph-name="fl" unicode="fl" horiz-adv-x="590" 
d="M492 662v-600q0 -28 25 -39q-20 -32 -52 -32q-55 0 -55 70v623q-38 18 -88.5 18t-82.5 -27.5t-32 -84.5v-125h117q6 -7 6 -18q0 -18 -30.5 -32t-82.5 -14h-10v-528q0 -60 -25.5 -90.5t-64.5 -30.5q-54 0 -76 51q46 0 64 20.5t18 68.5v510q-88 5 -88 39q0 14 13 29
q23 -5 67 -5h8v122q0 85 52.5 129t137.5 44t132 -25.5t47 -72.5z" />
    <glyph glyph-name=".notdef" horiz-adv-x="0" 
 />
    <glyph glyph-name=".null" horiz-adv-x="0" 
 />
    <glyph glyph-name="nonmarkingreturn" horiz-adv-x="333" 
 />
    <glyph glyph-name="NULL" horiz-adv-x="0" 
 />
    <glyph glyph-name="NULL" horiz-adv-x="0" 
 />
    <glyph glyph-name="CR" unicode="&#xd;" horiz-adv-x="0" 
 />
    <glyph glyph-name="space" unicode=" " 
 />
    <glyph glyph-name="exclam" unicode="!" horiz-adv-x="337" 
d="M187 295q-1 -17 -1 -44t8 -50q-10 -15 -27 -15q-38 0 -42 66l-14 442v11q0 34 12 54.5t35 20.5t36.5 -20.5t13.5 -51.5q0 -7 -1 -14zM209 95q14 -14 14 -38t-21 -45t-45.5 -21t-38 14t-13.5 38.5t21 45t45 20.5t38 -14z" />
    <glyph glyph-name="quotedbl" unicode="&#x22;" horiz-adv-x="316" 
d="M80 904q42 0 42 -74.5t-12 -154.5t-28.5 -80t-29 81.5t-12.5 154.5t40 73zM234 904q42 0 42 -74.5t-12 -154.5t-29 -80t-29 81t-12 154.5t40 73.5z" />
    <glyph glyph-name="numbersign" unicode="#" horiz-adv-x="772" 
d="M443 242l66 232h-189l-67 -232h190zM629 242q4 -14 4 -18q0 -48 -80 -48h-50l-33 -115q-20 -70 -73 -70q-30 0 -39 32q25 11 34 39l32 114h-190l-33 -115q-20 -70 -72 -70q-31 0 -40 32q26 11 34 39l33 114h-96q-4 12 -4 19q0 47 80 47h39l67 232h-97q-5 8 -5 18
q0 47 80 47h40l34 117q20 69 72 69q30 0 41 -31q-27 -11 -35 -39l-33 -116h189l33 117q24 69 73 69q31 0 42 -31q-27 -10 -36 -39l-33 -116h106q4 -8 4 -18q0 -47 -80 -47h-49l-66 -232h107z" />
    <glyph glyph-name="dollar" unicode="$" horiz-adv-x="603" 
d="M376 794v-68q83 -10 132 -48.5t49 -88.5q0 -28 -15.5 -44.5t-35 -16.5t-43.5 8q4 16 4 31q0 37 -38.5 68.5t-107 31.5t-109.5 -29t-41 -77.5t42 -84t102.5 -61.5t121 -53t102.5 -68.5t42 -94.5q0 -82 -67 -140t-167 -67v-64q0 -28 25 -38q-21 -32 -53 -32q-55 0 -55 70
v66q-87 12 -141.5 58t-54.5 110q0 32 18 52.5t48 20.5t47 -24q-23 -21 -23 -59t42 -68t115.5 -30t127.5 38t54 93q0 35 -30.5 64t-76 48t-98.5 43t-98.5 48t-76 64.5t-30.5 90.5q0 74 60.5 124.5t145.5 59.5v65q0 30 -25 39q20 32 52 32q56 0 56 -69z" />
    <glyph glyph-name="percent" unicode="%" horiz-adv-x="849" 
d="M330.5 394q-45.5 -64 -112 -64t-102 53.5t-35.5 133.5t43 144t110.5 64t104.5 -53t37 -133.5t-45.5 -144.5zM291 625q-22 38 -60.5 38t-63 -40.5t-24.5 -97t23.5 -94.5t60.5 -38t61.5 41t24.5 97t-22 94zM625 693q26 32 48 32t37 -19q-8 -3 -29 -31l-457 -650
q-24 -34 -47 -34t-36 20q11 8 27 31zM722.5 55q-45.5 -64 -112 -64t-102 54t-35.5 133.5t43.5 144t110.5 64.5t104 -54t37 -134t-45.5 -144zM682.5 285.5q-21.5 38.5 -60 38.5t-63 -40.5t-24.5 -97.5t23.5 -95t61 -38t61 40t23.5 97t-21.5 95.5z" />
    <glyph glyph-name="ampersand" unicode="&#x26;" horiz-adv-x="728" 
d="M439 369q0 34 62 34q83 0 109 27q18 20 18 53q0 12 -3 27q24 11 42 11t31 -9q28 -18 28 -60t-39 -71t-116 -30q29 -49 29 -120q0 -101 -75 -170.5t-192 -69.5t-189 60t-72 153q0 112 112 181q-41 18 -63.5 55.5t-22.5 88.5q0 87 59 141.5t129.5 54.5t107 -26t36.5 -68
q0 -26 -22 -39q-13 -6 -27 -6t-28 4q-4 45 -24.5 64.5t-61 19.5t-68 -32.5t-27.5 -87.5t36.5 -87.5t105.5 -32.5q6 -10 6 -20.5t-8 -21.5q-17 -21 -57 -21q-16 0 -24 1q-36 -24 -57 -64t-21 -84q0 -75 51.5 -117t137 -42t145 46t59.5 117q0 121 -102 121q-5 11 -5 20z" />
    <glyph glyph-name="quotesingle" unicode="'" horiz-adv-x="162" 
d="M124 793q0 -67 -12.5 -132.5t-30.5 -65.5q-16 0 -29 66.5t-13 132.5t41 66q44 0 44 -67z" />
    <glyph glyph-name="parenleft" unicode="(" horiz-adv-x="452" 
d="M194 253q0 -295 230 -514q-8 -17 -32.5 -17t-71 41.5t-93.5 109t-81 170.5t-34 207.5t33.5 206.5t80 171t93.5 112t72.5 43t32.5 -16q-230 -219 -230 -514z" />
    <glyph glyph-name="parenright" unicode=")" horiz-adv-x="452" 
d="M309.5 457q33.5 -102 33.5 -206.5t-34 -207.5t-81 -170.5t-93.5 -109t-71 -41.5t-32.5 17q230 219 230 514t-230 514q7 16 32.5 16t72.5 -43t93.5 -112t80 -171z" />
    <glyph glyph-name="asterisk" unicode="*" horiz-adv-x="550" 
d="M321 887q0 -49 -21 -120q92 63 139 63q19 0 32.5 -11t13.5 -32q0 -31 -47 -48.5t-82.5 -18.5t-41.5 0q40 -27 73.5 -65.5t33.5 -66.5q0 -16 -12.5 -28t-29.5 -12q-30 0 -59 44.5t-46 97.5q-17 -53 -45.5 -98t-58.5 -45q-18 0 -29 13t-11 34.5t32.5 59.5t71.5 66
q-6 -1 -41.5 0.5t-82 18.5t-46.5 48q0 20 14.5 30.5t33.5 10.5q50 0 138 -60q-19 63 -19 106q0 78 42 78q48 0 48 -65z" />
    <glyph glyph-name="plus" unicode="+" horiz-adv-x="674" 
d="M530 370q-22 0 -162 4l3 -166q0 -73 -51 -73q-14 0 -18 2l4 237l-232 -4q-5 10 -5 20q0 49 74 49q49 0 163 -3q-2 54 -4 153q0 73 50 73q9 0 19 -5l-3 -221l232 3q4 -4 4 -17q0 -52 -74 -52z" />
    <glyph glyph-name="comma" unicode="," horiz-adv-x="264" 
d="M135 -32q0 36 -18 63.5t-50 36.5q2 23 19.5 40t42.5 17q38 0 60 -34.5t22 -80.5q0 -71 -34 -124t-72 -53q-22 0 -25 22q55 39 55 113z" />
    <glyph glyph-name="hyphen" unicode="-" horiz-adv-x="503" 
d="M135 379h306q2 -8 2 -18q0 -52 -75 -52h-303q-5 10 -5 19q0 51 75 51z" />
    <glyph glyph-name="period" unicode="." horiz-adv-x="356" 
d="M227 112.5q15 -15.5 15 -41.5t-23 -49.5t-49.5 -23.5t-42 15.5t-15.5 41.5t23.5 49.5t50 23.5t41.5 -15.5z" />
    <glyph glyph-name="slash" unicode="/" horiz-adv-x="562" 
d="M451 956q19 0 38 -13q-13 -11 -25 -47l-337 -966q-5 -20 -18.5 -38.5t-35 -18.5t-38.5 15q13 12 24 47l337 963q19 58 55 58z" />
    <glyph glyph-name="zero" unicode="0" horiz-adv-x="653" 
d="M133.5 95.5q-75.5 104.5 -75.5 266.5t75 262.5t194 100.5t193 -100.5t74 -262.5t-75 -266.5t-192.5 -104.5t-193 104.5zM445.5 587.5q-55.5 76.5 -128.5 76.5t-121.5 -86t-48.5 -207q0 -157 57.5 -237t130.5 -80t122 85.5t49 205.5q0 14 -1 29q-4 137 -59.5 213.5z" />
    <glyph glyph-name="one" unicode="1" horiz-adv-x="351" 
d="M233 636v-574q0 -29 25 -39q-20 -32 -52 -32q-57 0 -57 70v558q0 35 -34 35t-76 -26q-14 5 -14 20q0 24 39.5 50.5t82.5 26.5t64.5 -24t21.5 -65z" />
    <glyph glyph-name="two" unicode="2" horiz-adv-x="577" 
d="M512 106q21 -17 21 -43.5t-27.5 -44.5t-79.5 -18h-309q-32 0 -47.5 16t-15.5 39v6q176 145 261.5 253t85.5 203q0 72 -38 111.5t-92 39.5t-92 -29t-38 -70.5t29 -65.5q-21 -19 -49 -19t-48 21.5t-20 55.5q0 70 63.5 117t158.5 47t155 -59t60 -158t-82.5 -201t-256.5 -240
l260 10q69 1 101 29z" />
    <glyph glyph-name="three" unicode="3" horiz-adv-x="555" 
d="M415.5 684q50.5 -41 50.5 -103t-46.5 -109t-114.5 -68q82 -8 137 -64t55 -137q0 -97 -71 -154.5t-179 -57.5q-75 0 -138 39t-63 94q0 22 13 36.5t32 18.5q26 -58 75 -91.5t112.5 -33.5t106.5 37t43 90q0 72 -60 115.5t-142 43.5q-32 0 -57 -7q-12 7 -12 25.5t35.5 39.5
t77.5 39t77.5 51.5t35.5 76t-32.5 67t-81.5 24.5q-92 0 -160 -57q-19 6 -19 24q0 28 62.5 65t137.5 37t125.5 -41z" />
    <glyph glyph-name="four" unicode="4" horiz-adv-x="586" 
d="M148 230h213v373q0 16 -12 16q-19 0 -75 -70t-105.5 -160t-49.5 -136q0 -23 29 -23zM444 230h43q50 0 70 18q11 -13 11 -34t-25 -34t-67 -13h-32v-105q0 -28 25 -39q-18 -32 -52 -32q-56 0 -56 70v106h-226q-81 0 -81 67q0 50 38.5 134.5t91.5 163t113.5 136t99.5 57.5
q47 0 47 -63v-432z" />
    <glyph glyph-name="five" unicode="5" horiz-adv-x="551" 
d="M276 444q93 0 153 -60t60 -153.5t-67.5 -166.5t-167.5 -73q-69 0 -125.5 36t-56.5 91q0 22 17 37t35 15q19 -52 60.5 -80.5t100 -28.5t97.5 42.5t39 103.5q0 80 -56 125.5t-135 45.5q-54 0 -104 -18q-15 1 -26 11.5t-11 37.5t46 229q9 44 39 61.5t85 17.5h109q51 0 76 19
q17 -14 17 -37q0 -60 -110 -60h-150l-45 -216q58 21 120 21z" />
    <glyph glyph-name="six" unicode="6" horiz-adv-x="601" 
d="M63 302q0 172 114.5 297.5t263.5 125.5q46 0 46 -28q0 -6 -1 -8q-140 -14 -238 -115t-98 -263q0 -111 48 -185.5t137 -74.5q56 0 93 37.5t37 115t-56.5 123.5t-137.5 46q-12 0 -24 -1q1 32 25.5 48.5t58.5 16.5q92 0 153 -62t61 -150q0 -109 -66 -171.5t-162 -62.5
q-120 0 -187 87.5t-67 223.5z" />
    <glyph glyph-name="seven" unicode="7" horiz-adv-x="481" 
d="M122 717h311q8 -13 8 -37.5t-37 -92t-81.5 -140t-81.5 -169.5t-37 -176q0 -55 37 -66q-3 -16 -16.5 -30.5t-42.5 -14.5t-49.5 26.5t-20.5 74t24 117t71 155.5q69 126 168 282q-36 -9 -94 -9h-157q-50 0 -78 -30q-22 10 -22 42.5t28 50t70 17.5z" />
    <glyph glyph-name="eight" unicode="8" horiz-adv-x="575" 
d="M141 201q0 -62 46 -109t124 -47q51 0 89 30t38 81q0 60 -51 100q-46 37 -100 65t-73 40q-73 -66 -73 -160zM418 517q0 61 -39 109t-96.5 48t-94 -31t-36.5 -81q0 -79 109 -140q17 -9 50 -26.5t49 -26.5q58 62 58 148zM499 530q0 -59 -29.5 -105.5t-75.5 -74.5
q57 -35 89 -75.5t32 -95.5q0 -73 -61.5 -130.5t-152 -57.5t-166 54.5t-75.5 142.5q0 62 34 114t86 80q-51 33 -78.5 71t-27.5 98t59 117t146 57t153.5 -54t66.5 -141z" />
    <glyph glyph-name="nine" unicode="9" horiz-adv-x="556" 
d="M514 408q0 -105 -47 -201t-129.5 -156t-177.5 -60q-19 0 -32.5 7.5t-13.5 17.5t1 12q134 13 224.5 115.5t90.5 248.5q0 149 -82 228q-46 43 -106 43t-97 -35t-37 -96q0 -92 68 -144q58 -44 138 -44q14 0 28 1q0 -32 -24.5 -48.5t-59.5 -16.5q-97 0 -161.5 67.5
t-64.5 162.5t63.5 155t156.5 60q122 0 192 -89t70 -228z" />
    <glyph glyph-name="colon" unicode=":" horiz-adv-x="317" 
d="M212 492.5q15 -15.5 15 -42t-23 -49t-49.5 -22.5t-42 15t-15.5 41.5t23.5 49.5t50 23t41.5 -15.5zM212 115.5q15 -15.5 15 -41.5t-23 -49t-49.5 -23t-42 15.5t-15.5 41.5t23.5 49t50 23t41.5 -15.5z" />
    <glyph glyph-name="semicolon" unicode=";" horiz-adv-x="317" 
d="M212 492.5q15 -15.5 15 -42t-23 -49t-49.5 -22.5t-42 15t-15.5 41.5t23.5 49.5t50 23t41.5 -15.5zM165 -30q0 36 -19 64t-51 37q2 23 20 39.5t44 16.5q38 0 59 -34t21 -78q0 -71 -33 -126.5t-71 -55.5q-22 0 -26 22q56 38 56 115z" />
    <glyph glyph-name="less" unicode="&#x3c;" horiz-adv-x="664" 
d="M132 411q0 -22 147 -88t260 -92q0 -31 -17.5 -47t-51.5 -16t-139.5 41t-200 97.5t-94.5 90.5q0 37 103.5 98t215 105.5t145 44.5t33.5 -32q-102 -32 -251.5 -102.5t-149.5 -99.5z" />
    <glyph glyph-name="equal" unicode="=" horiz-adv-x="706" 
d="M161 556h456q2 -4 2 -16q0 -54 -75 -54h-454q-4 8 -4 19q0 51 75 51zM161 316h456q2 -5 2 -16q0 -54 -75 -54h-454q-4 10 -4 19q0 51 75 51z" />
    <glyph glyph-name="greater" unicode="&#x3e;" horiz-adv-x="659" 
d="M328 209q-106 -41 -140 -41q-67 0 -67 63q112 26 259 92t147 88q0 29 -149.5 99.5t-251.5 102.5q0 32 33.5 32t145 -44.5t215 -105.5t103.5 -98q0 -34 -94.5 -90.5t-200.5 -97.5z" />
    <glyph glyph-name="question" unicode="?" horiz-adv-x="494" 
d="M287 365q-17 -27 -17 -54t13.5 -43.5t38.5 -18.5q-1 -20 -16 -33t-42.5 -13t-52 24.5t-24.5 61.5t16.5 70t40 58.5t46.5 51.5q57 63 57 133q0 44 -29.5 77.5t-76.5 33.5t-75.5 -22t-28.5 -57q0 -70 64 -95q-1 -11 -18 -20t-36 -9q-41 0 -66 28t-25 75q0 62 57.5 104.5
t137.5 42.5t131 -44t51 -108q0 -45 -17 -82.5t-41 -62.5t-47.5 -48t-40.5 -50zM297.5 97q14.5 -14 14.5 -38.5t-22 -46t-48 -21.5t-40.5 14.5t-14.5 39t22.5 45.5t48 21t40 -14z" />
    <glyph glyph-name="at" unicode="@" horiz-adv-x="870" 
d="M328 188q0 -52 69.5 -52t118.5 55l6 101q-97 -6 -144 -32q-50 -28 -50 -72zM591 162q0 -31 30 -31q45 0 86 55t41 159q0 122 -81 195.5t-202 73.5q-155 0 -250 -99t-95 -268q0 -74 23 -130t62 -87q75 -60 177 -60t182 44q7 -7 7 -17.5t-21 -26.5q-59 -45 -181 -45
q-112 0 -201 73q-44 36 -71 100.5t-27 148.5q0 186 114.5 299t285.5 113q140 0 234 -87t94 -226q0 -120 -62.5 -193t-135.5 -73q-35 0 -58 17.5t-27 49.5q-55 -65 -146 -65q-56 0 -89.5 27t-33.5 70q0 67 71.5 105.5t206.5 43.5l3 50v10q0 43 -17.5 66t-60.5 23t-65.5 -16
t-24 -36.5t11.5 -33.5q-19 -12 -43 -12t-37 11t-13 30q0 41 51.5 69t123 28t111.5 -34t40 -93v-6l-13 -216v-6z" />
    <glyph glyph-name="A" unicode="A" horiz-adv-x="639" 
d="M200 230h241l-112 351zM621 17q-16 -26 -46.5 -26t-45.5 13t-26 47l-41 118h-285l-42 -109q-26 -69 -66 -69q-34 0 -47 34q23 9 36 47l235 593q-11 27 -25 40q23 20 47.5 20t38 -15t25.5 -48l204 -594q14 -41 38 -51z" />
    <glyph glyph-name="B" unicode="B" horiz-adv-x="697" 
d="M595 530q0 -117 -122 -156q75 -19 121.5 -64.5t46.5 -116.5q0 -92 -79.5 -147t-214.5 -55t-192.5 34t-57.5 101l1 508q0 37 -15 56q101 35 235 35t205.5 -54t71.5 -141zM339 395q79 0 122.5 35.5t43.5 96.5t-47 97.5t-130 36.5t-144 -16l-2 -250h153h4zM339 54
q103 0 157.5 37t54.5 101.5t-55 102.5t-158 38h-156l-1 -206q0 -73 158 -73z" />
    <glyph glyph-name="C" unicode="C" horiz-adv-x="677" 
d="M605 605q0 -25 -16 -39t-39.5 -14t-36.5 7q1 7 1 13q0 34 -31 61t-97 27q-92 0 -160.5 -78.5t-68.5 -220.5t62 -217.5t173 -75.5q59 0 110 24t84 57q7 -1 13.5 -9.5t6.5 -22.5q0 -37 -70.5 -81.5t-166.5 -44.5q-133 0 -218.5 96t-85.5 262t97 271t241 105q86 0 144 -35
t58 -85z" />
    <glyph glyph-name="D" unicode="D" horiz-adv-x="722" 
d="M304 725q148 0 258 -86q54 -43 86.5 -115.5t32.5 -165.5t-32.5 -165.5t-86.5 -115.5q-110 -86 -258 -86q-121 0 -164 31t-43 94l1 518q0 37 -15 56q101 35 221 35zM304 53q121 0 204 78.5t83 226t-83 225.5t-204 78q-63 0 -120 -16l-3 -529q0 -24 6 -36q14 -27 117 -27z
" />
    <glyph glyph-name="E" unicode="E" horiz-adv-x="640" 
d="M264 67h202q57 0 85 42q13 -5 21 -17.5t8 -25.5q0 -66 -110 -66h-210q-77 0 -114 31t-37 101v509q0 30 -25 40q24 36 80 36h316q100 0 100 -52q0 -31 -29 -41q-28 25 -85 25h-273v-244h211q55 0 78 -9t23 -35t-24 -38q-27 14 -85 14h-203v-202q0 -36 16.5 -52t54.5 -16z
" />
    <glyph glyph-name="F" unicode="F" horiz-adv-x="608" 
d="M164 717h317q99 0 99 -50q0 -30 -29 -42q-29 26 -85 26h-273v-248h211q55 0 78 -8.5t23 -33t-24 -38.5q-27 14 -85 14h-203v-275q0 -29 25 -39q-21 -32 -53 -32q-56 0 -56 70v580q0 30 -25 40q24 36 80 36z" />
    <glyph glyph-name="G" unicode="G" horiz-adv-x="715" 
d="M609 -99q-56 0 -56 69v111q-31 -37 -81.5 -63.5t-110.5 -26.5q-125 0 -210.5 89.5t-85.5 240.5q0 180 103.5 292t268.5 112q95 0 152.5 -37.5t57.5 -88.5q0 -23 -16 -37.5t-38.5 -14.5t-37.5 8q1 5 1 11q0 38 -34.5 66t-104.5 28q-119 0 -189.5 -84t-70.5 -226
t57.5 -214.5t163 -72.5t177.5 98l2 150h-60q-59 0 -122 -5q-11 15 -11 30q0 23 35.5 33t116 10t102 -14t21.5 -53l-2 -341q0 -29 25 -38q-19 -32 -53 -32z" />
    <glyph glyph-name="H" unicode="H" horiz-adv-x="748" 
d="M648 656v-594q0 -29 25 -39q-20 -32 -52 -32q-56 0 -56 70v267h-385v-266q0 -28 24 -39q-20 -32 -53 -32q-55 0 -55 70v594q0 28 -25 39q18 31 52 31q57 0 57 -69v-267h385v266q0 28 -25 39q18 31 52 31q56 0 56 -69z" />
    <glyph glyph-name="I" unicode="I" horiz-adv-x="279" 
d="M180 656v-594q0 -28 24 -39q-20 -32 -53 -32q-55 0 -55 70v594q0 28 -25 39q18 31 52 31q57 0 57 -69z" />
    <glyph glyph-name="J" unicode="J" horiz-adv-x="396" 
d="M315 656v-509q0 -74 -43 -114.5t-108.5 -40.5t-101 20.5t-35.5 45.5t12 37q47 -33 108 -33q84 0 84 83v510q0 29 -25 39q20 31 53 31q56 0 56 -69z" />
    <glyph glyph-name="K" unicode="K" horiz-adv-x="643" 
d="M542 -8q-23 0 -44.5 15t-63.5 58l-254 261v-264q0 -28 24 -39q-20 -32 -53 -32q-55 0 -55 70v594q0 28 -25 39q18 31 52 31q57 0 57 -69v-268l264 280q32 33 51 45t40.5 12t36 -14t21.5 -33q-32 -11 -75 -52l-262 -260l280 -285q32 -35 69 -43q-21 -46 -60 -46h-3z" />
    <glyph glyph-name="L" unicode="L" horiz-adv-x="576" 
d="M102 131v524q0 28 -25 39q20 31 53 31q56 0 56 -69v-523q0 -36 16.5 -52t54.5 -16h164q55 0 81 42q29 -10 29 -40q0 -67 -110 -67h-169q-78 0 -114 30t-36 101z" />
    <glyph glyph-name="M" unicode="M" horiz-adv-x="956" 
d="M876 8q-23 -16 -47.5 -16t-37.5 15.5t-17 52.5l-38 543l-227 -567q-10 -27 -37.5 -26.5t-36.5 26.5l-221 568l-37 -541q-6 -72 -53 -72q-24 0 -47 21q14 12 18 53l44 586v8q0 29 -14 46q31 20 63 20q64 0 93 -82l195 -496l203 495q29 83 98 83q27 0 56 -17
q-15 -15 -15 -46v-8l43 -588q2 -44 15 -58z" />
    <glyph glyph-name="N" unicode="N" horiz-adv-x="768" 
d="M108 61v594q0 29 -25 39q22 31 54.5 31t54 -16t43.5 -51l343 -542v539q0 28 -25 39q20 31 53 31q56 0 56 -69v-594q0 -28 23 -41q-19 -30 -51 -30t-56.5 20t-53.5 64l-333 516v-529q0 -28 25 -39q-20 -32 -52 -32q-56 0 -56 70z" />
    <glyph glyph-name="O" unicode="O" horiz-adv-x="768" 
d="M405 53q100 0 159 89q50 74 50 186q0 22 -2 46q-10 140 -79 215.5t-169.5 75.5t-159.5 -90q-49 -74 -49 -183q0 -174 82 -264q68 -75 168 -75zM611.5 626.5q84.5 -98.5 84.5 -266.5t-84.5 -268.5t-226.5 -100.5t-227.5 100t-85.5 267t85.5 267t227.5 100t226.5 -98.5z
" />
    <glyph glyph-name="P" unicode="P" horiz-adv-x="621" 
d="M316 653h-129v-318h129q83 0 126.5 43.5t43.5 115t-43.5 115.5t-126.5 44zM159 717h161q116 0 187 -60.5t71 -162t-71 -162t-187 -60.5h-132v-210q0 -29 25 -39q-21 -32 -54 -32q-55 0 -55 70v580q0 29 -25 40q24 36 80 36z" />
    <glyph glyph-name="Q" unicode="Q" horiz-adv-x="774" 
d="M710 -93q12 -15 12 -31.5t-6 -31.5t-21 -30q-35 -33 -103 -33t-141 38.5t-118.5 88t-45.5 85.5q0 13 15 23t60 23q114 33 184 121.5t70 223.5t-65.5 207.5t-162.5 72.5t-154.5 -72.5t-57.5 -185t48.5 -174t133.5 -63.5q-6 -25 -25 -41t-49 -16q-79 0 -138.5 76t-59.5 185
q0 151 90.5 251.5t224.5 100.5t221 -89t87 -232q0 -175 -98.5 -281.5t-255.5 -142.5q47 -53 115.5 -83.5t132 -30.5t107.5 41z" />
    <glyph glyph-name="R" unicode="R" horiz-adv-x="630" 
d="M187 361h129q84 0 127 38t43 106.5t-43 107t-127 38.5h-129v-290zM538 -8q-28 0 -47 14.5t-48 55.5l-164 233h-91v-233q0 -29 25 -39q-21 -32 -54 -32q-55 0 -55 70v580q0 29 -25 40q24 36 80 36h158q117 0 187.5 -56t70.5 -148t-52.5 -145.5t-143.5 -67.5l165 -220
q25 -34 62 -37q-23 -51 -68 -51z" />
    <glyph glyph-name="S" unicode="S" horiz-adv-x="644" 
d="M557 589q0 -28 -15.5 -44.5t-35 -16.5t-43.5 8q4 16 4 31q0 37 -38.5 68.5t-107 31.5t-109.5 -29t-41 -77.5t42 -84t102.5 -61.5t121 -53t102.5 -68.5t42 -94.5q0 -89 -77.5 -148.5t-185.5 -59.5t-179 48.5t-71 122.5q0 32 18 52.5t48 20.5t47 -24q-23 -21 -23 -59
t42 -68t115.5 -30t127.5 38t54 93q0 35 -30.5 64t-76 48t-98.5 43t-98.5 48t-76 64.5t-30.5 90.5q0 81 71.5 133.5t170.5 52.5t163.5 -41t64.5 -99z" />
    <glyph glyph-name="T" unicode="T" horiz-adv-x="549" 
d="M96 717h384q56 0 56 -45q0 -20 -16 -36q-25 14 -66 14h-139v-588q0 -27 25 -39q-20 -32 -51 -32q-57 0 -57 70v589h-163q-55 0 -55 44q0 21 15 36q27 -13 67 -13z" />
    <glyph glyph-name="U" unicode="U" horiz-adv-x="704" 
d="M101 257v398q0 28 -25 39q22 31 52 31q56 0 56 -69v-409q0 -91 43.5 -137.5t137.5 -46.5q181 0 181 184v408q0 28 -26 39q20 31 53 31q55 0 55 -69v-399q0 -124 -64 -194.5t-198 -70.5t-199.5 71t-65.5 194z" />
    <glyph glyph-name="V" unicode="V" horiz-adv-x="643" 
d="M554 686q0 20 -10 32q23 10 43.5 10t34.5 -13t14 -34t-8 -41l-233 -589q-14 -35 -27 -47.5t-38.5 -12.5t-39 13t-25.5 47l-222 590q-15 41 -37 54q25 30 59 30q21 0 35.5 -15t26.5 -47l208 -584l209 560q10 27 10 47z" />
    <glyph glyph-name="W" unicode="W" horiz-adv-x="973" 
d="M869 660q0 31 -21 45q20 20 47.5 20t41 -15t13.5 -36.5t-6 -42.5l-158 -579q-17 -60 -68.5 -60t-65.5 60l-149 555l-148 -555q-15 -60 -69 -60q-27 0 -42 13t-24 47l-159 582q-11 41 -39 53q18 38 59 38q23 0 38.5 -16t24.5 -57l146 -572l156 594q14 51 63.5 51t62.5 -51
l152 -595l141 551q4 17 4 30z" />
    <glyph glyph-name="X" unicode="X" horiz-adv-x="630" 
d="M585 4.5q-16 -13.5 -38 -13.5t-38 11.5t-35 39.5l-157 238l-170 -237q-38 -52 -75 -52q-20 0 -33.5 13.5t-13.5 34.5q0 4 1 9q29 0 52 31l197 266l-191 290q-25 38 -62 40q6 22 23.5 36t39.5 14q41 0 73 -50l172 -260l168 233q18 23 18 39t-14 27q26 13 49.5 13
t36.5 -12.5t13 -34.5t-19 -49l-209 -282l176 -267q25 -39 58 -43q-6 -21 -22 -34.5z" />
    <glyph glyph-name="Y" unicode="Y" horiz-adv-x="596" 
d="M311 -8q-54 0 -54 74l1 251l-183 321q-24 37 -60 38q15 49 60 49t75 -52l156 -278l161 251q16 22 16 38.5t-12 28.5q21 12 48 12t39.5 -12t12.5 -32t-16 -47l-214 -314l-1 -260q0 -32 18 -52q-21 -16 -47 -16z" />
    <glyph glyph-name="Z" unicode="Z" horiz-adv-x="610" 
d="M558 58q0 -58 -127 -58h-309q-32 0 -51.5 17t-19.5 42.5t35 69.5l390 526q-150 -16 -281 -16t-131 57q0 21 17 35q39 -14 105 -14h300q33 0 52.5 -17t19.5 -43t-36 -70l-387 -525l303 12q68 3 102 25q18 -18 18 -41z" />
    <glyph glyph-name="bracketleft" unicode="[" horiz-adv-x="392" 
d="M161 -140h109q61 0 61 -43q0 -11 -3 -14h-169q-57 0 -73 35q-9 19 -9 48v959h193q61 0 61 -44q0 -12 -3 -16h-167v-925z" />
    <glyph glyph-name="backslash" unicode="\" horiz-adv-x="562" 
d="M96 967q35 0 55 -57q63 -174 176.5 -502t160.5 -460q11 -37 24 -48q-16 -14 -37 -14q-37 0 -56 58q-34 97 -128 368.5t-208 595.5q-13 38 -25 46q17 13 38 13z" />
    <glyph glyph-name="bracketright" unicode="]" horiz-adv-x="392" 
d="M248 787h-109q-61 0 -61 43q0 7 2 15h169q58 0 75 -36q8 -19 8 -48v-958h-193q-61 0 -61 43q0 9 2 15h168v926z" />
    <glyph glyph-name="asciicircum" unicode="^" horiz-adv-x="570" 
d="M482 236q-31 0 -57 50l-148 285l-174 -334q-20 0 -34.5 13.5t-14.5 41.5t20 63l156 282q19 34 45 34t40 -32l202 -388q-16 -15 -35 -15z" />
    <glyph glyph-name="underscore" unicode="_" horiz-adv-x="577" 
d="M73 -85h502q2 -8 2 -17q0 -53 -75 -53h-500q-4 10 -4 19q0 51 75 51z" />
    <glyph glyph-name="grave" unicode="`" horiz-adv-x="234" 
d="M203 696q-22 0 -42 -18l-96 -93q-18 -17 -31 -17q-15 0 -22 15l86 130q33 52 71 52q28 0 40.5 -17t12.5 -31t-2 -23q-8 2 -17 2z" />
    <glyph glyph-name="a" unicode="a" horiz-adv-x="527" 
d="M144 128q0 -72 78.5 -72t129.5 69v119q-106 -6 -157 -37.5t-51 -78.5zM435 356v-266q0 -53 49 -60q-19 -39 -63 -39q-63 0 -69 81q-58 -81 -156 -81q-62 0 -102 34t-40 94q0 74 74.5 119.5t223.5 49.5v60q0 62 -22 91.5t-69.5 29.5t-71.5 -19.5t-24 -44t14 -39.5
q-21 -16 -46.5 -16t-41.5 14t-16 40q0 47 54 80t133 33t126 -42.5t47 -118.5z" />
    <glyph glyph-name="b" unicode="b" horiz-adv-x="576" 
d="M288 57q75 0 119 55t44 146t-42 140.5t-104 49.5q-90 0 -134 -90l-1 -196q0 -105 118 -105zM171 441q55 76 146.5 76t155.5 -65.5t64 -187t-73 -196.5q-73 -76 -174 -76t-152 44.5t-51 125.5l1 527q0 30 -25 40q21 31 53 31q56 0 56 -69z" />
    <glyph glyph-name="c" unicode="c" horiz-adv-x="491" 
d="M444 421q0 -24 -14 -38t-34 -14t-33 8q3 11 3 22q0 61 -75 61q-61 0 -109 -56t-48 -151.5t44.5 -143.5t109.5 -48q83 0 138 53q13 -11 13 -29q0 -32 -50 -63t-114 -31q-93 0 -159 64t-66 182.5t74.5 199t181.5 80.5q63 0 100.5 -28t37.5 -68z" />
    <glyph glyph-name="d" unicode="d" horiz-adv-x="573" 
d="M401 413q-45 42 -109.5 42t-110 -55.5t-45.5 -151.5t39.5 -144t99.5 -48q101 0 126 114v243zM485 691v-629q0 -29 25 -39q-21 -32 -53 -32q-56 0 -56 70v16q-45 -86 -144 -86q-84 0 -147 67.5t-63 187t68 195.5t164 76q68 0 122 -34v206q0 30 -25 40q19 31 52 31
q57 0 57 -69z" />
    <glyph glyph-name="e" unicode="e" horiz-adv-x="489" 
d="M326 308q41 3 41 47.5t-25.5 74t-71.5 29.5t-84 -44t-47 -122zM179.5 105q42.5 -47 121.5 -47t131 52q15 -8 15 -27q0 -33 -48 -62.5t-114 -29.5q-103 0 -169 65t-66 182.5t71.5 198t164.5 80.5q74 0 120.5 -51t46.5 -116q0 -47 -25.5 -69.5t-82.5 -24.5l-208 -6
q0 -98 42.5 -145z" />
    <glyph glyph-name="f" unicode="f" horiz-adv-x="349" 
d="M123 465v136q0 77 42.5 118t103 41t94 -24t33.5 -57q0 -20 -16 -27q-40 46 -94 46q-36 0 -57.5 -23t-21.5 -70v-140h157q6 -7 6 -18q0 -46 -149 -46h-14v-528q0 -60 -25.5 -90.5t-64.5 -30.5q-54 0 -76 51q46 0 64 20.5t18 68.5v510q-88 5 -88 39q0 14 13 29q23 -5 67 -5
h8z" />
    <glyph glyph-name="g" unicode="g" horiz-adv-x="558" 
d="M271 166q47 0 76 38.5t29 97.5q0 80 -37 123.5t-83.5 43.5t-75.5 -38t-29 -92q0 -10 1 -21q5 -71 38.5 -111.5t80.5 -40.5zM363 -32h-128q-71 0 -115 24.5t-44 81t68 84.5q-76 56 -76 153t59 151.5t137 54.5q54 0 99 -27q6 48 36.5 78t64 30t52 -16t18.5 -42.5t-21 -38.5
q-22 17 -47 17t-42.5 -15.5t-22.5 -40.5q59 -57 59 -146t-59 -143t-137 -54q-39 0 -71 13q-44 -11 -44 -43q0 -24 22.5 -34t72.5 -10h115q73 0 111.5 -32t38.5 -88q0 -74 -73 -123t-177 -49t-164 39t-61 94q0 29 16.5 47t41.5 23q6 -133 182 -133q80 0 124.5 25.5t44.5 67.5
q0 52 -80 52z" />
    <glyph glyph-name="h" unicode="h" horiz-adv-x="594" 
d="M506 345v-283q0 -28 26 -39q-21 -32 -53 -32q-55 0 -55 70v278q0 105 -92 105q-50 0 -95 -40t-62 -107v-235q0 -29 25 -39q-21 -32 -52 -32q-56 0 -56 70v628q0 29 -25 40q17 31 52 31q56 0 56 -69v-296q26 54 74 88t112.5 34t104.5 -43.5t40 -128.5z" />
    <glyph glyph-name="i" unicode="i" horiz-adv-x="265" 
d="M178.5 715.5q16.5 -14.5 16.5 -40t-21.5 -46t-48.5 -20.5t-44 16t-17 42t23.5 44.5t49 18.5t42 -14.5zM175 447v-385q0 -29 25 -39q-21 -32 -52 -32q-56 0 -56 70v384q0 29 -25 40q19 32 52 32q56 0 56 -70z" />
    <glyph glyph-name="j" unicode="j" horiz-adv-x="265" 
d="M175 447v-574q0 -60 -25.5 -90.5t-64.5 -30.5q-51 0 -77 51q47 0 65.5 20.5t18.5 68.5v553q0 29 -25 40q19 32 52 32q56 0 56 -70zM178.5 715.5q16.5 -14.5 16.5 -40t-21.5 -46t-48.5 -20.5t-44 16t-17 42t23.5 44.5t49 18.5t42 -14.5z" />
    <glyph glyph-name="k" unicode="k" horiz-adv-x="537" 
d="M175 691v-396q111 48 164.5 105.5t53.5 116.5q34 0 54 -17t20 -46q0 -51 -61.5 -99t-161.5 -80q142 -175 200 -198q25 -10 60 -10q0 -32 -16.5 -54t-45.5 -22q-46 0 -94 49.5t-173 217.5v-196q0 -29 25 -39q-21 -32 -52 -32q-56 0 -56 70v628q0 29 -25 40q17 31 52 31
q56 0 56 -69z" />
    <glyph glyph-name="l" unicode="l" horiz-adv-x="266" 
d="M175 691v-629q0 -29 25 -39q-21 -32 -52 -32q-56 0 -56 70v628q0 29 -25 40q17 31 52 31q56 0 56 -69z" />
    <glyph glyph-name="m" unicode="m" horiz-adv-x="928" 
d="M838 345v-283q0 -28 25 -39q-18 -32 -52 -32q-56 0 -56 70v278q0 105 -92 105q-50 0 -95 -41t-62 -110v-231q0 -28 26 -39q-21 -32 -53 -32q-55 0 -55 70v278q0 105 -92 105q-50 0 -95 -40t-62 -107v-235q0 -29 25 -39q-21 -32 -52 -32q-56 0 -56 70v384q0 29 -25 40
q19 32 52 32q56 0 56 -70v-52q26 54 74 88t108 34t98.5 -33t47.5 -99q23 57 73 94.5t115.5 37.5t106 -43.5t40.5 -128.5z" />
    <glyph glyph-name="n" unicode="n" horiz-adv-x="594" 
d="M506 345v-283q0 -28 26 -39q-21 -32 -53 -32q-55 0 -55 70v278q0 105 -92 105q-50 0 -95 -40t-62 -107v-235q0 -29 25 -39q-21 -32 -52 -32q-56 0 -56 70v384q0 29 -25 40q19 32 52 32q56 0 56 -70v-52q26 54 74 88t112.5 34t104.5 -43.5t40 -128.5z" />
    <glyph glyph-name="o" unicode="o" horiz-adv-x="574" 
d="M280 460q-69 0 -107 -47.5t-38 -139.5q0 -119 46.5 -172.5t115.5 -53.5t106 48t37 140q0 120 -45.5 172.5t-114.5 52.5zM288 517q99 0 168.5 -69.5t69.5 -194t-69.5 -193.5t-168.5 -69t-168.5 69t-69.5 194t69.5 194t168.5 69z" />
    <glyph glyph-name="p" unicode="p" horiz-adv-x="581" 
d="M305 59q61 0 103.5 52.5t42.5 142.5t-42.5 142t-103.5 52q-86 0 -130 -82v-238q25 -38 56 -53.5t74 -15.5zM175 447v-1q52 71 142.5 71t155 -68.5t64.5 -193.5t-67.5 -194t-155 -69t-139.5 58v-227q0 -30 25 -39q-21 -32 -52 -32q-56 0 -56 71v622q0 29 -25 40
q19 32 52 32q56 0 56 -70z" />
    <glyph glyph-name="q" unicode="q" horiz-adv-x="565" 
d="M401 331q0 57 -30 90.5t-78 33.5q-67 0 -112 -55.5t-45 -151t44 -144.5t110 -49t111 61v215zM485 517v-694q0 -30 25 -39q-21 -32 -53 -32q-56 0 -56 71v224q-53 -56 -135.5 -56t-150.5 68t-68 186t68 195t163 77q79 0 124 -60q7 60 60 60h23z" />
    <glyph glyph-name="r" unicode="r" horiz-adv-x="421" 
d="M175 447v-37q42 107 139 107q47 0 73 -24t26 -55.5t-16 -48t-33 -16.5t-31 4q2 10 2 26q0 50 -50 50q-33 0 -65 -33t-45 -101v-257q0 -29 25 -39q-21 -32 -52 -32q-56 0 -56 70v384q0 29 -25 40q19 32 52 32q56 0 56 -70z" />
    <glyph glyph-name="s" unicode="s" horiz-adv-x="502" 
d="M383 366q-23 0 -39 12q6 10 6 29t-23 37t-69 18t-73 -20.5t-27 -48.5t30 -50.5t72 -41t84.5 -39.5t72.5 -53.5t30 -72.5q0 -59 -56 -102t-142 -43t-140 33t-54 85q0 31 17.5 48.5t42 17.5t38.5 -17q-14 -19 -14 -46t27.5 -46.5t80 -19.5t84 22.5t31.5 55t-29.5 56.5
t-71.5 41.5t-84.5 37t-72 49.5t-29.5 68q0 60 52 100.5t127.5 40.5t129.5 -27.5t54 -72.5q1 -24 -15.5 -37.5t-39.5 -13.5z" />
    <glyph glyph-name="t" unicode="t" horiz-adv-x="398" 
d="M176 444v-317q0 -37 14.5 -53t47.5 -16q62 0 117 53q17 -9 17 -29q0 -34 -44 -62.5t-108 -28.5q-128 0 -128 133v320q-81 3 -81 39q0 19 12 29q35 -5 54 -5h15v81q0 28 -25 40q20 31 52 31q57 0 57 -70v-82h168q4 -7 4 -17q0 -46 -158 -46h-14z" />
    <glyph glyph-name="u" unicode="u" horiz-adv-x="594" 
d="M506 447v-385q0 -28 26 -39q-21 -32 -53 -32q-55 0 -55 70v26q-56 -96 -163 -96q-169 0 -169 172v282q0 29 -25 40q19 32 52 32q56 0 56 -70v-279q0 -106 104 -106q48 0 86.5 29t58.5 81v273q0 29 -26 40q23 32 53 32q55 0 55 -70z" />
    <glyph glyph-name="v" unicode="v" horiz-adv-x="510" 
d="M400 418q9 24 9 45t-14 36q23 18 44.5 18t35.5 -14t14 -35.5t-12 -49.5l-143 -356q-15 -39 -31 -54.5t-44.5 -15.5t-45.5 16t-30 54l-127 371q-13 35 -41 37q1 21 17 34t37 13q50 0 71 -68l120 -399z" />
    <glyph glyph-name="w" unicode="w" horiz-adv-x="757" 
d="M657 429q5 21 5 41.5t-13 33.5q21 13 47 13t37 -26q5 -12 5 -30t-6 -41l-97 -358q-11 -38 -28 -54.5t-46 -16.5q-57 0 -76 71l-92 346l-88 -346q-17 -71 -76 -71t-76 71l-97 369q-10 38 -41 39q1 21 17.5 34t38.5 13q51 0 69 -70l91 -392l103 399q9 34 25 48.5t42.5 14.5
t42 -14.5t23.5 -48.5l99 -406z" />
    <glyph glyph-name="x" unicode="x" horiz-adv-x="500" 
d="M475 28q-18 -37 -57.5 -37t-77.5 54l-98 140l-98 -140q-34 -54 -71 -54q-19 0 -33.5 12.5t-15.5 33.5q27 6 50 38l127 170l-118 168q-36 52 -59 59q2 20 16.5 32.5t33.5 12.5q37 0 71 -49l109 -158l114 160q33 47 66 47q19 0 34 -12.5t16 -32.5q-32 -11 -52 -40
l-135 -183l117 -170q20 -31 61 -51z" />
    <glyph glyph-name="y" unicode="y" horiz-adv-x="535" 
d="M428 430q7 19 7 38t-14 34q22 15 49 15t44 -27q8 -14 8 -31.5t-9 -39.5l-208 -542q-49 -125 -134 -125q-32 0 -50 16t-18 40.5t16 39.5q18 -19 44 -19t41.5 14t28.5 50l36 98h-3q-20 0 -37 13.5t-25 38.5l-138 400q-10 37 -31 47q17 27 53 27q43 0 62 -65l137 -411z" />
    <glyph glyph-name="z" unicode="z" horiz-adv-x="507" 
d="M456 51q0 -51 -123 -51h-201q-32 0 -50 16.5t-18 43t32 61.5l286 328q-125 -15 -195 -15q-122 0 -122 54q0 19 16 33q39 -14 101 -14h207q31 0 49 -16.5t18 -42.5t-33 -62l-282 -326l198 7q66 1 99 27q18 -17 18 -43z" />
    <glyph glyph-name="braceleft" unicode="{" horiz-adv-x="384" 
d="M200 711q0 -29 9 -129t9 -128.5t-8.5 -51.5t-20.5 -36.5t-25 -23.5q-20 -16 -33 -20q87 -43 87 -128q0 -32 -9 -137t-9 -136q0 -57 31 -90.5t81 -39.5q-20 -25 -65 -25t-86.5 46.5t-41.5 137.5q0 31 8.5 116.5t8.5 122t-10.5 62t-23.5 35.5q-34 26 -34 35t10.5 18
t23.5 19t23.5 35.5t10.5 61.5t-8.5 117.5t-8.5 109.5q0 92 41.5 138.5t92.5 46.5q37 0 59 -25q-49 -5 -80.5 -39t-31.5 -92z" />
    <glyph glyph-name="bar" unicode="|" horiz-adv-x="279" 
d="M180 823v-925q0 -28 24 -39q-20 -31 -53 -31q-55 0 -55 70v924q0 28 -25 39q17 31 52 31q57 0 57 -69z" />
    <glyph glyph-name="braceright" unicode="}" horiz-adv-x="384" 
d="M260 682q0 -28 -8.5 -109.5t-8.5 -117.5t11 -61.5t23.5 -35.5t23.5 -19t11 -16.5t-11 -17t-23.5 -19.5t-23.5 -35.5t-11 -62t8.5 -122t8.5 -116.5q0 -91 -41.5 -137.5t-86 -46.5t-64.5 25q49 6 80 39.5t31 90.5q0 31 -8.5 136t-8.5 136.5t11.5 57.5t30.5 41q23 19 45 30
q-27 9 -58 44q-29 32 -29 85q0 31 8.5 131t8.5 129q0 58 -31 92t-80 39q22 25 58 25q51 0 92.5 -46.5t41.5 -138.5z" />
    <glyph glyph-name="asciitilde" unicode="~" horiz-adv-x="687" 
d="M466 410q60 0 65 54q25 -11 25 -44.5t-27.5 -57.5t-67.5 -24t-140 28t-127 28q-60 0 -65 -54q-25 7 -25 42.5t27.5 59.5t69 24t141.5 -28t124 -28z" />
    <glyph glyph-name="exclamdown" unicode="&#xa1;" horiz-adv-x="328" 
d="M208 -162q1 -7 1 -26t-13 -39.5t-36.5 -20.5t-35.5 20.5t-12 54.5v11l14 442q4 66 42 66q17 0 28 -14q-9 -23 -9 -51t1 -44zM120 438q-14 14 -14 38t21 45t45.5 21t38 -14t13.5 -39t-21 -45t-45 -20t-38 14z" />
    <glyph glyph-name="cent" unicode="&#xa2;" horiz-adv-x="491" 
d="M313 580v-63q60 -1 95.5 -28.5t35.5 -67.5q0 -24 -14 -38t-34 -14t-33 8q3 11 3 22q0 61 -75 61q-61 0 -109 -56t-48 -151.5t44.5 -143.5t109.5 -48q83 0 138 53q13 -11 13 -29q0 -30 -43.5 -59t-101.5 -34v-64q0 -27 25 -38q-20 -32 -52 -32q-57 0 -57 70v72
q-70 20 -115 80t-45 156t50.5 170t130.5 99v74q0 30 -26 39q21 32 53 32q55 0 55 -70z" />
    <glyph glyph-name="sterling" unicode="&#xa3;" horiz-adv-x="605" 
d="M111 398h83q-5 78 -5 115q0 95 59.5 153.5t127.5 58.5t107.5 -33.5t39.5 -75.5q0 -51 -54 -61q-9 44 -35.5 78t-69.5 34t-66 -34.5t-23 -87.5t4 -147h182q3 -5 3 -15q0 -48 -69 -48h-113v-41q0 -51 -12.5 -111.5t-45.5 -81.5q35 -3 122.5 -19.5t141 -16.5t95.5 37
q8 -10 8 -27q0 -32 -31.5 -58t-85 -26t-155.5 17.5t-156 17.5t-96 -34q-8 11 -8 32.5t22.5 44.5t63.5 30q16 13 25.5 26.5t18 49t8.5 91.5t-2 69h-148q-4 12 -4 17q0 46 68 46z" />
    <glyph glyph-name="currency" unicode="&#xa4;" horiz-adv-x="631" 
d="M327 223q58 0 88 34.5t30 96.5q0 12 -1 24q-7 79 -44.5 116t-95 37t-87 -34t-29.5 -95q0 -97 40.5 -138t98.5 -41zM488 489q27 -48 27 -116t-33 -117l79 -77q-4 -14 -19 -19q-12 -10 -30.5 -10t-45.5 27l-32 30q-49 -34 -117 -34t-121 35l-31 -31q-29 -26 -47 -26t-30 9
q-14 5 -18 19l79 77q-35 49 -35 118t28 116l-72 72q6 15 18 21q12 10 30.5 10t46.5 -29l23 -23q53 40 128 40t127 -40l22 23q28 29 46.5 29t30.5 -10q11 -5 19 -21z" />
    <glyph glyph-name="yen" unicode="&#xa5;" horiz-adv-x="615" 
d="M467 646q16 22 16 38.5t-12 28.5q21 12 48 12t39.5 -12t12.5 -32t-16 -47l-170 -249h146q3 -12 3 -16q0 -46 -74 -46h-117l-2 -3v-76h190q3 -9 3 -15q0 -47 -74 -47h-120v-122q0 -32 18 -52q-21 -16 -47 -16q-54 0 -54 74v116h-187q-3 9 -3 16q0 46 74 46h117v73l-3 6
h-185q-3 6 -3 15q0 47 74 47h78l-144 253q-24 37 -60 38q15 49 60 49t75 -52l156 -278z" />
    <glyph glyph-name="brokenbar" unicode="&#xa6;" horiz-adv-x="279" 
d="M181 248v-254q0 -29 25 -39q-22 -31 -52 -31q-56 0 -56 70v253q0 29 -25 39q20 31 52 31q56 0 56 -69zM181 770v-253q0 -29 25 -39q-21 -32 -52 -32q-56 0 -56 70v253q0 29 -25 39q20 32 52 32q56 0 56 -70z" />
    <glyph glyph-name="section" unicode="&#xa7;" horiz-adv-x="644" 
d="M186 186q0 -39 27.5 -71.5t68.5 -53.5t89.5 -45.5t89.5 -47t68.5 -59.5t27.5 -83q0 -89 -70 -148.5t-168.5 -59.5t-163 48.5t-64.5 123.5q0 31 17.5 50.5t45 19.5t42.5 -22q-20 -26 -20 -53q0 -44 37.5 -73.5t104 -29.5t115 37.5t48.5 90.5q0 40 -38.5 72t-93 56.5
t-109 52.5t-93 73.5t-38.5 105t32 96t76 36.5q24 0 44 -11q-35 -11 -55 -38.5t-20 -66.5zM534 584q0 -28 -13 -43.5t-35.5 -15.5t-37.5 8q4 15 4 30q0 37 -35 68.5t-97 31.5t-98 -28.5t-36 -76.5t38 -83.5t93 -61.5t109.5 -54.5t92.5 -72t38 -97t-35.5 -94.5t-79.5 -41
q-29 0 -52 12q41 10 66 42t25 72.5t-38.5 73.5t-93 57.5t-109 51.5t-93 72t-38.5 104q0 81 65.5 133.5t155 52.5t147 -41t57.5 -100z" />
    <glyph glyph-name="dieresis" unicode="&#xa8;" horiz-adv-x="283" 
d="M106.5 687q12.5 -13 12.5 -35t-19 -41t-40.5 -19t-34.5 13t-13 35t19.5 41t41 19t34 -13zM258.5 687q12.5 -13 12.5 -35t-19 -41t-41 -19t-34.5 13t-12.5 35t19.5 41t41 19t34 -13z" />
    <glyph glyph-name="copyright" unicode="&#xa9;" horiz-adv-x="869" 
d="M518 467l2 14q0 29 -20.5 48.5t-57.5 19.5q-63 0 -99.5 -55.5t-36.5 -138t40.5 -127.5t102.5 -45q78 0 128 66q14 -4 14 -25q0 -32 -47.5 -66.5t-112.5 -34.5q-86 0 -143 62.5t-57 163t64.5 177.5t159.5 77q59 0 98.5 -28.5t39.5 -69.5q0 -20 -13.5 -32t-30 -12t-31.5 6z
M210.5 587q-84.5 -94 -84.5 -230.5t84 -229t224 -92.5t224.5 92.5t84.5 229t-84.5 230.5t-224 94t-224 -94zM693.5 620q103.5 -105 103.5 -264.5t-103 -262t-259.5 -102.5t-259.5 102.5t-103 262t103 264.5t259 105t259.5 -105z" />
    <glyph glyph-name="ordfeminine" unicode="&#xaa;" horiz-adv-x="527" 
d="M144 128q0 -72 78.5 -72t129.5 69v119q-106 -6 -157 -37.5t-51 -78.5zM435 356v-266q0 -53 49 -60q-19 -39 -63 -39q-63 0 -69 81q-58 -81 -156 -81q-62 0 -102 34t-40 94q0 74 74.5 119.5t223.5 49.5v60q0 62 -22 91.5t-69.5 29.5t-71.5 -19.5t-24 -44t14 -39.5
q-21 -16 -46.5 -16t-41.5 14t-16 40q0 47 54 80t133 33t126 -42.5t47 -118.5z" />
    <glyph glyph-name="guillemotleft" unicode="&#xab;" horiz-adv-x="613" 
d="M212.5 505.5q-30.5 -52.5 -30.5 -101t31 -102t98 -127.5q-9 -21 -29.5 -21t-70 46.5t-91.5 107.5t-42 96.5t42 97t91.5 108t70 46.5t29.5 -21q-68 -77 -98.5 -129.5zM436.5 505.5q-30.5 -52.5 -30.5 -101t31 -101.5t98 -128q-9 -21 -29.5 -21t-70 46.5t-91.5 107.5
t-42 96.5t42.5 97t92 108t69.5 46.5t29 -21q-68 -77 -98.5 -129.5z" />
    <glyph glyph-name="logicalnot" unicode="&#xac;" horiz-adv-x="737" 
d="M649 408v-110q0 -28 25 -39q-19 -31 -52 -31q-56 0 -56 69v90q0 20 -23 20h-480q-5 10 -5 18q0 44 72 44h453q36 0 51 -14t15 -47z" />
    <glyph glyph-name="registered" unicode="&#xae;" horiz-adv-x="674" 
d="M287 683v-124h43q76 0 76 61q0 63 -76 63h-43zM474 400q-10 -23 -37.5 -23t-50.5 32l-78 111h-22v-109q0 -16 13 -20q-12 -14 -33 -14q-31 0 -31 33v276q0 12 -11 18q11 17 37 17h71q59 0 94.5 -27.5t35.5 -69t-25.5 -67.5t-69.5 -34l78 -105q12 -16 29 -18zM172 375.5
q62 -68.5 164.5 -68.5t165 68.5t62.5 169t-61.5 168.5t-164.5 68t-165.5 -68.5t-62.5 -168.5t62 -168.5zM145.5 739.5q75.5 75.5 191 75.5t191 -75.5t75.5 -195.5t-75.5 -195.5t-191 -75.5t-191 75.5t-75.5 195.5t75.5 195.5z" />
    <glyph glyph-name="macron" unicode="&#xaf;" horiz-adv-x="358" 
d="M64 660h277q5 -5 5 -19.5t-14 -24.5t-38 -10h-277q-5 7 -5 20.5t14 23.5t38 10z" />
    <glyph glyph-name="degree" unicode="&#xb0;" horiz-adv-x="487" 
d="M105.5 794q43.5 41 108.5 41t106.5 -40t41.5 -103.5t-42.5 -105t-107.5 -41.5t-107.5 40.5t-42.5 104t43.5 104.5zM213 598q39 0 63.5 26t24.5 66t-25 66t-64.5 26t-64 -25t-24.5 -65t25.5 -67t64.5 -27z" />
    <glyph glyph-name="plusminus" unicode="&#xb1;" horiz-adv-x="715" 
d="M90 453q0 51 74 51q65 -4 162 -4q-2 74 -4 117q0 72 51 72q11 0 19 -4l-3 -185l232 4q4 -10 4 -19q0 -51 -74 -51q-90 2 -162 3q1 -60 3 -132q0 -74 -52 -74q-9 0 -17 4l4 202l-232 -3q-5 5 -5 19zM165 162h458q4 -7 4 -17q0 -53 -75 -53h-457q-5 13 -5 19q0 51 75 51z
" />
    <glyph glyph-name="twosuperior" unicode="&#xb2;" horiz-adv-x="376" 
d="M259 307h-176q-22 0 -34 11t-12 19t1 11q116 93 165 152t49 113q0 37 -20 56t-54 19t-53.5 -14.5t-19.5 -38t22 -36.5q-14 -16 -37.5 -16t-38 14t-14.5 36q0 38 40.5 67t101 29t101 -33.5t40.5 -89.5t-49 -111t-163 -142q65 7 150 7t85 -37q0 -14 -14 -24q-23 8 -70 8z
" />
    <glyph glyph-name="threesuperior" unicode="&#xb3;" horiz-adv-x="393" 
d="M291.5 701.5q33.5 -23.5 33.5 -59t-32.5 -62t-80.5 -38.5q59 -5 97.5 -37t38.5 -82t-48 -83.5t-107.5 -33.5t-103 22.5t-43.5 52t31 35.5q33 -63 127 -63q32 0 53.5 17t21.5 47q0 45 -33 68.5t-88 23.5q-15 0 -41 -6q-8 5 -8 16t23.5 23.5t51.5 21t51.5 25t23.5 39
t-21 35.5t-57.5 13t-84.5 -29q-6 0 -10.5 6.5t-4.5 13.5q0 17 40 37.5t88.5 20.5t82 -23.5z" />
    <glyph glyph-name="acute" unicode="&#xb4;" horiz-adv-x="247" 
d="M236 585q-6 -17 -21 -17t-34 13l-104 83q-19 14 -34 14t-26 -5q-5 14 -5 27t7 24q14 25 47 25t70 -45z" />
    <glyph glyph-name="uni00B5" unicode="&#xb5;" horiz-adv-x="598" 
d="M506 447v-385q0 -28 26 -39q-21 -32 -53 -32q-55 0 -55 70v26q-56 -96 -161 -96q-53 0 -88 26v-118q0 -28 25 -40q-21 -32 -52 -32q-56 0 -56 70v548q0 29 -25 40q19 32 52 32q56 0 56 -70v-279q0 -106 104 -106q48 0 86.5 29t58.5 81v273q0 29 -26 40q23 32 53 32
q55 0 55 -70z" />
    <glyph glyph-name="paragraph" unicode="&#xb6;" horiz-adv-x="657" 
d="M253 717h263q-8 -41 -8 -99v-618q-10 -3 -23 -3q-47 0 -47 54v540q0 36 4 59h-56q-20 0 -28.5 -9t-8.5 -29v-612q-11 -3 -23 -3q-47 0 -47 54v225h-26q-90 0 -142.5 61.5t-52.5 159.5t52.5 159t142.5 61z" />
    <glyph glyph-name="periodcentered" unicode="&#xb7;" horiz-adv-x="427" 
d="M263 447.5q15 -15.5 15 -42t-23 -49t-49.5 -22.5t-41.5 15.5t-15 41.5t23 49t49.5 23t41.5 -15.5z" />
    <glyph glyph-name="cedilla" unicode="&#xb8;" horiz-adv-x="326" 
d="M202 -68q47 0 78.5 -20.5t31.5 -60t-41.5 -69.5t-106 -30t-106.5 25t-42 54q0 15 13 26q47 -52 125 -52t78 49q0 39 -63 39h-19q-24 0 -24 19q0 8 4 19l35 97h59l-34 -96h12z" />
    <glyph glyph-name="onesuperior" unicode="&#xb9;" horiz-adv-x="181" 
d="M150 674v-333q0 -19 15 -23q-14 -18 -34 -18q-35 0 -35 40v325q0 19 -22 19t-52 -14q-8 0 -8 12.5t25.5 27.5t53.5 15t42.5 -14t14.5 -37z" />
    <glyph glyph-name="ordmasculine" unicode="&#xba;" horiz-adv-x="402" 
d="M193 683q-40 0 -60.5 -25t-20.5 -68q0 -68 29 -97t68.5 -29t60.5 24.5t21 68.5q0 66 -29 96t-69 30zM91.5 685q45.5 40 110 40t109 -39.5t44.5 -112t-44.5 -112t-109 -39.5t-110 39.5t-45.5 111.5t45.5 112z" />
    <glyph glyph-name="guillemotright" unicode="&#xbb;" horiz-adv-x="613" 
d="M493 501.5q42 -61.5 42 -97t-42 -96.5t-91.5 -107.5t-70.5 -46.5q-10 0 -18.5 7.5t-10.5 13.5q67 74 97.5 127.5t30.5 102t-30.5 101.5t-97.5 129q2 6 10.5 13.5t18.5 7.5q21 0 70.5 -46.5t91.5 -108zM268.5 501.5q42.5 -61.5 42.5 -97t-42 -96.5t-92 -107.5t-71 -46.5
q-10 0 -18 7.5t-10 13.5q67 74 97.5 127.5t30.5 102t-30.5 101.5t-97.5 129q2 6 10 13.5t18 7.5q21 0 70.5 -46.5t92 -108z" />
    <glyph glyph-name="onequarter" unicode="&#xbc;" horiz-adv-x="663" 
d="M112 337v324q0 22 -24 22q-17 0 -42 -16q-10 3 -10 15t22.5 27.5t53.5 15.5q56 0 56 -53v-335q0 -16 18 -22q-13 -19 -35 -19q-39 0 -39 41zM480 697q18 28 35 28t27 -17q-5 -3 -19 -27l-382 -660q-17 -29 -34.5 -29t-27.5 16q4 4 19 29zM396 138h120v206q0 10 -7 10
q-19 0 -74.5 -82t-55.5 -120q0 -14 17 -14zM574 138h16q30 0 42 11q10 -10 10 -22t-12.5 -21t-33.5 -9h-22v-60q0 -16 18 -24q-16 -18 -37 -18q-39 0 -39 41v61h-134q-56 0 -56 41t39 110.5t90.5 124t82.5 54.5q36 0 36 -36v-253z" />
    <glyph glyph-name="onehalf" unicode="&#xbd;" horiz-adv-x="727" 
d="M106 337v324q0 22 -24 22q-18 0 -44 -16q-9 4 -9 15.5t23 27t52 15.5t44 -14.5t15 -38.5v-335q0 -16 17 -22q-13 -19 -35 -19q-39 0 -39 41zM464 697q18 28 34.5 28t27.5 -17q-2 -1 -20 -27l-382 -660q-17 -29 -34 -29t-28 16q4 4 19 29zM602 0h-175q-22 0 -35 12t-11 29
q116 92 165 151t49 113q0 37 -20 57.5t-53.5 20.5t-53.5 -15.5t-20 -38t22 -38.5q-16 -16 -38.5 -16t-37 13.5t-14.5 35.5q0 39 40.5 68.5t101.5 29.5t101 -34t40 -90.5t-51.5 -113.5t-165.5 -139q93 8 153 8q88 0 88 -38q0 -14 -14 -23q-36 8 -71 8z" />
    <glyph glyph-name="threequarters" unicode="&#xbe;" horiz-adv-x="757" 
d="M309.5 505q38.5 -32 38.5 -82t-48 -83.5t-107.5 -33.5t-103 22.5t-43.5 52t31 35.5q35 -66 127 -66q32 0 53.5 18t21.5 56t-33 61.5t-88 23.5q-15 0 -41 -6q-8 5 -8 13q0 17 75 41q28 9 51.5 27t23.5 42t-21.5 38t-57.5 14t-84 -29q-15 3 -15 19t40 36.5t88.5 20.5
t82 -23.5t33.5 -59t-32.5 -62t-80.5 -38.5q59 -5 97.5 -37zM594 697q20 28 36.5 28t27.5 -17q-7 -3 -21 -27l-394 -660q-18 -29 -35.5 -29t-28.5 17q7 5 22 28zM491 138h120v206q0 10 -7 10q-19 0 -75 -81t-56 -121q0 -14 18 -14zM669 138h16q30 0 42 11q9 -8 9 -21
t-12.5 -22t-32.5 -9h-22v-60q0 -16 17 -24q-13 -18 -36 -18q-39 0 -39 41v61h-134q-56 0 -56 42q0 36 39.5 105.5t91 126t80.5 56.5q37 0 37 -36v-253z" />
    <glyph glyph-name="questiondown" unicode="&#xbf;" horiz-adv-x="501" 
d="M236 148.5q19 27.5 19 54.5t-13.5 43t-38.5 17q1 21 16 34t42.5 13t52 -24.5t24.5 -61.5t-18.5 -69.5t-44.5 -58t-52 -51.5q-63 -63 -63 -134q0 -44 29 -78t75.5 -34t70.5 22t24 57q0 70 -65 97q2 11 19 20t36 9q41 0 66 -28.5t25 -76.5q0 -62 -53 -104.5t-133 -42.5
t-131 44.5t-51 107.5q0 45 19 83t45.5 63t53.5 48t46 50.5zM204.5 415.5q-14.5 14.5 -14.5 39t22.5 46t47.5 21.5t39.5 -15t14.5 -39t-22.5 -45.5t-47.5 -21.5t-39.5 14.5z" />
    <glyph glyph-name="Agrave" unicode="&#xc0;" horiz-adv-x="639" 
d="M300 793l86 130q33 52 71 52q28 0 40.5 -17t12.5 -31t-2 -23q-8 2 -17 2q-22 0 -42 -18l-96 -93q-18 -17 -32 -17t-21 15zM200 230h241l-112 351zM621 17q-16 -26 -46.5 -26t-45.5 13t-26 47l-41 118h-285l-42 -109q-26 -69 -66 -69q-34 0 -47 34q23 9 36 47l235 593
q-11 27 -25 40q23 20 47.5 20t38 -15t25.5 -48l204 -594q14 -41 38 -51z" />
    <glyph glyph-name="Aacute" unicode="&#xc1;" horiz-adv-x="639" 
d="M391 795q-6 -17 -21 -17t-34 13l-104 83q-19 14 -34 14t-26 -5q-5 14 -5 27t7 24q14 25 47 25t70 -45zM200 230h241l-112 351zM621 17q-16 -26 -46.5 -26t-45.5 13t-26 47l-41 118h-285l-42 -109q-26 -69 -66 -69q-34 0 -47 34q23 9 36 47l235 593q-11 27 -25 40
q23 20 47.5 20t38 -15t25.5 -48l204 -594q14 -41 38 -51z" />
    <glyph glyph-name="Acircumflex" unicode="&#xc2;" horiz-adv-x="639" 
d="M250 795q-17 -17 -35 -17t-22 15l67 103q16 26 31.5 38t38 12t37.5 -12t32 -38l66 -103q-4 -15 -22 -15t-35 17l-79 80zM200 230h241l-112 351zM621 17q-16 -26 -46.5 -26t-45.5 13t-26 47l-41 118h-285l-42 -109q-26 -69 -66 -69q-34 0 -47 34q23 9 36 47l235 593
q-11 27 -25 40q23 20 47.5 20t38 -15t25.5 -48l204 -594q14 -41 38 -51z" />
    <glyph glyph-name="Atilde" unicode="&#xc3;" horiz-adv-x="639" 
d="M213 798q-27 6 -27 40t26.5 58t62 24t77.5 -26.5t62.5 -26.5t35 14.5t16.5 39.5q26 -9 26 -41.5t-27 -57t-61 -24.5t-76 27t-63 27t-36 -14.5t-16 -39.5zM200 230h241l-112 351zM621 17q-16 -26 -46.5 -26t-45.5 13t-26 47l-41 118h-285l-42 -109q-26 -69 -66 -69
q-34 0 -47 34q23 9 36 47l235 593q-11 27 -25 40q23 20 47.5 20t38 -15t25.5 -48l204 -594q14 -41 38 -51z" />
    <glyph glyph-name="Adieresis" unicode="&#xc4;" horiz-adv-x="639" 
d="M441 821q-19 -19 -41 -19t-34.5 13t-12.5 35t19.5 41t41 19t34 -13t12.5 -35t-19 -41zM289 821q-19 -19 -40.5 -19t-34.5 13t-13 35t19.5 41t41 19t34 -13t12.5 -35t-19 -41zM200 230h241l-112 351zM621 17q-16 -26 -46.5 -26t-45.5 13t-26 47l-41 118h-285l-42 -109
q-26 -69 -66 -69q-34 0 -47 34q23 9 36 47l235 593q-11 27 -25 40q23 20 47.5 20t38 -15t25.5 -48l204 -594q14 -41 38 -51z" />
    <glyph glyph-name="Aring" unicode="&#xc5;" horiz-adv-x="639" 
d="M326 918q-18 0 -27.5 -12.5t-9.5 -24.5t1 -19q1 -29 13 -43.5t30 -14.5q39 0 39 43q0 7 -1 15q-1 27 -14 41.5t-31 14.5zM404 795.5q-30 -23.5 -73.5 -23.5t-73.5 23.5t-30 66t30 65t73.5 22.5t73.5 -23t30 -65t-30 -65.5zM200 230h241l-112 351zM621 17
q-16 -26 -46.5 -26t-45.5 13t-26 47l-41 118h-285l-42 -109q-26 -69 -66 -69q-34 0 -47 34q23 9 36 47l235 593q-11 27 -25 40q23 20 47.5 20t38 -15t25.5 -48l204 -594q14 -41 38 -51z" />
    <glyph glyph-name="AE" unicode="&#xc6;" horiz-adv-x="958" 
d="M426 238v400l-197 -400h197zM579 67h205q56 0 84 42q30 -12 30 -43q0 -66 -111 -66h-211q-77 0 -113.5 30.5t-36.5 97.5v42h-231l-61 -124q-14 -28 -27 -39.5t-31 -11.5q-38 0 -57 34q27 7 46 46l297 588q26 54 83 54h352q101 0 101 -52q0 -31 -30 -41q-28 25 -84 25
h-274v-244h211q55 0 78.5 -9t23.5 -34.5t-25 -38.5q-25 14 -84 14h-204v-206q0 -35 16 -49.5t53 -14.5z" />
    <glyph glyph-name="Ccedilla" unicode="&#xc7;" horiz-adv-x="677" 
d="M65 341q0 174 97 279t241 105q86 0 144 -35t58 -85q0 -25 -16 -39t-39.5 -14t-36.5 7q1 7 1 13q0 34 -31 61t-97 27q-92 0 -160.5 -78.5t-68.5 -220.5t62 -217.5t173 -75.5q59 0 110 24t84 57q7 -1 13.5 -9.5t6.5 -22.5q0 -37 -68.5 -81t-162.5 -45l-21 -59h12
q47 0 78.5 -20.5t31.5 -60t-41.5 -69.5t-106 -30t-106.5 25t-42 54q0 15 13 26q47 -52 125 -52t78 49q0 39 -63 39h-19q-24 0 -24 19q0 8 4 19l23 64q-113 19 -182.5 112t-69.5 234z" />
    <glyph glyph-name="Egrave" unicode="&#xc8;" horiz-adv-x="640" 
d="M292 793l86 130q33 52 71 52q28 0 40.5 -17t12.5 -31t-2 -23q-8 2 -17 2q-22 0 -42 -18l-96 -93q-18 -17 -32 -17t-21 15zM264 67h202q57 0 85 42q13 -5 21 -17.5t8 -25.5q0 -66 -110 -66h-210q-77 0 -114 31t-37 101v509q0 30 -25 40q24 36 80 36h316q100 0 100 -52
q0 -31 -29 -41q-28 25 -85 25h-273v-244h211q55 0 78 -9t23 -35t-24 -38q-27 14 -85 14h-203v-202q0 -36 16.5 -52t54.5 -16z" />
    <glyph glyph-name="Eacute" unicode="&#xc9;" horiz-adv-x="640" 
d="M383 795q-6 -17 -21 -17t-34 13l-104 83q-19 14 -34 14t-26 -5q-5 14 -5 27t7 24q14 25 47 25t70 -45zM264 67h202q57 0 85 42q13 -5 21 -17.5t8 -25.5q0 -66 -110 -66h-210q-77 0 -114 31t-37 101v509q0 30 -25 40q24 36 80 36h316q100 0 100 -52q0 -31 -29 -41
q-28 25 -85 25h-273v-244h211q55 0 78 -9t23 -35t-24 -38q-27 14 -85 14h-203v-202q0 -36 16.5 -52t54.5 -16z" />
    <glyph glyph-name="Ecircumflex" unicode="&#xca;" horiz-adv-x="640" 
d="M243 795q-17 -17 -35 -17t-22 15l67 103q16 26 31.5 38t38 12t37.5 -12t32 -38l66 -103q-4 -15 -22 -15t-35 17l-79 80zM264 67h202q57 0 85 42q13 -5 21 -17.5t8 -25.5q0 -66 -110 -66h-210q-77 0 -114 31t-37 101v509q0 30 -25 40q24 36 80 36h316q100 0 100 -52
q0 -31 -29 -41q-28 25 -85 25h-273v-244h211q55 0 78 -9t23 -35t-24 -38q-27 14 -85 14h-203v-202q0 -36 16.5 -52t54.5 -16z" />
    <glyph glyph-name="Edieresis" unicode="&#xcb;" horiz-adv-x="640" 
d="M434 821q-19 -19 -41 -19t-34.5 13t-12.5 35t19.5 41t41 19t34 -13t12.5 -35t-19 -41zM282 821q-19 -19 -40.5 -19t-34.5 13t-13 35t19.5 41t41 19t34 -13t12.5 -35t-19 -41zM264 67h202q57 0 85 42q13 -5 21 -17.5t8 -25.5q0 -66 -110 -66h-210q-77 0 -114 31t-37 101
v509q0 30 -25 40q24 36 80 36h316q100 0 100 -52q0 -31 -29 -41q-28 25 -85 25h-273v-244h211q55 0 78 -9t23 -35t-24 -38q-27 14 -85 14h-203v-202q0 -36 16.5 -52t54.5 -16z" />
    <glyph glyph-name="Igrave" unicode="&#xcc;" horiz-adv-x="279" 
d="M266 975q28 0 40.5 -17t12.5 -31t-2 -23q-8 2 -17 2q-22 0 -42 -18l-96 -93q-18 -17 -31 -17q-15 0 -22 15l86 130q33 52 71 52zM180 656v-594q0 -28 24 -39q-20 -32 -53 -32q-55 0 -55 70v594q0 28 -25 39q18 31 52 31q57 0 57 -69z" />
    <glyph glyph-name="Iacute" unicode="&#xcd;" horiz-adv-x="279" 
d="M201 795q-6 -17 -21 -17t-34 13l-104 83q-19 14 -34 14t-26 -5q-5 14 -5 27t7 24q14 25 47 25t70 -45zM181 656v-594q0 -28 24 -39q-20 -32 -53 -32q-55 0 -55 70v594q0 28 -25 39q18 31 52 31q57 0 57 -69z" />
    <glyph glyph-name="Icircumflex" unicode="&#xce;" horiz-adv-x="279" 
d="M180 656v-594q0 -28 24 -39q-20 -32 -53 -32q-55 0 -55 70v594q0 28 -25 39q18 31 52 31q57 0 57 -69zM274 793q-4 -15 -22 -15t-35 17l-79 80l-79 -80q-17 -17 -35 -17t-22 15l67 103q16 26 31.5 38t38 12t37.5 -12t32 -38z" />
    <glyph glyph-name="Idieresis" unicode="&#xcf;" horiz-adv-x="279" 
d="M256.5 897q12.5 -13 12.5 -35t-19 -41t-41 -19t-34.5 13t-12.5 35t19.5 41t41 19t34 -13zM104.5 897q12.5 -13 12.5 -35t-19 -41t-40.5 -19t-34.5 13t-13 35t19.5 41t41 19t34 -13zM180 656v-594q0 -28 24 -39q-20 -32 -53 -32q-55 0 -55 70v594q0 28 -25 39q18 31 52 31
q57 0 57 -69z" />
    <glyph glyph-name="Eth" unicode="&#xd0;" horiz-adv-x="752" 
d="M304 53q121 0 204 78.5t83 226t-83 225.5t-204 78q-63 0 -120 -16l-1 -253h207q3 -12 3 -17q0 -46 -74 -46h-137l-1 -213q0 -24 6 -36q14 -27 117 -27zM98 392v242q0 37 -15 56q101 35 221 35q148 0 258 -86q54 -43 86.5 -115.5t32.5 -165.5t-32.5 -165.5t-86.5 -115.5
q-110 -86 -258 -86q-121 0 -164 31t-43 94v213h-73q-4 6 -4 15q0 48 74 48h4z" />
    <glyph glyph-name="Ntilde" unicode="&#xd1;" horiz-adv-x="768" 
d="M406 893.5q42 -26.5 62.5 -26.5t35 14.5t16.5 39.5q26 -9 26 -41.5t-27 -57t-61 -24.5t-76 27t-63 27t-36 -14.5t-16 -39.5q-27 6 -27 40t26.5 58t62 24t77.5 -26.5zM108 61v594q0 29 -25 39q22 31 54.5 31t54 -16t43.5 -51l343 -542v539q0 28 -25 39q20 31 53 31
q56 0 56 -69v-594q0 -28 23 -41q-19 -30 -51 -30t-56.5 20t-53.5 64l-333 516v-529q0 -28 25 -39q-20 -32 -52 -32q-56 0 -56 70z" />
    <glyph glyph-name="Ograve" unicode="&#xd2;" horiz-adv-x="768" 
d="M511 975q28 0 40.5 -17t12.5 -31t-2 -23q-8 2 -17 2q-22 0 -42 -18l-96 -93q-18 -17 -31 -17q-15 0 -22 15l86 130q33 52 71 52zM405 53q100 0 159 89q50 74 50 186q0 22 -2 46q-10 140 -79 215.5t-169.5 75.5t-159.5 -90q-49 -74 -49 -183q0 -174 82 -264
q68 -75 168 -75zM611.5 626.5q84.5 -98.5 84.5 -266.5t-84.5 -268.5t-226.5 -100.5t-227.5 100t-85.5 267t85.5 267t227.5 100t226.5 -98.5z" />
    <glyph glyph-name="Oacute" unicode="&#xd3;" horiz-adv-x="768" 
d="M405 53q100 0 159 89q50 74 50 186q0 22 -2 46q-10 140 -79 215.5t-169.5 75.5t-159.5 -90q-49 -74 -49 -183q0 -174 82 -264q68 -75 168 -75zM611.5 626.5q84.5 -98.5 84.5 -266.5t-84.5 -268.5t-226.5 -100.5t-227.5 100t-85.5 267t85.5 267t227.5 100t226.5 -98.5z
M445 795q-6 -17 -21 -17t-34 13l-104 83q-19 14 -34 14t-26 -5q-5 14 -5 27t7 24q14 25 47 25t70 -45z" />
    <glyph glyph-name="Ocircumflex" unicode="&#xd4;" horiz-adv-x="768" 
d="M306 795q-17 -17 -35 -17t-22 15l67 103q16 26 31.5 38t38 12t37.5 -12t32 -38l66 -103q-4 -15 -22 -15t-35 17l-79 80zM405 53q100 0 159 89q50 74 50 186q0 22 -2 46q-10 140 -79 215.5t-169.5 75.5t-159.5 -90q-49 -74 -49 -183q0 -174 82 -264q68 -75 168 -75z
M385 725q142 0 226.5 -98.5t84.5 -266.5t-84.5 -268.5t-226.5 -100.5t-227.5 100t-85.5 267t85.5 267t227.5 100z" />
    <glyph glyph-name="Otilde" unicode="&#xd5;" horiz-adv-x="768" 
d="M407 893.5q42 -26.5 62.5 -26.5t35 14.5t16.5 39.5q26 -9 26 -41.5t-27 -57t-61 -24.5t-76 27t-63 27t-36 -14.5t-16 -39.5q-27 6 -27 40t26.5 58t62 24t77.5 -26.5zM405 53q100 0 159 89q50 74 50 186q0 22 -2 46q-10 140 -79 215.5t-169.5 75.5t-159.5 -90
q-49 -74 -49 -183q0 -174 82 -264q68 -75 168 -75zM611.5 626.5q84.5 -98.5 84.5 -266.5t-84.5 -268.5t-226.5 -100.5t-227.5 100t-85.5 267t85.5 267t227.5 100t226.5 -98.5z" />
    <glyph glyph-name="Odieresis" unicode="&#xd6;" horiz-adv-x="768" 
d="M405 53q100 0 159 89q50 74 50 186q0 22 -2 46q-10 140 -79 215.5t-169.5 75.5t-159.5 -90q-49 -74 -49 -183q0 -174 82 -264q68 -75 168 -75zM611.5 626.5q84.5 -98.5 84.5 -266.5t-84.5 -268.5t-226.5 -100.5t-227.5 100t-85.5 267t85.5 267t227.5 100t226.5 -98.5z
M501.5 897q12.5 -13 12.5 -35t-19 -41t-41 -19t-34.5 13t-12.5 35t19.5 41t41 19t34 -13zM349.5 897q12.5 -13 12.5 -35t-19 -41t-40.5 -19t-34.5 13t-13 35t19.5 41t41 19t34 -13z" />
    <glyph glyph-name="multiply" unicode="&#xd7;" horiz-adv-x="643" 
d="M558 209q-15 -30 -42.5 -30t-46 14.5t-45.5 44.5l-110 120l-132 -153q-32 -34 -52 -34t-29 17l179 206l-196 215q20 32 54 32q25 0 38.5 -12.5t17.5 -16.5t14.5 -15.5t14.5 -15.5l111 -123l129 147q32 36 51.5 36t30.5 -16l-177 -204z" />
    <glyph glyph-name="Oslash" unicode="&#xd8;" horiz-adv-x="773" 
d="M235 129q67 -76 168.5 -76t160.5 89q50 74 50 186q0 124 -45 209zM539 583q-67 82 -171.5 82t-163.5 -90q-49 -74 -49 -183q0 -130 49 -217zM627 607q69 -97 69 -256t-84.5 -259.5t-226.5 -100.5q-122 0 -202 74l-33 -40q-31 -34 -58.5 -34t-33.5 29q33 17 61 52l27 33
q-74 99 -74 259.5t85.5 260.5t219.5 100t215 -78l36 44q30 34 58 34t34 -27q-31 -16 -62 -53z" />
    <glyph glyph-name="Ugrave" unicode="&#xd9;" horiz-adv-x="704" 
d="M497 975q28 0 40.5 -17t12.5 -31t-2 -23q-8 2 -17 2q-22 0 -42 -18l-96 -93q-18 -17 -31 -17q-15 0 -22 15l86 130q33 52 71 52zM101 257v398q0 28 -25 39q22 31 52 31q56 0 56 -69v-409q0 -91 43.5 -137.5t137.5 -46.5q181 0 181 184v408q0 28 -26 39q20 31 53 31
q55 0 55 -69v-399q0 -124 -64 -194.5t-198 -70.5t-199.5 71t-65.5 194z" />
    <glyph glyph-name="Uacute" unicode="&#xda;" horiz-adv-x="704" 
d="M101 257v398q0 28 -25 39q22 31 52 31q56 0 56 -69v-409q0 -91 43.5 -137.5t137.5 -46.5q181 0 181 184v408q0 28 -26 39q20 31 53 31q55 0 55 -69v-399q0 -124 -64 -194.5t-198 -70.5t-199.5 71t-65.5 194zM432 795q-6 -17 -21 -17t-34 13l-104 83q-19 14 -34 14t-26 -5
q-5 14 -5 27t7 24q14 25 47 25t70 -45z" />
    <glyph glyph-name="Ucircumflex" unicode="&#xdb;" horiz-adv-x="704" 
d="M292 795q-17 -17 -35 -17t-22 15l67 103q16 26 31.5 38t38 12t37.5 -12t32 -38l66 -103q-4 -15 -22 -15t-35 17l-79 80zM546 247v408q0 28 -26 39q20 31 53 31q55 0 55 -69v-399q0 -124 -64 -194.5t-198 -70.5t-199.5 71t-65.5 194v398q0 28 -25 39q22 31 52 31
q56 0 56 -69v-409q0 -91 43.5 -137.5t137.5 -46.5q181 0 181 184z" />
    <glyph glyph-name="Udieresis" unicode="&#xdc;" horiz-adv-x="704" 
d="M101 257v398q0 28 -25 39q22 31 52 31q56 0 56 -69v-409q0 -91 43.5 -137.5t137.5 -46.5q181 0 181 184v408q0 28 -26 39q20 31 53 31q55 0 55 -69v-399q0 -124 -64 -194.5t-198 -70.5t-199.5 71t-65.5 194zM488.5 897q12.5 -13 12.5 -35t-19 -41t-41 -19t-34.5 13
t-12.5 35t19.5 41t41 19t34 -13zM336.5 897q12.5 -13 12.5 -35t-19 -41t-40.5 -19t-34.5 13t-13 35t19.5 41t41 19t34 -13z" />
    <glyph glyph-name="Yacute" unicode="&#xdd;" horiz-adv-x="596" 
d="M375 795q-6 -17 -21 -17t-34 13l-104 83q-19 14 -34 14t-26 -5q-5 14 -5 27t7 24q14 25 47 25t70 -45zM311 -8q-54 0 -54 74l1 251l-183 321q-24 37 -60 38q15 49 60 49t75 -52l156 -278l161 251q16 22 16 38.5t-12 28.5q21 12 48 12t39.5 -12t12.5 -32t-16 -47
l-214 -314l-1 -260q0 -32 18 -52q-21 -16 -47 -16z" />
    <glyph glyph-name="Thorn" unicode="&#xde;" horiz-adv-x="628" 
d="M180 249q74 -25 147.5 -25t120.5 43t47 114t-47 114t-118.5 43t-149.5 -25v-264zM180 656v-85q84 32 156 32q104 0 176.5 -61t72.5 -161t-72.5 -160.5t-176.5 -60.5q-78 0 -156 31v-129q0 -28 24 -39q-20 -32 -53 -32q-55 0 -55 70v594q0 28 -25 39q18 31 52 31
q57 0 57 -69z" />
    <glyph glyph-name="germandbls" unicode="&#xdf;" horiz-adv-x="564" 
d="M476 285.5q37 -48.5 37 -121.5t-49.5 -123t-121.5 -50q-48 0 -72.5 18t-24.5 43q0 9 4 17q25 -18 70 -18t76 31.5t31 79.5t-24 83.5t-80 75.5q-12 10 -36 27.5t-32 25.5q-15 12 -15 18t16 20.5t35.5 32t35.5 49.5t16 75.5t-28 74.5t-66 31q-95 0 -95 -135v-478
q0 -29 25 -39q-21 -32 -53 -32q-56 0 -56 70v479q0 88 50 135.5t129.5 47.5t131 -45.5t51.5 -112.5q0 -102 -108 -159l40 -26q76 -46 113 -94.5z" />
    <glyph glyph-name="agrave" unicode="&#xe0;" horiz-adv-x="527" 
d="M229 583l86 130q33 52 71 52q28 0 40.5 -17t12.5 -31t-2 -23q-8 2 -17 2q-22 0 -42 -18l-96 -93q-18 -17 -32 -17t-21 15zM144 128q0 -72 78.5 -72t129.5 69v119q-106 -6 -157 -37.5t-51 -78.5zM435 356v-266q0 -53 49 -60q-19 -39 -63 -39q-63 0 -69 81
q-58 -81 -156 -81q-62 0 -102 34t-40 94q0 74 74.5 119.5t223.5 49.5v60q0 62 -22 91.5t-69.5 29.5t-71.5 -19.5t-24 -44t14 -39.5q-21 -16 -46.5 -16t-41.5 14t-16 40q0 47 54 80t133 33t126 -42.5t47 -118.5z" />
    <glyph glyph-name="aacute" unicode="&#xe1;" horiz-adv-x="527" 
d="M320 585q-6 -17 -21 -17t-34 13l-104 83q-19 14 -34 14t-26 -5q-5 14 -5 27t7 24q14 25 47 25t70 -45zM144 128q0 -72 78.5 -72t129.5 69v119q-106 -6 -157 -37.5t-51 -78.5zM435 356v-266q0 -53 49 -60q-19 -39 -63 -39q-63 0 -69 81q-58 -81 -156 -81q-62 0 -102 34
t-40 94q0 74 74.5 119.5t223.5 49.5v60q0 62 -22 91.5t-69.5 29.5t-71.5 -19.5t-24 -44t14 -39.5q-21 -16 -46.5 -16t-41.5 14t-16 40q0 47 54 80t133 33t126 -42.5t47 -118.5z" />
    <glyph glyph-name="acircumflex" unicode="&#xe2;" horiz-adv-x="527" 
d="M180 585q-17 -17 -35 -17t-22 15l67 103q16 26 31.5 38t38 12t37.5 -12t32 -38l66 -103q-4 -15 -22 -15t-35 17l-79 80zM144 128q0 -72 78.5 -72t129.5 69v119q-106 -6 -157 -37.5t-51 -78.5zM435 356v-266q0 -53 49 -60q-19 -39 -63 -39q-63 0 -69 81q-58 -81 -156 -81
q-62 0 -102 34t-40 94q0 74 74.5 119.5t223.5 49.5v60q0 62 -22 91.5t-69.5 29.5t-71.5 -19.5t-24 -44t14 -39.5q-21 -16 -46.5 -16t-41.5 14t-16 40q0 47 54 80t133 33t126 -42.5t47 -118.5z" />
    <glyph glyph-name="atilde" unicode="&#xe3;" horiz-adv-x="527" 
d="M142 588q-27 6 -27 40t26.5 58t62 24t77.5 -26.5t62.5 -26.5t35 14.5t16.5 39.5q26 -9 26 -41.5t-27 -57t-61 -24.5t-76 27t-63 27t-36 -14.5t-16 -39.5zM144 128q0 -72 78.5 -72t129.5 69v119q-106 -6 -157 -37.5t-51 -78.5zM435 356v-266q0 -53 49 -60q-19 -39 -63 -39
q-63 0 -69 81q-58 -81 -156 -81q-62 0 -102 34t-40 94q0 74 74.5 119.5t223.5 49.5v60q0 62 -22 91.5t-69.5 29.5t-71.5 -19.5t-24 -44t14 -39.5q-21 -16 -46.5 -16t-41.5 14t-16 40q0 47 54 80t133 33t126 -42.5t47 -118.5z" />
    <glyph glyph-name="adieresis" unicode="&#xe4;" horiz-adv-x="527" 
d="M370 611q-19 -19 -41 -19t-34.5 13t-12.5 35t19.5 41t41 19t34 -13t12.5 -35t-19 -41zM218 611q-19 -19 -40.5 -19t-34.5 13t-13 35t19.5 41t41 19t34 -13t12.5 -35t-19 -41zM144 128q0 -72 78.5 -72t129.5 69v119q-106 -6 -157 -37.5t-51 -78.5zM435 356v-266
q0 -53 49 -60q-19 -39 -63 -39q-63 0 -69 81q-58 -81 -156 -81q-62 0 -102 34t-40 94q0 74 74.5 119.5t223.5 49.5v60q0 62 -22 91.5t-69.5 29.5t-71.5 -19.5t-24 -44t14 -39.5q-21 -16 -46.5 -16t-41.5 14t-16 40q0 47 54 80t133 33t126 -42.5t47 -118.5z" />
    <glyph glyph-name="aring" unicode="&#xe5;" horiz-adv-x="527" 
d="M255 708q-18 0 -27.5 -12.5t-9.5 -24.5t1 -19q1 -29 13 -43.5t30 -14.5q39 0 39 43q0 7 -1 15q-1 27 -14 41.5t-31 14.5zM333 585.5q-30 -23.5 -73.5 -23.5t-73.5 23.5t-30 66t30 65t73.5 22.5t73.5 -23t30 -65t-30 -65.5zM144 128q0 -72 78.5 -72t129.5 69v119
q-106 -6 -157 -37.5t-51 -78.5zM435 356v-266q0 -53 49 -60q-19 -39 -63 -39q-63 0 -69 81q-58 -81 -156 -81q-62 0 -102 34t-40 94q0 74 74.5 119.5t223.5 49.5v60q0 62 -22 91.5t-69.5 29.5t-71.5 -19.5t-24 -44t14 -39.5q-21 -16 -46.5 -16t-41.5 14t-16 40q0 47 54 80
t133 33t126 -42.5t47 -118.5z" />
    <glyph glyph-name="ae" unicode="&#xe6;" horiz-adv-x="791" 
d="M352 234v10q-106 -6 -157 -37.5t-51 -78.5q0 -72 80.5 -72t141.5 86q-14 42 -14 92zM657.5 320.5q10.5 10.5 10.5 44.5t-25 64t-71 30t-83.5 -43.5t-46.5 -121.5l184 14q21 2 31.5 12.5zM481.5 105q42.5 -47 120.5 -47t133 52q14 -8 14 -27q0 -33 -48 -62.5t-113 -29.5
q-137 0 -201 104q-78 -104 -181 -104q-68 0 -110 34t-42 94q0 74 74.5 119.5t223.5 49.5v60q0 62 -22 91.5t-69.5 29.5t-71.5 -19.5t-24 -44t14 -39.5q-21 -16 -46.5 -16t-41.5 14t-16 40q0 47 53.5 80t128.5 33q123 0 160 -89q72 89 172 89q74 0 120.5 -51t46.5 -116
q0 -47 -25.5 -69.5t-83.5 -24.5l-207 -5q-1 -99 41.5 -146z" />
    <glyph glyph-name="ccedilla" unicode="&#xe7;" horiz-adv-x="491" 
d="M50 231q0 125 74.5 205.5t181.5 80.5q63 0 100.5 -28t37.5 -68q0 -24 -14 -38t-34 -14t-33 8q3 11 3 22q0 61 -75 61q-61 0 -109 -56t-48 -151.5t44.5 -143.5t109.5 -48q83 0 138 53q13 -11 13 -29q0 -31 -47.5 -61.5t-109.5 -32.5l-21 -59h12q47 0 78.5 -20.5t31.5 -60
t-41.5 -69.5t-106 -30t-106.5 25t-42 54q0 15 13 26q47 -52 125 -52t78 49q0 39 -63 39h-19q-25 0 -25 19q0 8 5 19l24 65q-76 17 -125.5 78.5t-49.5 156.5z" />
    <glyph glyph-name="egrave" unicode="&#xe8;" horiz-adv-x="489" 
d="M326 308q41 3 41 47.5t-25.5 74t-71.5 29.5t-84 -44t-47 -122zM179.5 105q42.5 -47 121.5 -47t131 52q15 -8 15 -27q0 -33 -48 -62.5t-114 -29.5q-103 0 -169 65t-66 182.5t71.5 198t164.5 80.5q74 0 120.5 -51t46.5 -116q0 -47 -25.5 -69.5t-82.5 -24.5l-208 -6
q0 -98 42.5 -145zM406 765q28 0 40.5 -17t12.5 -31t-2 -23q-8 2 -17 2q-22 0 -42 -18l-96 -93q-18 -17 -31 -17q-15 0 -22 15l86 130q33 52 71 52z" />
    <glyph glyph-name="eacute" unicode="&#xe9;" horiz-adv-x="489" 
d="M340 585q-6 -17 -21 -17t-34 13l-104 83q-19 14 -34 14t-26 -5q-5 14 -5 27t7 24q14 25 47 25t70 -45zM326 308q41 3 41 47.5t-25.5 74t-71.5 29.5t-84 -44t-47 -122zM179.5 105q42.5 -47 121.5 -47t131 52q15 -8 15 -27q0 -33 -48 -62.5t-114 -29.5q-103 0 -169 65
t-66 182.5t71.5 198t164.5 80.5q74 0 120.5 -51t46.5 -116q0 -47 -25.5 -69.5t-82.5 -24.5l-208 -6q0 -98 42.5 -145z" />
    <glyph glyph-name="ecircumflex" unicode="&#xea;" horiz-adv-x="489" 
d="M200 585q-17 -17 -35 -17t-22 15l67 103q16 26 31.5 38t38 12t37.5 -12t32 -38l66 -103q-4 -15 -22 -15t-35 17l-79 80zM326 308q41 3 41 47.5t-25.5 74t-71.5 29.5t-84 -44t-47 -122zM179.5 105q42.5 -47 121.5 -47t131 52q15 -8 15 -27q0 -33 -48 -62.5t-114 -29.5
q-103 0 -169 65t-66 182.5t71.5 198t164.5 80.5q74 0 120.5 -51t46.5 -116q0 -47 -25.5 -69.5t-82.5 -24.5l-208 -6q0 -98 42.5 -145z" />
    <glyph glyph-name="edieresis" unicode="&#xeb;" horiz-adv-x="489" 
d="M390 611q-19 -19 -41 -19t-34.5 13t-12.5 35t19.5 41t41 19t34 -13t12.5 -35t-19 -41zM238 611q-19 -19 -40.5 -19t-34.5 13t-13 35t19.5 41t41 19t34 -13t12.5 -35t-19 -41zM326 308q41 3 41 47.5t-25.5 74t-71.5 29.5t-84 -44t-47 -122zM179.5 105q42.5 -47 121.5 -47
t131 52q15 -8 15 -27q0 -33 -48 -62.5t-114 -29.5q-103 0 -169 65t-66 182.5t71.5 198t164.5 80.5q74 0 120.5 -51t46.5 -116q0 -47 -25.5 -69.5t-82.5 -24.5l-208 -6q0 -98 42.5 -145z" />
    <glyph glyph-name="igrave" unicode="&#xec;" horiz-adv-x="265" 
d="M260 765q28 0 40.5 -17t12.5 -31t-2 -23q-8 2 -17 2q-22 0 -42 -18l-96 -93q-18 -17 -31 -17q-15 0 -22 15l86 130q33 52 71 52zM175 447v-385q0 -29 25 -39q-21 -32 -52 -32q-56 0 -56 70v384q0 29 -25 40q19 32 52 32q56 0 56 -70z" />
    <glyph glyph-name="iacute" unicode="&#xed;" horiz-adv-x="265" 
d="M176 447v-385q0 -29 25 -39q-21 -32 -52 -32q-56 0 -56 70v384q0 29 -25 40q19 32 52 32q56 0 56 -70zM195 585q-6 -17 -21 -17t-34 13l-104 83q-19 14 -34 14t-26 -5q-5 14 -5 27t7 24q14 25 47 25t70 -45z" />
    <glyph glyph-name="icircumflex" unicode="&#xee;" horiz-adv-x="265" 
d="M175 447v-385q0 -29 25 -39q-21 -32 -52 -32q-56 0 -56 70v384q0 29 -25 40q19 32 52 32q56 0 56 -70zM269 583q-4 -15 -22 -15t-35 17l-79 80l-79 -80q-17 -17 -35 -17t-22 15l67 103q16 26 31.5 38t38 12t37.5 -12t32 -38z" />
    <glyph glyph-name="idieresis" unicode="&#xef;" horiz-adv-x="265" 
d="M175 447v-385q0 -29 25 -39q-21 -32 -52 -32q-56 0 -56 70v384q0 29 -25 40q19 32 52 32q56 0 56 -70zM250.5 687q12.5 -13 12.5 -35t-19 -41t-41 -19t-34.5 13t-12.5 35t19.5 41t41 19t34 -13zM98.5 687q12.5 -13 12.5 -35t-19 -41t-40.5 -19t-34.5 13t-13 35t19.5 41
t41 19t34 -13z" />
    <glyph glyph-name="eth" unicode="&#xf0;" horiz-adv-x="574" 
d="M302 47q68 0 102.5 46.5t34.5 128.5q0 128 -53 188q-44 50 -112 50t-102.5 -45.5t-34.5 -125.5q0 -130 53 -191q44 -51 112 -51zM487 444q37 -97 37 -175.5t-21 -132.5t-56 -84q-69 -61 -163.5 -61t-164 69t-69.5 194t69.5 194t168.5 69q62 0 110 -37q-29 69 -69 125
l-137 -38q-8 5 -8 20q0 31 60 48l52 14q-39 48 -93 92q9 18 30 18q51 0 127 -92l129 36q8 -7 8 -20q0 -32 -75 -52l-29 -8q57 -82 94 -179z" />
    <glyph glyph-name="ntilde" unicode="&#xf1;" horiz-adv-x="594" 
d="M181 588q-27 6 -27 40t26.5 58t62 24t77.5 -26.5t62.5 -26.5t35 14.5t16.5 39.5q26 -9 26 -41.5t-27 -57t-61 -24.5t-76 27t-63 27t-36 -14.5t-16 -39.5zM506 345v-283q0 -28 26 -39q-21 -32 -53 -32q-55 0 -55 70v278q0 105 -92 105q-50 0 -95 -40t-62 -107v-235
q0 -29 25 -39q-21 -32 -52 -32q-56 0 -56 70v384q0 29 -25 40q19 32 52 32q56 0 56 -70v-52q26 54 74 88t112.5 34t104.5 -43.5t40 -128.5z" />
    <glyph glyph-name="ograve" unicode="&#xf2;" horiz-adv-x="574" 
d="M413 765q28 0 40.5 -17t12.5 -31t-2 -23q-8 2 -17 2q-22 0 -42 -18l-96 -93q-18 -17 -31 -17q-15 0 -22 15l86 130q33 52 71 52zM280 460q-69 0 -107 -47.5t-38 -139.5q0 -119 46.5 -172.5t115.5 -53.5t106 48t37 140q0 120 -45.5 172.5t-114.5 52.5zM288 517
q99 0 168.5 -69.5t69.5 -194t-69.5 -193.5t-168.5 -69t-168.5 69t-69.5 194t69.5 194t168.5 69z" />
    <glyph glyph-name="oacute" unicode="&#xf3;" horiz-adv-x="574" 
d="M280 460q-69 0 -107 -47.5t-38 -139.5q0 -119 46.5 -172.5t115.5 -53.5t106 48t37 140q0 120 -45.5 172.5t-114.5 52.5zM288 517q99 0 168.5 -69.5t69.5 -194t-69.5 -193.5t-168.5 -69t-168.5 69t-69.5 194t69.5 194t168.5 69zM347 585q-6 -17 -21 -17t-34 13l-104 83
q-19 14 -34 14t-26 -5q-5 14 -5 27t7 24q14 25 47 25t70 -45z" />
    <glyph glyph-name="ocircumflex" unicode="&#xf4;" horiz-adv-x="574" 
d="M207 585q-17 -17 -35 -17t-22 15l67 103q16 26 31.5 38t38 12t37.5 -12t32 -38l66 -103q-4 -15 -22 -15t-35 17l-79 80zM297 47q69 0 106 48t37 140q0 120 -45.5 172.5t-114.5 52.5t-107 -47.5t-38 -139.5q0 -119 46.5 -172.5t115.5 -53.5zM288 517q99 0 168.5 -69.5
t69.5 -194t-69.5 -193.5t-168.5 -69t-168.5 69t-69.5 194t69.5 194t168.5 69z" />
    <glyph glyph-name="otilde" unicode="&#xf5;" horiz-adv-x="574" 
d="M308 683.5q42 -26.5 62.5 -26.5t35 14.5t16.5 39.5q26 -9 26 -41.5t-27 -57t-61 -24.5t-76 27t-63 27t-36 -14.5t-16 -39.5q-27 6 -27 40t26.5 58t62 24t77.5 -26.5zM280 460q-69 0 -107 -47.5t-38 -139.5q0 -119 46.5 -172.5t115.5 -53.5t106 48t37 140
q0 120 -45.5 172.5t-114.5 52.5zM288 517q99 0 168.5 -69.5t69.5 -194t-69.5 -193.5t-168.5 -69t-168.5 69t-69.5 194t69.5 194t168.5 69z" />
    <glyph glyph-name="odieresis" unicode="&#xf6;" horiz-adv-x="574" 
d="M280 460q-69 0 -107 -47.5t-38 -139.5q0 -119 46.5 -172.5t115.5 -53.5t106 48t37 140q0 120 -45.5 172.5t-114.5 52.5zM288 517q99 0 168.5 -69.5t69.5 -194t-69.5 -193.5t-168.5 -69t-168.5 69t-69.5 194t69.5 194t168.5 69zM403.5 687q12.5 -13 12.5 -35t-19 -41
t-41 -19t-34.5 13t-12.5 35t19.5 41t41 19t34 -13zM251.5 687q12.5 -13 12.5 -35t-19 -41t-40.5 -19t-34.5 13t-13 35t19.5 41t41 19t34 -13z" />
    <glyph glyph-name="divide" unicode="&#xf7;" horiz-adv-x="597" 
d="M114 439h442q3 -5 3 -16q0 -53 -75 -53h-441q-5 10 -5 18q0 51 76 51zM350.5 281.5q15.5 -15.5 15.5 -42t-23 -49.5t-50 -23t-42 15.5t-15 41.5t23.5 49.5t49.5 23.5t41.5 -15.5zM351 629.5q15 -15.5 15 -41.5t-23 -49t-49.5 -23t-42 15.5t-15.5 41.5t23.5 49t50 23
t41.5 -15.5z" />
    <glyph glyph-name="oslash" unicode="&#xf8;" horiz-adv-x="590" 
d="M189 92q42 -45 109.5 -45t104.5 48t37 140q0 83 -25 137zM386 417q-42 43 -108.5 43t-104.5 -47.5t-38 -139.5q0 -83 24 -135zM467 436q59 -72 59 -189.5t-69.5 -186.5t-168.5 -69q-81 0 -143 47l-10 -13q-29 -34 -58 -34t-33 28q39 22 61 53l2 2q-57 72 -57 188.5
t69.5 185.5t168.5 69q81 0 141 -45l9 10q31 35 58.5 35t33.5 -28q-29 -15 -62 -52z" />
    <glyph glyph-name="ugrave" unicode="&#xf9;" horiz-adv-x="594" 
d="M267 583l86 130q33 52 71 52q28 0 40.5 -17t12.5 -31t-2 -23q-8 2 -17 2q-22 0 -42 -18l-96 -93q-18 -17 -32 -17t-21 15zM506 447v-385q0 -28 26 -39q-21 -32 -53 -32q-55 0 -55 70v26q-56 -96 -163 -96q-169 0 -169 172v282q0 29 -25 40q19 32 52 32q56 0 56 -70v-279
q0 -106 104 -106q48 0 86.5 29t58.5 81v273q0 29 -26 40q23 32 53 32q55 0 55 -70z" />
    <glyph glyph-name="uacute" unicode="&#xfa;" horiz-adv-x="594" 
d="M358 585q-6 -17 -21 -17t-34 13l-104 83q-19 14 -34 14t-26 -5q-5 14 -5 27t7 24q14 25 47 25t70 -45zM506 447v-385q0 -28 26 -39q-21 -32 -53 -32q-55 0 -55 70v26q-56 -96 -163 -96q-169 0 -169 172v282q0 29 -25 40q19 32 52 32q56 0 56 -70v-279q0 -106 104 -106
q48 0 86.5 29t58.5 81v273q0 29 -26 40q23 32 53 32q55 0 55 -70z" />
    <glyph glyph-name="ucircumflex" unicode="&#xfb;" horiz-adv-x="594" 
d="M218 585q-17 -17 -35 -17t-22 15l67 103q16 26 31.5 38t38 12t37.5 -12t32 -38l66 -103q-4 -15 -22 -15t-35 17l-79 80zM506 447v-385q0 -28 26 -39q-21 -32 -53 -32q-55 0 -55 70v26q-56 -96 -163 -96q-169 0 -169 172v282q0 29 -25 40q19 32 52 32q56 0 56 -70v-279
q0 -106 104 -106q48 0 86.5 29t58.5 81v273q0 29 -26 40q23 32 53 32q55 0 55 -70z" />
    <glyph glyph-name="udieresis" unicode="&#xfc;" horiz-adv-x="594" 
d="M408 611q-19 -19 -41 -19t-34.5 13t-12.5 35t19.5 41t41 19t34 -13t12.5 -35t-19 -41zM256 611q-19 -19 -40.5 -19t-34.5 13t-13 35t19.5 41t41 19t34 -13t12.5 -35t-19 -41zM506 447v-385q0 -28 26 -39q-21 -32 -53 -32q-55 0 -55 70v26q-56 -96 -163 -96
q-169 0 -169 172v282q0 29 -25 40q19 32 52 32q56 0 56 -70v-279q0 -106 104 -106q48 0 86.5 29t58.5 81v273q0 29 -26 40q23 32 53 32q55 0 55 -70z" />
    <glyph glyph-name="yacute" unicode="&#xfd;" horiz-adv-x="535" 
d="M346 585q-6 -17 -21 -17t-34 13l-104 83q-19 14 -34 14t-26 -5q-5 14 -5 27t7 24q14 25 47 25t70 -45zM428 430q7 19 7 38t-14 34q22 15 49 15t44 -27q8 -14 8 -31.5t-9 -39.5l-208 -542q-49 -125 -134 -125q-32 0 -50 16t-18 40.5t16 39.5q18 -19 44 -19t41.5 14
t28.5 50l36 98h-3q-20 0 -37 13.5t-25 38.5l-138 400q-10 37 -31 47q17 27 53 27q43 0 62 -65l137 -411z" />
    <glyph glyph-name="thorn" unicode="&#xfe;" horiz-adv-x="588" 
d="M305 59q61 0 103.5 52.5t42.5 142.5t-42.5 142t-103.5 52q-86 0 -130 -82v-238q25 -38 56 -53.5t74 -15.5zM175 691v-245q52 71 142.5 71t155 -68.5t64.5 -193.5t-67.5 -194t-155 -69t-139.5 58v-226q0 -30 25 -40q-21 -32 -52 -32q-56 0 -56 71v866q0 29 -25 40
q17 31 52 31q56 0 56 -69z" />
    <glyph glyph-name="ydieresis" unicode="&#xff;" horiz-adv-x="535" 
d="M397 611q-19 -19 -41 -19t-34.5 13t-12.5 35t19.5 41t41 19t34 -13t12.5 -35t-19 -41zM245 611q-19 -19 -40.5 -19t-34.5 13t-13 35t19.5 41t41 19t34 -13t12.5 -35t-19 -41zM428 430q7 19 7 38t-14 34q22 15 49 15t44 -27q8 -14 8 -31.5t-9 -39.5l-208 -542
q-49 -125 -134 -125q-32 0 -50 16t-18 40.5t16 39.5q18 -19 44 -19t41.5 14t28.5 50l36 98h-3q-20 0 -37 13.5t-25 38.5l-138 400q-10 37 -31 47q17 27 53 27q43 0 62 -65l137 -411z" />
    <glyph glyph-name="dotlessi" unicode="&#x131;" horiz-adv-x="265" 
d="M175 447v-385q0 -29 25 -39q-21 -32 -52 -32q-56 0 -56 70v384q0 29 -25 40q19 32 52 32q56 0 56 -70z" />
    <glyph glyph-name="Lslash" unicode="&#x141;" horiz-adv-x="584" 
d="M306 513q16 -8 16 -30q0 -30 -50 -56l-77 -38v-256q0 -36 16.5 -52t54.5 -16h164q56 0 81 42q29 -10 29 -40q0 -67 -110 -67h-169q-78 0 -114 30t-36 101v217l-78 -38q-16 10 -16 30q0 29 51 54l43 22v239q0 28 -25 39q20 31 53 31q56 0 56 -69v-198z" />
    <glyph glyph-name="lslash" unicode="&#x142;" horiz-adv-x="337" 
d="M31 308q-15 10 -15 30q0 29 49 55l57 28v268q0 29 -25 40q17 31 52 31q56 0 56 -69v-229l99 49q6 -1 11 -11.5t5 -19.5q0 -31 -50 -54l-65 -32v-332q0 -29 25 -39q-21 -32 -52 -32q-56 0 -56 70v292z" />
    <glyph glyph-name="OE" unicode="&#x152;" horiz-adv-x="1071" 
d="M397 656q-120 0 -185 -85q-55 -71 -55 -184q0 -23 2 -47q11 -138 78.5 -210t167.5 -72q79 0 135 21v558q-70 19 -143 19zM695 67h202q58 0 84 42q30 -12 30 -43q0 -66 -111 -66h-475q-353 0 -353 359q0 169 94.5 263.5t270.5 94.5h473q101 0 101 -52q0 -31 -30 -41
q-28 25 -84 25h-273v-244h211q55 0 78 -9t23 -35t-25 -38q-25 14 -84 14h-203v-202q0 -36 16 -52t55 -16z" />
    <glyph glyph-name="oe" unicode="&#x153;" horiz-adv-x="877" 
d="M713 308q42 3 42 47.5t-25.5 74t-72 29.5t-84 -44t-45.5 -122zM302 47q68 0 102.5 46.5t34.5 128.5q0 128 -53 188q-44 50 -112 50t-102.5 -45.5t-34.5 -125.5q0 -130 53 -191q44 -51 112 -51zM567.5 105q42.5 -47 120.5 -47t132 52q15 -8 15 -27q0 -33 -48 -62.5
t-113 -29.5q-132 0 -196 98q-32 -48 -82 -73t-108 -25q-99 0 -168.5 69t-69.5 194t69.5 194t168.5 69q61 0 114 -29.5t84 -83.5q34 53 84.5 83t103.5 30q75 0 121.5 -50.5t46.5 -116.5q0 -47 -25.5 -69.5t-83.5 -24.5l-207 -6q-1 -98 41.5 -145z" />
    <glyph glyph-name="Scaron" unicode="&#x160;" horiz-adv-x="644" 
d="M360 789.5q-15 -11.5 -37.5 -11.5t-38 11.5t-31.5 37.5l-67 104q3 15 21.5 15t35.5 -17l79 -80l79 80q17 17 35.5 17t21.5 -15l-66 -104q-17 -26 -32 -37.5zM212 638q-41 -29 -41 -77.5t42 -84t102.5 -61.5t121 -53t102.5 -68.5t42 -94.5q0 -89 -77.5 -148.5
t-185.5 -59.5t-179 48.5t-71 122.5q0 32 18 52.5t48 20.5t47 -24q-23 -21 -23 -59t42 -68t115.5 -30t127.5 38t54 93q0 35 -30.5 64t-76 48t-98.5 43t-98.5 48t-76 64.5t-30.5 90.5q0 81 71.5 133.5t170.5 52.5t163.5 -41t64.5 -99q0 -28 -15.5 -44.5t-35 -16.5t-43.5 8
q4 16 4 31q0 37 -38.5 68.5t-107 31.5t-109.5 -29z" />
    <glyph glyph-name="scaron" unicode="&#x161;" horiz-adv-x="502" 
d="M289 579.5q-15 -11.5 -37.5 -11.5t-38 11.5t-31.5 37.5l-67 104q3 15 21.5 15t35.5 -17l79 -80l79 80q17 17 35.5 17t21.5 -15l-66 -104q-17 -26 -32 -37.5zM185 441.5q-27 -20.5 -27 -48.5t30 -50.5t72 -41t84.5 -39.5t72.5 -53.5t30 -72.5q0 -59 -56 -102t-142 -43
t-140 33t-54 85q0 31 17.5 48.5t42 17.5t38.5 -17q-14 -19 -14 -46t27.5 -46.5t80 -19.5t84 22.5t31.5 55t-29.5 56.5t-71.5 41.5t-84.5 37t-72 49.5t-29.5 68q0 60 52 100.5t127.5 40.5t129.5 -27.5t54 -72.5q1 -24 -15.5 -37.5t-39.5 -13.5t-39 12q6 10 6 29t-23 37
t-69 18t-73 -20.5z" />
    <glyph glyph-name="Ydieresis" unicode="&#x178;" horiz-adv-x="596" 
d="M425 821q-19 -19 -41 -19t-34.5 13t-12.5 35t19.5 41t41 19t34 -13t12.5 -35t-19 -41zM273 821q-19 -19 -40.5 -19t-34.5 13t-13 35t19.5 41t41 19t34 -13t12.5 -35t-19 -41zM311 -8q-54 0 -54 74l1 251l-183 321q-24 37 -60 38q15 49 60 49t75 -52l156 -278l161 251
q16 22 16 38.5t-12 28.5q21 12 48 12t39.5 -12t12.5 -32t-16 -47l-214 -314l-1 -260q0 -32 18 -52q-21 -16 -47 -16z" />
    <glyph glyph-name="Zcaron" unicode="&#x17d;" horiz-adv-x="610" 
d="M342 789.5q-15 -11.5 -37.5 -11.5t-38 11.5t-31.5 37.5l-67 104q3 15 21.5 15t35.5 -17l79 -80l79 80q17 17 35.5 17t21.5 -15l-66 -104q-17 -26 -32 -37.5zM558 58q0 -58 -127 -58h-309q-32 0 -51.5 17t-19.5 42.5t35 69.5l390 526q-150 -16 -281 -16t-131 57
q0 21 17 35q39 -14 105 -14h300q33 0 52.5 -17t19.5 -43t-36 -70l-387 -525l303 12q68 3 102 25q18 -18 18 -41z" />
    <glyph glyph-name="zcaron" unicode="&#x17e;" horiz-adv-x="507" 
d="M291 579.5q-15 -11.5 -37.5 -11.5t-38 11.5t-31.5 37.5l-67 104q3 15 21.5 15t35.5 -17l79 -80l79 80q17 17 35.5 17t21.5 -15l-66 -104q-17 -26 -32 -37.5zM456 51q0 -51 -123 -51h-201q-32 0 -50 16.5t-18 43t32 61.5l286 328q-125 -15 -195 -15q-122 0 -122 54
q0 19 16 33q39 -14 101 -14h207q31 0 49 -16.5t18 -42.5t-33 -62l-282 -326l198 7q66 1 99 27q18 -17 18 -43z" />
    <glyph glyph-name="florin" unicode="&#x192;" horiz-adv-x="521" 
d="M266 683.5q47 41.5 104.5 41.5t86 -22t28.5 -48t-15 -38q-31 46 -83 46q-79 0 -105 -103l-23 -95h155q4 -5 4 -15.5t-16 -21.5q-38 -27 -159 -27l-129 -525q-13 -58 -43.5 -91t-79.5 -33t-62 51q47 0 70 20.5t35 68.5l125 509q-74 3 -74 42q0 17 14 29q20 -7 67 -7h9
l24 98q20 79 67 120.5z" />
    <glyph glyph-name="circumflex" unicode="&#x2c6;" horiz-adv-x="296" 
d="M284 583q-4 -15 -22 -15t-35 17l-79 80l-79 -80q-17 -17 -35 -17t-22 15l67 103q16 26 31.5 38t38 12t37.5 -12t32 -38z" />
    <glyph glyph-name="caron" unicode="&#x2c7;" horiz-adv-x="296" 
d="M227 719q17 17 35.5 17t21.5 -15l-66 -104q-17 -26 -32 -37.5t-37.5 -11.5t-38 11.5t-31.5 37.5l-67 104q3 15 21.5 15t35.5 -17l79 -80z" />
    <glyph glyph-name="breve" unicode="&#x2d8;" horiz-adv-x="302" 
d="M221 693q12 4 27 4t28.5 -11t13.5 -31q0 -33 -37.5 -57t-101.5 -24t-101.5 24t-37.5 57q0 20 13.5 31t27 11t29.5 -4q0 -81 69.5 -81t69.5 81z" />
    <glyph glyph-name="dotaccent" unicode="&#x2d9;" horiz-adv-x="138" 
d="M113 700.5q13 -13.5 13 -37t-20.5 -43.5t-44 -20t-36.5 13.5t-13 36.5t20.5 43.5t44 20.5t36.5 -13.5z" />
    <glyph glyph-name="ring" unicode="&#x2da;" horiz-adv-x="231" 
d="M111 708q-18 0 -27.5 -12.5t-9.5 -24.5t1 -19q1 -29 13 -43.5t30 -14.5q39 0 39 43q0 7 -1 15q-1 27 -14 41.5t-31 14.5zM42 716.5q30 22.5 73.5 22.5t73.5 -23t30 -65t-30 -65.5t-73.5 -23.5t-73.5 23.5t-30 66t30 65z" />
    <glyph glyph-name="ogonek" unicode="&#x2db;" horiz-adv-x="256" 
d="M99 -133q0 -58 71 -58q31 0 66 19q6 -6 6 -17q0 -22 -28 -40t-78 -18t-87 27t-37 76.5t48 86t129 47.5v-41q-90 -22 -90 -82z" />
    <glyph glyph-name="tilde" unicode="&#x2dc;" horiz-adv-x="350" 
d="M188 683.5q42 -26.5 62.5 -26.5t35 14.5t16.5 39.5q26 -9 26 -41.5t-27 -57t-61 -24.5t-76 27t-63 27t-36 -14.5t-16 -39.5q-27 6 -27 40t26.5 58t62 24t77.5 -26.5z" />
    <glyph glyph-name="hungarumlaut" unicode="&#x2dd;" horiz-adv-x="324" 
d="M157 712q-23 0 -43 -29l-61 -97q-10 -15 -21.5 -15t-19.5 10l32 107q23 73 71 73q20 0 31 -13.5t11 -35.5zM306 705q-24 0 -49 -29l-79 -91q-13 -14 -24.5 -14t-18.5 14l51 101q37 75 84 75q24 0 33 -14t9 -23.5t-3 -18.5h-3z" />
    <glyph glyph-name="uni0901" unicode="&#x901;" horiz-adv-x="0" 
d="M-120 915.5q-13 -13.5 -36.5 -13.5t-43 20t-19.5 43t13 36.5t36 13.5t43 -20.5t20 -43t-13 -36zM-160 821q49 0 91.5 21t63.5 63q17 -2 28.5 -15t11.5 -31q0 -42 -50.5 -68.5t-123.5 -26.5t-136.5 40.5t-63.5 74.5q0 17 16 23q60 -81 163 -81z" />
    <glyph glyph-name="uni0902" unicode="&#x902;" horiz-adv-x="0" 
d="M-97 771.5q-13 -13.5 -36.5 -13.5t-43.5 20t-20 42.5t13.5 36t36 13.5t43 -20t20.5 -42.5t-13 -36z" />
    <glyph glyph-name="uni0903" unicode="&#x903;" horiz-adv-x="279" 
d="M185.5 423.5q-13.5 -13.5 -36.5 -13.5t-43 20t-20 42.5t13 36t36 13.5t43.5 -20t20.5 -42.5t-13.5 -36zM185.5 107q-13.5 -14 -36.5 -14t-43 20t-20 43t13 36.5t36 13.5t43.5 -20t20.5 -42.5t-13.5 -36.5z" />
    <glyph glyph-name="uni0905" unicode="&#x905;" horiz-adv-x="712" 
d="M611 497l-5 -412q0 -68 11 -86q-11 -4 -22 -4q-58 0 -58 95q0 119 8 200q-29 -9 -70.5 -9t-84.5 20q15 -32 15 -65q0 -61 -40 -98t-99 -37t-107.5 24t-79.5 57.5t-50 65t-19 51t22 24.5q32 -65 84 -110.5t107.5 -45.5t86.5 26.5t31 66t-14 62.5t-27 32q-38 -20 -74.5 -20
t-61.5 15.5t-25 42t17.5 40t48.5 13.5t68 -21q53 40 53 90q0 38 -26.5 57.5t-65.5 19.5q-63 0 -106 -37q-26 15 -26 40.5t27.5 42.5t68.5 17q75 0 129.5 -49.5t54.5 -113.5t-49 -111q57 -42 115 -42t91 24q2 84 2 145.5t-12 78.5h-25q-69 0 -69 49q0 11 3 16h239
q33 0 51.5 -12.5t18.5 -35.5q0 -8 -3 -17h-160q27 -19 27 -89z" />
    <glyph glyph-name="uni0906" unicode="&#x906;" horiz-adv-x="984" 
d="M611 497l-5 -412q0 -68 11 -86q-11 -4 -22 -4q-58 0 -58 95q0 119 8 200q-29 -9 -70.5 -9t-84.5 20q15 -32 15 -65q0 -61 -40 -98t-99 -37t-107.5 24t-79.5 57.5t-50 65t-19 51t22 24.5q32 -65 84 -110.5t107.5 -45.5t86.5 26.5t31 66t-14 62.5t-27 32q-38 -20 -74.5 -20
t-61.5 15.5t-25 42t17.5 40t48.5 13.5t68 -21q53 40 53 90q0 38 -26.5 57.5t-65.5 19.5q-63 0 -106 -37q-26 15 -26 40.5t27.5 42.5t68.5 17q75 0 129.5 -49.5t54.5 -113.5t-49 -111q57 -42 115 -42t91 24q2 84 2 145.5t-12 78.5h-25q-69 0 -69 49q0 11 3 16h511
q33 0 51.5 -12.5t18.5 -35.5q0 -8 -3 -17h-158q26 -18 26 -89l-4 -412q0 -68 11 -86q-11 -4 -22 -4q-59 0 -59 97l5 407q0 70 -12 87h-219q27 -19 27 -89z" />
    <glyph glyph-name="uni0907" unicode="&#x907;" horiz-adv-x="488" 
d="M206 492l64 -1q54 0 54 36q0 32 -34 59h-269q-69 0 -69 49q0 10 2 16h503q69 0 69 -48q0 -8 -3 -17h-180q44 -38 44 -85q0 -32 -26.5 -54t-78.5 -22l-65 1q-32 0 -59 -14.5t-27 -42.5t19.5 -45t54.5 -17l68 3q64 0 116 -42.5t52 -105t-50 -100.5t-122 -38q-43 0 -82 10
q52 -100 122 -100q33 0 54 21q25 -14 25 -38.5t-18 -39t-49 -14.5q-51 0 -99.5 48t-80.5 138q-94 39 -94 107q0 18 12 30.5t34.5 12.5t41.5 -26t27 -66q29 -18 83 -18t96 24.5t42 67.5q0 29 -19.5 46.5t-55.5 17.5l-71 -3q-59 0 -112 46.5t-53 99t35.5 78.5t98.5 26z" />
    <glyph glyph-name="uni0908" unicode="&#x908;" horiz-adv-x="488" 
d="M206 492l64 -1q54 0 54 36q0 32 -34 59h-269q-69 0 -69 49q0 10 2 16h264q-29 23 -50 62.5t-21 87.5t30 79.5t75 31.5t75.5 -35t30.5 -71.5t-28 -36.5q-11 78 -67 78q-24 0 -42 -19.5t-18 -55.5t20 -68t48 -53h186q69 0 69 -48q0 -8 -3 -17h-180q44 -38 44 -85
q0 -32 -26.5 -54t-78.5 -22l-65 1q-32 0 -59 -14.5t-27 -42.5t19.5 -45t54.5 -17l68 3q64 0 116 -42.5t52 -105t-50 -100.5t-122 -38q-43 0 -82 10q52 -100 122 -100q33 0 54 21q25 -14 25 -38.5t-18 -39t-49 -14.5q-51 0 -99.5 48t-80.5 138q-94 39 -94 107q0 18 12 30.5
t34.5 12.5t41.5 -26t27 -66q29 -18 83 -18t96 24.5t42 67.5q0 29 -19.5 46.5t-55.5 17.5l-71 -3q-59 0 -112 46.5t-53 99t35.5 78.5t98.5 26z" />
    <glyph glyph-name="uni0909" unicode="&#x909;" horiz-adv-x="494" 
d="M460 651q32 0 50.5 -13t18.5 -35q0 -8 -3 -17h-184q57 -60 57 -130t-45 -112q71 -73 71 -155q0 -61 -40.5 -98.5t-100.5 -37.5t-111 27.5t-83.5 65.5t-52 73.5t-19.5 55.5t22 24q33 -72 88.5 -125.5t124.5 -53.5q46 0 77 27t31 78.5t-42 93.5q-36 -19 -73 -19t-62 16
t-25 42t18 39.5t49 13.5t68 -20q46 36 46 94t-52 101h-261q-69 0 -69 49q0 10 2 16h500z" />
    <glyph glyph-name="uni090A" unicode="&#x90a;" horiz-adv-x="746" 
d="M708 651q69 0 69 -48q0 -8 -3 -17h-431q57 -60 57 -130t-45 -112q38 -41 53 -90q48 130 146 130q64 0 116.5 -55t52.5 -117t-37 -102.5t-92 -40.5q-26 0 -46.5 14.5t-20.5 38.5q0 6 1 10q14 -3 27 -3q45 0 77.5 29t32.5 79q0 32 -23 58.5t-56 26.5t-55 -11t-38.5 -33
t-27 -40.5t-25 -49t-21.5 -43.5q-47 -92 -141 -92q-54 0 -105 27.5t-83.5 65.5t-52 73.5t-19.5 55.5t22 24q33 -72 88.5 -125.5t124.5 -53.5q47 0 77.5 27t30.5 77.5t-41 94.5q-36 -19 -73 -19t-62.5 16t-25.5 42t18.5 39.5t49.5 13.5t68 -20q46 36 46 94t-52 101h-262
q-69 0 -69 49q0 10 2 16h748z" />
    <glyph glyph-name="uni090B" unicode="&#x90b;" horiz-adv-x="704" 
d="M309 336l1 163q0 72 -11 87h-278q-69 0 -69 49q0 10 2 16h715q69 0 69 -48q0 -13 -3 -17h-381q26 -18 26 -84.5t-2 -198.5q27 -8 55 -8q69 0 108 30q-32 45 -32 73.5t15 45.5t41 17t49 -27.5t23 -66.5t-29 -73q22 -31 30.5 -44t19.5 -41t11 -57.5t-18.5 -52.5t-48 -23
t-47 17.5t-17.5 46.5q8 -4 25 -4t31.5 12t14.5 40t-30 80q-49 -34 -116 -34q-43 0 -86 16l-1 -165q0 -70 11 -86q-11 -4 -22 -4q-58 0 -58 92t11 163q-155 -109 -239 -109q-25 0 -43 13.5t-18 43.5q95 0 258 109q-11 8 -34 25t-35 25.5t-29 18.5q-32 20 -58.5 20t-46 -13.5
t-25.5 -38.5q-36 12 -36 52q0 29 23 47.5t59.5 18.5t70.5 -19t78 -55.5t66 -51.5z" />
    <glyph glyph-name="uni090C" unicode="&#x90c;" horiz-adv-x="709" 
d="M674 651q69 0 69 -48q0 -13 -3 -17h-262q26 -18 26 -89q0 -46 -1 -70q54 -21 91.5 -70.5t37.5 -105.5q0 -34 -18.5 -70t-39.5 -61q-59 -68 -59 -116q0 -30 19.5 -47t50 -17t55 23t34.5 61q42 -9 42 -48t-29 -66.5t-79.5 -27.5t-101 45t-50.5 110q0 53 56 119
q20 25 37.5 58.5t17.5 69.5t-26 64t-67 28q-61 0 -100 -66q13 -32 13 -61t-13 -50.5t-39 -21.5t-42 21.5t-16 58t26 79.5q-38 42 -88.5 42t-76.5 -35t-26 -87q0 -122 105 -230q-6 -14 -24.5 -14t-55 40t-66.5 106.5t-30 134.5t42 107.5t112 39.5t134 -64q46 54 105 60v63
q0 72 -11 87h-402q-69 0 -69 49q0 10 2 16h720z" />
    <glyph glyph-name="uni090D" unicode="&#x90d;" horiz-adv-x="563" 
d="M412.5 790.5q-50.5 -26.5 -123.5 -26.5t-136.5 40.5t-63.5 74.5q0 17 16 23q60 -81 163 -81q49 0 91.5 21t63.5 63q17 -2 28.5 -15t11.5 -31q0 -42 -50.5 -68.5zM90 329l2 169q0 72 -11 88h-60q-69 0 -69 49q0 10 2 16h574q69 0 69 -48q0 -13 -3 -17h-158q55 -95 55 -188
q0 -54 -29 -85t-67.5 -31t-63.5 19t-26 50q23 -9 51 -9t50.5 23.5t22.5 69.5q0 82 -38 151h-255q26 -18 26 -89l-2 -175q0 -42 36.5 -78t89 -62.5t105 -52.5t89 -61.5t36.5 -77.5q0 -26 -15.5 -45.5t-40.5 -19.5t-38 11q-22 16 -22 33q18 0 32 10.5t14 35t-36.5 52t-89 52
t-105 52.5t-89 69t-36.5 89z" />
    <glyph glyph-name="uni090E" unicode="&#x90e;" horiz-adv-x="563" 
d="M90 329l2 169q0 72 -11 88h-60q-69 0 -69 49q0 10 2 16h379q33 0 62.5 15t29.5 40t-15.5 37.5t-42.5 12.5t-75 -20.5t-78 -20.5q-53 0 -93.5 42t-40.5 97q0 37 26 63.5t66 26.5q21 0 37.5 -13t16.5 -35q0 -8 -2 -13q-33 0 -62.5 -15.5t-29.5 -40t15.5 -37.5t43 -13
t74.5 21t78 21q53 0 93.5 -42t40.5 -97q0 -14 -5 -29h56q69 0 69 -48q0 -13 -3 -17h-158q55 -95 55 -188q0 -54 -29 -85t-67.5 -31t-63.5 19t-26 50q23 -9 51 -9t50.5 23.5t22.5 69.5q0 82 -38 151h-255q26 -18 26 -89l-2 -175q0 -42 36.5 -78t89 -62.5t105 -52.5t89 -61.5
t36.5 -77.5q0 -26 -15.5 -45.5t-40.5 -19.5t-38 11q-22 16 -22 33q18 0 32 10.5t14 35t-36.5 52t-89 52t-105 52.5t-89 69t-36.5 89z" />
    <glyph glyph-name="uni090F" unicode="&#x90f;" horiz-adv-x="563" 
d="M90 329l2 169q0 72 -11 88h-60q-69 0 -69 49q0 10 2 16h574q69 0 69 -48q0 -13 -3 -17h-158q55 -95 55 -188q0 -54 -29 -85t-67.5 -31t-63.5 19t-26 50q23 -9 51 -9t50.5 23.5t22.5 69.5q0 82 -38 151h-255q26 -18 26 -89l-2 -175q0 -42 36.5 -78t89 -62.5t105 -52.5
t89 -61.5t36.5 -77.5q0 -26 -15.5 -45.5t-40.5 -19.5t-38 11q-22 16 -22 33q18 0 32 10.5t14 35t-36.5 52t-89 52t-105 52.5t-89 69t-36.5 89z" />
    <glyph glyph-name="uni0910" unicode="&#x910;" horiz-adv-x="563" 
d="M90 329l2 169q0 72 -11 88h-60q-69 0 -69 49q0 10 2 16h444q-32 69 -75.5 124.5t-84 55.5t-56.5 -37q-20 4 -31.5 20t-11.5 38t18.5 38.5t55 16.5t80 -34.5t73 -80t48 -85.5t20.5 -56h94q69 0 69 -48q0 -13 -3 -17h-158q55 -95 55 -188q0 -54 -29 -85t-67.5 -31t-63.5 19
t-26 50q23 -9 51 -9t50.5 23.5t22.5 69.5q0 82 -38 151h-255q26 -18 26 -89l-2 -175q0 -42 36.5 -78t89 -62.5t105 -52.5t89 -61.5t36.5 -77.5q0 -26 -15.5 -45.5t-40.5 -19.5t-38 11q-22 16 -22 33q18 0 32 10.5t14 35t-36.5 52t-89 52t-105 52.5t-89 69t-36.5 89z" />
    <glyph glyph-name="uni0911" unicode="&#x911;" horiz-adv-x="984" 
d="M833.5 790.5q-50.5 -26.5 -123.5 -26.5t-136.5 40.5t-63.5 74.5q0 17 16 23q60 -81 163 -81q49 0 91.5 21t63.5 63q17 -2 28.5 -15t11.5 -31q0 -42 -50.5 -68.5zM611 497l-5 -412q0 -68 11 -86q-11 -4 -22 -4q-58 0 -58 95q0 119 8 200q-29 -9 -70.5 -9t-84.5 20
q15 -32 15 -65q0 -61 -40 -98t-99 -37t-107.5 24t-79.5 57.5t-50 65t-19 51t22 24.5q32 -65 84 -110.5t107.5 -45.5t86.5 26.5t31 66t-14 62.5t-27 32q-38 -20 -74.5 -20t-61.5 15.5t-25 42t17.5 40t48.5 13.5t68 -21q53 40 53 90q0 38 -26.5 57.5t-65.5 19.5
q-63 0 -106 -37q-26 15 -26 40.5t27.5 42.5t68.5 17q75 0 129.5 -49.5t54.5 -113.5t-49 -111q57 -42 115 -42t91 24q2 84 2 145.5t-12 78.5h-25q-69 0 -69 49q0 11 3 16h511q33 0 51.5 -12.5t18.5 -35.5q0 -8 -3 -17h-158q26 -18 26 -89l-4 -412q0 -68 11 -86q-11 -4 -22 -4
q-59 0 -59 97l5 407q0 70 -12 87h-219q27 -19 27 -89z" />
    <glyph glyph-name="uni0912" unicode="&#x912;" horiz-adv-x="984" 
d="M611 497l-5 -412q0 -68 11 -86q-11 -4 -22 -4q-58 0 -58 95q0 119 8 200q-29 -9 -70.5 -9t-84.5 20q15 -32 15 -65q0 -61 -40 -98t-99 -37t-107.5 24t-79.5 57.5t-50 65t-19 51t22 24.5q32 -65 84 -110.5t107.5 -45.5t86.5 26.5t31 66t-14 62.5t-27 32q-38 -20 -74.5 -20
t-61.5 15.5t-25 42t17.5 40t48.5 13.5t68 -21q53 40 53 90q0 38 -26.5 57.5t-65.5 19.5q-63 0 -106 -37q-26 15 -26 40.5t27.5 42.5t68.5 17q75 0 129.5 -49.5t54.5 -113.5t-49 -111q57 -42 115 -42t91 24q2 84 2 145.5t-12 78.5h-25q-69 0 -69 49q0 11 3 16h313
q33 0 62.5 15t29.5 40t-15.5 37.5t-42.5 12.5t-75 -20.5t-78 -20.5q-53 0 -93.5 42t-40.5 97q0 37 26 63.5t66 26.5q21 0 37.5 -13t16.5 -35q0 -8 -2 -13q-33 0 -62.5 -15.5t-29.5 -40t15.5 -37.5t43 -13t74.5 21t78 21q53 0 93.5 -42t40.5 -97q0 -14 -5 -29h59
q33 0 51.5 -12.5t18.5 -35.5q0 -8 -3 -17h-158q26 -18 26 -89l-4 -412q0 -68 11 -86q-11 -4 -22 -4q-59 0 -59 97l5 407q0 70 -12 87h-219q27 -19 27 -89z" />
    <glyph glyph-name="uni0913" unicode="&#x913;" horiz-adv-x="984" 
d="M611 497l-5 -412q0 -68 11 -86q-11 -4 -22 -4q-58 0 -58 95q0 119 8 200q-29 -9 -70.5 -9t-84.5 20q15 -32 15 -65q0 -61 -40 -98t-99 -37t-107.5 24t-79.5 57.5t-50 65t-19 51t22 24.5q32 -65 84 -110.5t107.5 -45.5t86.5 26.5t31 66t-14 62.5t-27 32q-38 -20 -74.5 -20
t-61.5 15.5t-25 42t17.5 40t48.5 13.5t68 -21q53 40 53 90q0 38 -26.5 57.5t-65.5 19.5q-63 0 -106 -37q-26 15 -26 40.5t27.5 42.5t68.5 17q75 0 129.5 -49.5t54.5 -113.5t-49 -111q57 -42 115 -42t91 24q2 84 2 145.5t-12 78.5h-25q-69 0 -69 49q0 11 3 16h386
q-32 69 -75.5 124.5t-84 55.5t-56.5 -37q-20 4 -31.5 20t-11.5 38t18.5 38.5t55 16.5t80 -34.5t73 -80t48 -85.5t20.5 -56h89q33 0 51.5 -12.5t18.5 -35.5q0 -8 -3 -17h-158q26 -18 26 -89l-4 -412q0 -68 11 -86q-11 -4 -22 -4q-59 0 -59 97l5 407q0 70 -12 87h-219
q27 -19 27 -89z" />
    <glyph glyph-name="uni0914" unicode="&#x914;" horiz-adv-x="984" 
d="M611 497l-5 -412q0 -68 11 -86q-11 -4 -22 -4q-58 0 -58 95q0 119 8 200q-29 -9 -70.5 -9t-84.5 20q15 -32 15 -65q0 -61 -40 -98t-99 -37t-107.5 24t-79.5 57.5t-50 65t-19 51t22 24.5q32 -65 84 -110.5t107.5 -45.5t86.5 26.5t31 66t-14 62.5t-27 32q-38 -20 -74.5 -20
t-61.5 15.5t-25 42t17.5 40t48.5 13.5t68 -21q53 40 53 90q0 38 -26.5 57.5t-65.5 19.5q-63 0 -106 -37q-26 15 -26 40.5t27.5 42.5t68.5 17q75 0 129.5 -49.5t54.5 -113.5t-49 -111q57 -42 115 -42t91 24q2 84 2 145.5t-12 78.5h-25q-69 0 -69 49q0 11 3 16h377
q-97 111 -168 111q-50 0 -61 -52q-20 0 -36 16t-16 42t22 43.5t54 17.5q59 0 119 -44.5t104 -102.5q-10 65 -30.5 115t-42 70.5t-47 20.5t-39.5 -23q-26 15 -26 41t17.5 42t42.5 16q40 0 72 -31.5t50 -78.5q37 -98 37 -182q0 -14 -1 -21h83q33 0 51.5 -12.5t18.5 -35.5
q0 -8 -3 -17h-158q26 -18 26 -89l-4 -412q0 -68 11 -86q-11 -4 -22 -4q-59 0 -59 97l5 407q0 70 -12 87h-219q27 -19 27 -89z" />
    <glyph glyph-name="uni0915" unicode="&#x915;" horiz-adv-x="742" 
d="M334 303l1 196q0 72 -11 87h-299q-69 0 -69 49q0 10 2 16h749q69 0 69 -48q0 -13 -3 -17h-394q24 -18 24 -75t-4 -102q43 57 112.5 57t126.5 -59t57 -134q0 -55 -39.5 -95t-102.5 -40q-29 0 -49 15.5t-20 37.5q0 8 2 13q22 -3 28 -3q61 0 91.5 32t30.5 75.5t-30 70.5
t-70.5 27t-76 -26t-56.5 -74q-2 -142 -2 -216.5t11 -90.5q-11 -4 -22 -4q-57 0 -57 88q0 63 9 124q-41 -61 -114.5 -61t-130 59t-56.5 134q0 55 39.5 95t102.5 40q29 0 49 -15.5t20 -37.5q0 -5 -3 -13q-20 3 -27 3q-61 0 -91.5 -32.5t-30.5 -75.5t30 -70t70.5 -27t76 25.5
t57.5 71.5z" />
    <glyph glyph-name="uni0916" unicode="&#x916;" horiz-adv-x="780" 
d="M293 417q0 -65 -41 -109t-109 -45q25 -66 87.5 -105.5t140.5 -39.5q103 0 171.5 59.5t68.5 147.5q0 44 -24.5 77.5t-66 33.5t-63 -28t-21.5 -63.5t18.5 -65t48.5 -46.5q-7 -13 -22 -13q-38 0 -76 42.5t-38 98.5t36.5 92.5t98.5 36.5t110 -56v64q0 72 -12 88h-369
q62 -78 62 -169zM681 497l-5 -412q0 -68 11 -86q-9 -4 -22 -4q-55 0 -55 85q0 48 7 85q-33 -49 -91.5 -79t-134.5 -30q-99 0 -181 58t-117 158q-31 12 -50.5 35t-19.5 48.5t12 39t32 13.5q47 0 62 -81q48 4 74.5 37t26.5 87q0 76 -46 135h-157q-69 0 -69 49q0 10 2 16h786
q69 0 69 -48q0 -8 -3 -17h-157q26 -18 26 -89z" />
    <glyph glyph-name="uni0917" unicode="&#x917;" horiz-adv-x="567" 
d="M393 92l4 407q0 72 -11 87h-236q41 -47 65.5 -114.5t24.5 -127.5t-24 -93t-64.5 -33t-71 26.5t-30.5 63.5q0 22 13 34.5t32 12.5t36.5 -12.5t25.5 -34.5q17 30 17 80.5t-24.5 107.5t-59.5 90h-69q-69 0 -69 49q0 10 2 16h578q33 0 51.5 -12.5t18.5 -29.5t-4 -23h-157
q26 -18 26 -89l-4 -412q0 -70 11 -86q-11 -4 -26 -4t-28 9t-18 25q-9 25 -9 63z" />
    <glyph glyph-name="uni0918" unicode="&#x918;" horiz-adv-x="612" 
d="M123 486q0 -38 23 -70q38 23 74.5 23t58.5 -14t22 -38t-19.5 -36.5t-46 -12.5t-56.5 11q-35 -26 -35 -72t34.5 -73t87 -27t100.5 28.5t75 76.5q2 134 2 210.5t-11 93.5h-266q-43 -38 -43 -100zM512 497l-4 -412q0 -68 11 -86q-11 -4 -22 -4q-57 0 -57 86q0 55 7 103
q-57 -66 -147 -66t-154 58.5t-64 117t33 96.5q-53 51 -53 118q0 44 24 82q-36 -4 -69 -4q-65 0 -65 49q0 10 2 16h623q33 0 51.5 -12.5t18.5 -35.5q0 -8 -3 -17h-158q26 -18 26 -89z" />
    <glyph glyph-name="uni0919" unicode="&#x919;" horiz-adv-x="546" 
d="M440.5 416.5q12.5 12.5 34.5 12.5t41.5 -19t19.5 -41t-12.5 -35t-35 -13t-41.5 19t-19 41.5t12.5 35zM329 249l-95 -6q-60 0 -114 44t-54 99t34.5 82.5t90 27.5t90.5 -1q49 0 49 39q0 29 -30 52h-276q-70 0 -70 49q0 7 3 16h554q69 0 69 -48q0 -13 -3 -17h-224
q39 -37 39 -81q0 -29 -24 -51.5t-80 -22.5l-70 1q-37 0 -66 -14.5t-29 -45.5t20.5 -46.5t54.5 -15.5l94 5q67 0 113.5 -47.5t46.5 -103t-45 -91t-106.5 -35.5t-114.5 16.5t-88.5 40t-57.5 48.5t-22 42.5t17 22.5q81 -104 225 -104q54 0 94 22t40 63q0 27 -17 43.5t-48 16.5z
" />
    <glyph glyph-name="uni091A" unicode="&#x91a;" horiz-adv-x="607" 
d="M508 497l-4 -412q0 -70 11 -86q-5 -4 -23 -4q-56 0 -56 87q0 65 8 116q-21 -28 -55 -43.5t-69 -15.5q-80 0 -142 54.5t-62 130.5q0 49 39 82q-49 -7 -81 -7q-77 0 -77 50q0 9 3 14h266q69 0 69 -48q0 -4 -4 -16h-40q-54 0 -86.5 -30.5t-32.5 -73.5t33 -69.5t79.5 -26.5
t87.5 27t64 81q2 120 2 191t-11 88h-425q-69 0 -69 49q0 11 3 16h637q69 0 69 -48q0 -8 -3 -17h-157q26 -18 26 -89z" />
    <glyph glyph-name="uni091B" unicode="&#x91b;" horiz-adv-x="658" 
d="M128 468q0 -40 19 -72q35 18 69.5 18t57 -14t22.5 -38.5t-18.5 -36.5t-46.5 -12t-58 14q-43 -29 -43 -82.5t47.5 -88t114.5 -34.5q119 0 189.5 74.5t70.5 167.5q0 42 -17 70t-48.5 28t-49.5 -27t-18 -64q0 -56 47 -105q-5 -9 -17 -9q-28 0 -59 46t-31 94t23 81.5t61 40.5
q-2 53 -12 67h-234q-69 -39 -69 -118zM622 651q69 0 69 -48q0 -13 -3 -17h-205q23 -16 25 -75q47 -19 74 -68t27 -105q0 -122 -79 -199t-200 -77q-98 0 -179.5 60.5t-81.5 147.5q0 62 43 102q-46 53 -46 115.5t36 101.5q-41 -3 -80 -3q-66 0 -66 49q0 11 3 16h663z" />
    <glyph glyph-name="uni091C" unicode="&#x91c;" horiz-adv-x="678" 
d="M504 92l3 283h-193q67 -67 67 -143q0 -53 -33.5 -84t-86.5 -31t-103 37t-79.5 87t-46.5 95t-17 64t8 25.5t17 6.5q28 -91 76 -163q25 -39 58 -62t68 -23t55.5 21t20.5 54q0 61 -55 116h-17q-69 0 -69 49q0 10 2 16h329v58q0 72 -11 88h-472q-69 0 -69 49q0 10 2 16h685
q69 0 69 -48q0 -13 -3 -17h-157q26 -18 26 -89l-4 -412q0 -70 11 -86q-11 -4 -22 -4q-59 0 -59 97z" />
    <glyph glyph-name="uni091D" unicode="&#x91d;" horiz-adv-x="741" 
d="M571 336l1 163q0 70 -11 87h-216q44 -38 44 -85q0 -33 -26 -54.5t-78 -21.5l-68 1q-32 0 -59 -14t-27 -41t19.5 -43t54.5 -16l71 3q23 0 71.5 -12.5t85.5 -12.5q86 0 138 46zM206 492l67 -1q54 0 54 38q0 29 -35 57h-271q-69 0 -69 49q0 10 2 16h752q69 0 69 -48
q0 -13 -3 -17h-157q26 -18 26 -89l-4 -412q0 -68 11 -86q-11 -4 -22 -4q-58 0 -58 91.5t7 171.5q-42 -24 -86 -24t-73 7q25 -38 25 -80q0 -61 -50 -99t-122 -38q-43 0 -82 10q52 -100 122 -100q33 0 54 21q25 -14 25 -38.5t-18 -39t-49 -14.5q-51 0 -99.5 48t-80.5 138
q-42 17 -68 44.5t-26 62.5q0 18 12 30.5t34.5 12.5t41.5 -26t27 -66q29 -18 83 -18t96 24.5t42 67.5q0 31 -19.5 49.5t-55.5 18.5l-71 -3q-58 0 -111.5 45.5t-53.5 97t35.5 77.5t98.5 26z" />
    <glyph glyph-name="uni091E" unicode="&#x91e;" horiz-adv-x="689" 
d="M518 337l1 161q0 70 -11 88h-487q-69 0 -69 49q0 10 2 16h701q32 0 50.5 -13t18.5 -35q0 -8 -3 -17h-158q26 -18 26 -89l-4 -412q0 -70 11 -86q-11 -4 -23 -4q-58 0 -58 97q0 53 2 173q-15 -1 -43 -1t-54 11q-7 -54 -49 -85t-99.5 -31t-109.5 33t-83.5 77t-50 84
t-18.5 59q0 27 25 27q81 -213 216 -213q54 0 84 30.5t30 68.5t-21 63t-57 25q-48 0 -76 -50q-37 16 -37 45.5t24 47.5t56 18q62 0 108.5 -43t56.5 -108q18 -2 26 -2q41 0 73 16z" />
    <glyph glyph-name="uni091F" unicode="&#x91f;" horiz-adv-x="445" 
d="M411 651q32 0 50.5 -13t18.5 -35q0 -8 -3 -17h-177q33 -31 33 -70.5t-25 -66.5t-60.5 -45t-71.5 -37.5t-61 -50.5t-25 -76t39 -78t93 -33t98.5 32t53.5 86q21 -1 36 -15.5t15 -38.5q0 -46 -49.5 -82.5t-126.5 -36.5t-150.5 57.5t-73.5 135.5q0 49 25.5 86.5t61.5 59.5
t72 40t61.5 39t25.5 48.5t-27 45.5h-220q-70 0 -70 49q0 7 3 16h454z" />
    <glyph glyph-name="uni0920" unicode="&#x920;" horiz-adv-x="486" 
d="M335.5 153.5q46.5 39.5 46.5 96.5t-41.5 97t-113.5 50q-75 -42 -99 -66q-39 -40 -39 -95t41.5 -88.5t100 -33.5t105 39.5zM452 651q69 0 69 -48q0 -8 -3 -17h-226q34 -32 34 -78t-52 -82q81 -17 128 -73.5t47 -127t-55.5 -119t-139.5 -48.5t-156.5 61.5t-72.5 146.5
q0 48 24.5 85.5t59.5 60t71 40.5q84 45 84 86q0 30 -27 48h-213q-70 0 -70 49q0 7 3 16h495z" />
    <glyph glyph-name="uni0921" unicode="&#x921;" horiz-adv-x="472" 
d="M329 249l-95 -6q-60 0 -114 44t-54 99t34.5 82.5t90 27.5t90.5 -1q49 0 49 39q0 29 -30 52h-276q-70 0 -70 49q0 7 3 16h504q69 0 69 -48q0 -13 -3 -17h-174q39 -37 39 -81q0 -29 -24 -51.5t-80 -22.5l-70 1q-37 0 -66 -14.5t-29 -45.5t20.5 -46.5t54.5 -15.5l94 5
q67 0 113.5 -47.5t46.5 -103t-45 -91t-106.5 -35.5t-114.5 16.5t-88.5 40t-57.5 48.5t-22 42.5t17 22.5q81 -104 225 -104q54 0 94 22t40 63q0 27 -17 43.5t-48 16.5z" />
    <glyph glyph-name="uni0922" unicode="&#x922;" horiz-adv-x="479" 
d="M445 651q69 0 69 -48q0 -13 -3 -17h-175q31 -33 31 -70t-28.5 -62t-69.5 -42t-82.5 -35.5t-70 -52t-28.5 -88t49.5 -95t109.5 -40.5t101 30.5t41 78.5q0 28 -16 43.5t-39.5 15.5t-41.5 -17q-28 -28 -12 -82q-8 -4 -24 -4t-32.5 17.5t-16.5 53t29.5 59.5t77.5 24t92.5 -40
t44.5 -98.5t-48.5 -97t-131 -38.5t-164.5 65t-82 155q0 47 21 84t52 57.5t68 38.5t68 30q73 27 73 65q0 26 -28 45h-259q-69 0 -69 49q0 10 2 16h492z" />
    <glyph glyph-name="uni0923" unicode="&#x923;" horiz-adv-x="730" 
d="M136 497l-1 -127q1 -57 23 -93t68 -36q93 0 93 177q0 115 -22 168h-187q26 -18 26 -89zM557 92l4 407q0 70 -11 87h-212q23 -36 36.5 -96.5t13.5 -117.5q0 -98 -36.5 -142t-100.5 -44t-123.5 56t-61.5 131v126q0 72 -11 87h-34q-69 0 -69 49q0 10 2 16h742q69 0 69 -48
q0 -8 -3 -17h-157q26 -18 26 -89l-4 -412q0 -70 11 -86q-11 -4 -23 -4q-58 0 -58 97z" />
    <glyph glyph-name="uni0924" unicode="&#x924;" horiz-adv-x="535" 
d="M362 92l3 276h-118q-124 0 -124 -107q0 -61 28.5 -124t76.5 -110q-6 -14 -24.5 -14t-55 40.5t-66 107t-29.5 131t44.5 103t110.5 38.5t158 -10v75q0 72 -11 88h-331q-70 0 -70 49q0 7 3 16h543q69 0 69 -48q0 -13 -3 -17h-156q26 -18 26 -89l-4 -412q0 -70 11 -86
q-11 -4 -26 -4t-28 9t-19 25q-8 25 -8 63z" />
    <glyph glyph-name="uni0925" unicode="&#x925;" horiz-adv-x="619" 
d="M520 497l-4 -412q0 -70 11 -86q-11 -4 -23 -4q-56 0 -56 90q0 60 8 119q-71 -61 -165.5 -61t-169 59.5t-74.5 114.5q0 43 113 87q43 17 78.5 49t35.5 66.5t-18.5 54t-49 19.5t-52 -22.5t-21.5 -58.5t26 -60q-6 -4 -14 -4q-30 0 -52.5 30t-22.5 73t32 72.5t77 29.5
q60 0 107 -49.5t47 -111.5q0 -46 -34 -82t-75 -54q-108 -48 -108 -74q0 -28 40.5 -53t93 -25t107.5 22t90 69q3 192 3 221t-6.5 46t-25.5 29q-29 18 -29 44q0 11 3 16h193q69 0 69 -48q0 -8 -3 -17h-160q29 -18 29 -89z" />
    <glyph glyph-name="uni0926" unicode="&#x926;" horiz-adv-x="475" 
d="M433 651q32 0 50.5 -13t18.5 -35q0 -8 -3 -17h-141q26 -28 26 -63t-29 -59t-70 -39t-82.5 -32t-70.5 -47.5t-29 -81t43.5 -81.5t96.5 -31t89 18q-19 28 -19 51t14 38.5t40 15.5t45.5 -24.5t19.5 -60.5t-29 -62q47 -68 47 -118q0 -32 -17.5 -51t-40 -19t-38 12t-19.5 33
q24 1 38.5 16t14.5 43.5t-18 61.5q-36 -15 -82 -15q-97 0 -173.5 63t-76.5 140q0 54 29.5 92t71.5 58t84 34.5t71.5 31.5t29.5 39.5t-18 36.5h-283q-69 0 -69 49q0 11 3 16h476z" />
    <glyph glyph-name="uni0927" unicode="&#x927;" horiz-adv-x="600" 
d="M501 497l-5 -412q0 -68 11 -86q-11 -4 -22 -4q-57 0 -57 87q0 55 7 102q-58 -66 -148 -66t-153 56t-63 114.5t32 95.5q-53 50 -53 117q0 52 37 89q-51 -4 -82 -4q-65 0 -65 49q0 11 3 16h222q69 0 69 -48q0 -13 -3 -17h-18q-47 0 -74.5 -32.5t-27.5 -72.5t22 -71
q36 24 73 24t59.5 -14t22.5 -38t-19.5 -36.5t-46 -12.5t-56.5 11q-33 -29 -33 -72t33.5 -69t84.5 -26t100.5 28.5t76.5 76.5q3 100 3 181.5t-7 98.5t-30.5 32.5t-23.5 40.5q0 10 2 16h194q69 0 69 -48q0 -8 -3 -17h-161q30 -19 30 -89z" />
    <glyph glyph-name="uni0928" unicode="&#x928;" horiz-adv-x="552" 
d="M378 92l3 276h-197q-38 0 -64 -18t-26 -50t22.5 -52.5t51.5 -20.5t47 15.5t20 38.5q4 10 2 22q24 -2 38.5 -19t14.5 -45.5t-24 -51t-65 -22.5q-59 0 -115 52.5t-56 106.5t37 81.5t100 27.5q99 0 215 -11v76q0 72 -11 88h-347q-70 0 -70 49q0 7 3 16h560q69 0 69 -48
q0 -13 -3 -17h-157q26 -18 26 -89l-4 -412q0 -70 11 -86q-11 -4 -22 -4q-59 0 -59 97z" />
    <glyph glyph-name="uni0928093C" unicode="&#x929;" horiz-adv-x="552" 
d="M130 93.5q11 11.5 31 11.5t37 -17t17 -36.5t-11 -31.5t-31 -12t-37 17t-17 37t11 31.5zM378 92l3 276h-197q-38 0 -64 -18t-26 -50t22.5 -52.5t51.5 -20.5t47 15.5t20 38.5q4 10 2 22q24 -2 38.5 -19t14.5 -45.5t-24 -51t-65 -22.5q-59 0 -115 52.5t-56 106.5t37 81.5
t100 27.5q99 0 215 -11v76q0 72 -11 88h-347q-70 0 -70 49q0 7 3 16h560q69 0 69 -48q0 -13 -3 -17h-157q26 -18 26 -89l-4 -412q0 -70 11 -86q-11 -4 -22 -4q-59 0 -59 97z" />
    <glyph glyph-name="uni092A" unicode="&#x92a;" horiz-adv-x="550" 
d="M144 497l-1 -169q0 -42 23 -68t64 -26t81 22t67 61q2 114 2 184t-11 85h-251q26 -18 26 -89zM450 497l-4 -412q0 -70 11 -86q-11 -4 -22 -4q-59 0 -59 91q0 72 7 134q-53 -47 -124 -47t-128 59.5t-57 120.5v159q-2 60 -11 74h-40q-70 0 -70 49q0 7 3 16h559q69 0 69 -48
q0 -13 -3 -17h-157q26 -18 26 -89z" />
    <glyph glyph-name="uni092B" unicode="&#x92b;" horiz-adv-x="768" 
d="M143 497l-2 -165q0 -42 23.5 -68t61.5 -26t71.5 20.5t54.5 56.5q2 114 2 184t-11 87h-226q26 -18 26 -89zM72 356l1 152q0 62 -11 78h-39q-70 0 -70 49q0 7 3 16h785q33 0 51.5 -12.5t18.5 -35.5q0 -8 -3 -17h-411q24 -18 24 -80t-6 -107q47 62 123 62t133.5 -60.5
t57.5 -137.5q0 -58 -41.5 -99t-107.5 -41q-29 0 -51.5 16t-22.5 40q0 7 3 15q27 -6 50 -6q52 2 81.5 34.5t29.5 77t-31 73t-74 28.5t-81.5 -26.5t-61.5 -73.5q-3 -103 -3 -193.5t11 -108.5q-11 -4 -22 -4q-58 0 -58 92q0 75 5 127q-42 -37 -95 -37q-74 0 -131 58.5
t-57 120.5z" />
    <glyph glyph-name="uni092C" unicode="&#x92c;" horiz-adv-x="544" 
d="M100 316q0 -51 35 -82.5t80 -31.5t81 21l-160 177q-36 -33 -36 -84zM444 497l-4 -412q0 -68 11 -86q-4 -4 -22 -4q-57 0 -57 88q0 68 9 118q-46 -58 -128.5 -58t-147 61.5t-64.5 145.5q0 63 45.5 106t113.5 43q44 0 70.5 -17t26.5 -43q0 -12 -5 -22q-30 15 -64 15
t-59 -11l158 -176q29 26 46 63q2 120 2 189.5t-12 88.5h-338q-69 0 -69 49q0 10 2 16h551q33 0 51.5 -12.5t18.5 -29.5t-4 -23h-157q26 -18 26 -89z" />
    <glyph glyph-name="uni092D" unicode="&#x92d;" horiz-adv-x="614" 
d="M444 349l1 150q0 70 -11 87h-70q-69 0 -69 49q0 10 2 16h283q32 0 50.5 -13t18.5 -35q0 -8 -3 -17h-158q26 -18 26 -89l-4 -412q0 -68 11 -86q-11 -4 -22 -4q-59 0 -59 96t3 201h-206q-10 -91 -55 -91q-35 0 -67 34.5t-32 67.5q0 53 85 55q3 33 3 74q0 161 -63 161
q-22 0 -33.5 -17.5t-11.5 -50.5t22 -61q-6 -4 -15 -4q-28 0 -48 32.5t-20 71t21.5 63.5t59.5 25q67 0 110.5 -83t45.5 -211q132 -2 205 -9z" />
    <glyph glyph-name="uni092E" unicode="&#x92e;" horiz-adv-x="589" 
d="M207 536q5 -37 5 -98t-1 -80q132 -2 207 -8q1 47 1 134t-11 102h-224q18 -13 23 -50zM489 497l-4 -412q0 -70 11 -86q-11 -4 -22 -4q-59 0 -59 97q0 60 2 200h-210q-10 -91 -53 -91q-35 0 -67 34.5t-32 67.5q0 53 86 55q2 44 2 66q0 146 -14 162h-108q-69 0 -69 49
q0 10 2 16h600q69 0 69 -48q0 -13 -3 -17h-157q26 -18 26 -89z" />
    <glyph glyph-name="uni092F" unicode="&#x92f;" horiz-adv-x="584" 
d="M253 482q0 -34 -23.5 -64.5t-51 -48.5t-51 -37t-23.5 -33q0 -29 41.5 -56t93.5 -27t98 18.5t74 57.5q3 97 3 184.5t-13 109.5h-185q37 -50 37 -104zM483 497l-4 -412q0 -68 11 -86q-11 -4 -22 -4q-56 0 -56 90q0 56 7 118q-60 -48 -147 -48t-160.5 62.5t-73.5 120.5
q0 30 76 76q29 17 53 45t24 64t-27 63h-129q-69 0 -69 49q0 10 2 16h581q69 0 69 -48q0 -13 -3 -17h-158q26 -18 26 -89z" />
    <glyph glyph-name="uni0930" unicode="&#x930;" horiz-adv-x="395" 
d="M360 651q69 0 69 -48q0 -8 -3 -17h-161q74 -81 74 -178q0 -73 -50 -118t-116 -45h-12q18 -81 50.5 -128.5t95.5 -47.5q22 0 34 6q7 -14 7 -32.5t-15 -33t-45.5 -14.5t-60.5 25t-51 67q-40 77 -60 167q-41 14 -67 42t-26 67q0 22 14 38t36 16q53 0 75 -102h5q57 1 89.5 36
t32.5 84q0 98 -66 151h-186q-69 0 -69 49q0 10 2 16h404z" />
    <glyph glyph-name="uni0930093C" unicode="&#x931;" horiz-adv-x="395" 
d="M28 33q11 11 30 11t35.5 -16t16.5 -35t-10.5 -30t-30 -11t-36 16t-16.5 35t11 30zM360 651q69 0 69 -48q0 -8 -3 -17h-161q74 -81 74 -178q0 -73 -50 -118t-116 -45h-12q18 -81 50.5 -128.5t95.5 -47.5q22 0 34 6q7 -14 7 -32.5t-15 -33t-45.5 -14.5t-60.5 25t-51 67
q-40 77 -60 167q-41 14 -67 42t-26 67q0 22 14 38t36 16q53 0 75 -102h5q57 1 89.5 36t32.5 84q0 98 -66 151h-186q-69 0 -69 49q0 10 2 16h404z" />
    <glyph glyph-name="uni0932" unicode="&#x932;" horiz-adv-x="723" 
d="M550 92l3 258q-31 20 -72 20q-62 0 -96 -60q14 -31 14 -62t-13 -53t-40 -22t-43 21.5t-16 59t26 82.5q-38 42 -87.5 42t-76.5 -34.5t-27 -91t35.5 -117t95.5 -109.5q-5 -14 -26 -14t-63 38.5t-77 104t-35 135t42 110.5t112 41t135 -65q49 59 118 59q54 0 95 -33v97
q0 72 -11 87h-519q-70 0 -70 49q0 7 3 16h732q69 0 69 -48q0 -8 -3 -17h-157q26 -18 26 -89l-4 -412q0 -70 11 -86q-11 -4 -26 -4t-28 9t-19 25q-8 25 -8 63z" />
    <glyph glyph-name="uni0933" unicode="&#x933;" horiz-adv-x="710" 
d="M562 214.5q41 36.5 41 86t-26.5 77t-68.5 27.5q-49 0 -79 -45q-21 -31 -42.5 -80t-31.5 -68q50 -34 108 -34t99 36.5zM318.5 302q19.5 46 29.5 64q-48 35 -106.5 35t-100 -36.5t-41.5 -86t27 -77t72 -27.5t72.5 41t47 87zM675 651q69 0 69 -48q0 -8 -3 -17h-241
q26 -20 26 -129q57 -17 97.5 -70t40.5 -115.5t-48.5 -109.5t-120.5 -47q-47 0 -88 20.5t-64 55.5q-47 -76 -119 -76t-128 58.5t-56 127.5t48.5 116t120.5 47q47 0 88 -20.5t64 -55.5q40 66 100 75q0 101 -13 123h-423q-69 0 -69 49q0 10 2 16h717z" />
    <glyph glyph-name="uni0933093C" unicode="&#x934;" horiz-adv-x="710" 
d="M112 43q11 11 30 11t35.5 -16t16.5 -35t-10.5 -30t-30 -11t-36 16t-16.5 35t11 30zM562 214.5q41 36.5 41 86t-26.5 77t-68.5 27.5q-49 0 -79 -45q-21 -31 -42.5 -80t-31.5 -68q50 -34 108 -34t99 36.5zM318.5 302q19.5 46 29.5 64q-48 35 -106.5 35t-100 -36.5
t-41.5 -86t27 -77t72 -27.5t72.5 41t47 87zM675 651q69 0 69 -48q0 -8 -3 -17h-241q26 -20 26 -129q57 -17 97.5 -70t40.5 -115.5t-48.5 -109.5t-120.5 -47q-47 0 -88 20.5t-64 55.5q-47 -76 -119 -76t-128 58.5t-56 127.5t48.5 116t120.5 47q47 0 88 -20.5t64 -55.5
q40 66 100 75q0 101 -13 123h-423q-69 0 -69 49q0 10 2 16h717z" />
    <glyph glyph-name="uni0935" unicode="&#x935;" horiz-adv-x="538" 
d="M438 497l-4 -412q0 -68 11 -86q-4 -4 -22 -4q-57 0 -57 88q0 69 9 120q-45 -57 -124 -57t-141 60t-62 134t46.5 112.5t96 38.5t75 -15.5t25.5 -41.5q0 -12 -5 -22q-32 13 -61 13q-54 0 -86 -33.5t-32 -80.5t33 -76.5t78.5 -29.5t85.5 27t63 77q2 120 2 189t-12 88h-332
q-69 0 -69 49q0 10 2 16h545q33 0 51.5 -12.5t18.5 -29.5t-4 -23h-157q26 -18 26 -89z" />
    <glyph glyph-name="uni0936" unicode="&#x936;" horiz-adv-x="706" 
d="M186 226h-5q57 -158 161 -158q22 0 46 7q8 -13 8 -32t-15 -33.5t-41 -14.5q-126 0 -206 238q-44 12 -72.5 40.5t-28.5 63.5q0 20 13 34.5t38 14.5t46 -29t31 -67q79 2 127 47t48 125q0 53 -24 92t-65 39q-29 0 -46.5 -20.5t-17.5 -52.5t22.5 -61.5t56.5 -44.5
q-8 -15 -25 -15q-40 0 -80.5 43.5t-40.5 94t29 83.5t75 33q71 0 125 -71.5t54 -156t-61.5 -142t-151.5 -57.5zM532 92l5 407q0 46 -7 63t-31 32.5t-24 40.5q0 7 3 16h193q33 0 51.5 -12.5t18.5 -35.5q0 -8 -3 -17h-161q29 -18 29 -89l-4 -412q0 -68 11 -86q-11 -4 -22 -4
q-59 0 -59 97z" />
    <glyph glyph-name="uni0937" unicode="&#x937;" horiz-adv-x="563" 
d="M392 325l1 174q0 70 -11 87h-260q28 -14 78 -63.5t192 -197.5zM144 489l-1 -161q0 -42 23 -68t66 -26q77 0 138 58q-141 154 -232 235q6 -17 6 -38zM463 497l-4 -412q0 -70 11 -86q-11 -4 -23 -4q-58 0 -58 87.5t7 140.5q-58 -50 -133 -50t-132 59.5t-57 120.5v155
q0 62 -11 78h-40q-70 0 -70 49q0 7 3 16h572q69 0 69 -48q0 -13 -3 -17h-157q26 -18 26 -89z" />
    <glyph glyph-name="uni0938" unicode="&#x938;" horiz-adv-x="705" 
d="M339 408q0 -38 -16 -72q48 -13 105 -13t107 25q1 47 1 134t-11 104h-260q74 -81 74 -178zM606 497l-5 -412q0 -68 11 -86q-9 -4 -22 -4q-58 0 -58 97q0 56 2 178q-32 -8 -72 -8q-84 0 -164 37q-48 -54 -125 -54h-12q18 -81 50.5 -128.5t95.5 -47.5q22 0 34 6
q7 -14 7 -32.5t-15 -33t-45.5 -14.5t-60.5 25t-51 67q-40 77 -60 167q-41 14 -67 42t-26 67q0 22 14 38t36 16q53 0 75 -102h5q57 1 89.5 36t32.5 84q0 98 -66 151h-186q-69 0 -69 49q0 10 2 16h715q69 0 69 -48q0 -8 -3 -17h-157q26 -18 26 -89z" />
    <glyph glyph-name="uni0939" unicode="&#x939;" horiz-adv-x="488" 
d="M214 490l72 -1q23 0 35.5 11t12.5 27q0 37 -38 59h-272q-70 0 -70 49q0 7 3 16h498q69 0 69 -48q0 -13 -3 -17h-169q42 -38 42 -88q0 -33 -24.5 -53.5t-67.5 -20.5l-82 1q-41 0 -63 -22t-22 -53t27 -63q44 27 100 27q77 0 129 -50t52 -108q0 -38 -23.5 -65.5t-53.5 -27.5
t-46.5 13t-17.5 36q38 2 59.5 22t21.5 51t-25.5 51.5t-73 20.5t-92 -38t-44.5 -108t61.5 -114t147.5 -44q11 0 31 2q2 -4 2 -12q0 -31 -49 -31q-102 0 -181 65.5t-79 163.5q0 71 49 120q-55 59 -55 111.5t34 85t105 32.5z" />
    <glyph glyph-name="uni093C" unicode="&#x93c;" horiz-adv-x="0" 
d="M-327.5 -149q-16.5 16 -16.5 35t11 30t30 11t35.5 -16t16.5 -35t-10.5 -30t-30 -11t-36 16z" />
    <glyph glyph-name="uni093D" unicode="&#x93d;" horiz-adv-x="554" 
d="M164 481q-27 36 -27 71.5t16 56t45 29.5q46 14 118.5 14t103 -9.5t30.5 -38.5q0 -10 -3 -18q-13 1 -140 1q-94 0 -94 -56q0 -48 93 -113q38 -27 76.5 -57t65.5 -71.5t27 -94.5t-42.5 -89t-115.5 -36t-149.5 52t-76.5 92q0 16 16 23q88 -103 186 -103q50 0 79 22.5t29 62
t-27 75.5t-66 65t-78 57.5t-66 64.5z" />
    <glyph glyph-name="uni093E" unicode="&#x93e;" 
d="M98 92l4 407q0 72 -11 87h-70q-69 0 -69 49q0 10 2 16h283q33 0 51.5 -12.5t18.5 -29.5t-4 -23h-157q26 -18 26 -89l-4 -412q0 -68 11 -86q-11 -4 -22 -4q-59 0 -59 97z" />
    <glyph glyph-name="uni093F" unicode="&#x93f;" 
d="M98 92l4 409q0 47 -5 85h-76q-69 0 -69 49q0 10 2 16h130q-2 8 -8 27t-8 28q-7 32 -7 61q0 68 51 108t135.5 40t183 -37.5t157.5 -80.5t59 -65q0 -11 -12 -18q-82 59 -177.5 98.5t-184.5 39.5q-60 0 -103 -29.5t-43 -91.5q0 -38 14 -80h96q33 0 51.5 -12.5t18.5 -29.5
t-4 -23h-141q10 -40 10 -84l-4 -417q0 -68 11 -86q-11 -4 -22 -4q-59 0 -59 97z" />
    <glyph glyph-name="uni0940" unicode="&#x940;" 
d="M98 92l4 412q0 47 -4 82h-77q-69 0 -69 49q0 10 2 16h136q-19 97 -60.5 150t-98.5 53q-31 0 -51.5 -20.5t-20.5 -52.5t28 -65q-6 -7 -17 -7q-29 0 -52 30.5t-23 74t31 73t79 29.5q81 0 148.5 -75.5t98.5 -189.5h85q33 0 51.5 -12.5t18.5 -29.5t-4 -23h-137q6 -42 6 -84
l-4 -417q0 -68 11 -86q-11 -4 -22 -4q-59 0 -59 97z" />
    <glyph glyph-name="uni0941" unicode="&#x941;" horiz-adv-x="0" 
d="M-46.5 -205q-41.5 -34 -96.5 -34t-105 21.5t-84.5 51t-56 59t-21.5 48.5t17 23q42 -64 99.5 -103t114 -39t88 24.5t31.5 58.5q0 21 -16 35t-39 14q-50 0 -67 -47q-20 2 -31.5 15.5t-11.5 34t21.5 38t54.5 17.5q54 0 99 -38.5t45 -91.5t-41.5 -87z" />
    <glyph glyph-name="uni0942" unicode="&#x942;" horiz-adv-x="0" 
d="M-225 -198.5q-46 42.5 -46 93.5t36.5 82.5t90.5 31.5t105.5 -24.5t86.5 -58.5t56.5 -69.5t21.5 -57.5t-20 -24q-34 70 -91.5 120.5t-128.5 50.5q-42 0 -70 -23t-28 -50q0 -52 50 -52q41 0 63 37q18 -4 27.5 -16.5t9.5 -32t-19.5 -35t-46.5 -15.5q-51 0 -97 42.5z" />
    <glyph glyph-name="uni0943" unicode="&#x943;" horiz-adv-x="0" 
d="M-252 -189q-53 41 -53 101t42 97.5t93 37.5q23 0 39 -12.5t16 -39.5q-60 -7 -93.5 -35.5t-33.5 -64.5t23 -55t60 -19t72 27t46 70q19 -2 32.5 -16.5t13.5 -35.5q0 -37 -38 -66.5t-102 -29.5t-117 41z" />
    <glyph glyph-name="uni0944" unicode="&#x944;" horiz-adv-x="0" 
d="M17 -318q0 -30 -30 -51t-77 -21t-97 40.5t-50 91.5t35 80q-34 18 -56.5 49.5t-22.5 73.5t34 72t77 30q23 0 39 -12.5t16 -39.5q-50 -5 -77.5 -26t-27.5 -49t17.5 -44t50 -16t57.5 25q25 -8 25 -30.5t-17 -36t-37.5 -21t-37.5 -25.5t-17 -44t17 -43q20 -19 50 -19t56 17
t34 43q16 -2 27.5 -14t11.5 -30z" />
    <glyph glyph-name="uni0945" unicode="&#x945;" horiz-adv-x="0" 
d="M-160 821q49 0 91.5 21t63.5 63q17 -2 28.5 -15t11.5 -31q0 -42 -50.5 -68.5t-123.5 -26.5t-136.5 40.5t-63.5 74.5q0 17 16 23q60 -81 163 -81z" />
    <glyph glyph-name="uni0946" unicode="&#x946;" horiz-adv-x="0" 
d="M-423.5 790q15.5 -13 43 -13t74.5 21t78 21q53 0 93.5 -42t40.5 -97q0 -38 -26 -64.5t-66 -26.5q-22 0 -38 13.5t-16 28.5t2 20q33 0 62.5 15t29.5 40t-15.5 37.5t-42.5 12.5t-75 -20.5t-78 -20.5q-53 0 -93.5 42t-40.5 97q0 37 26 63.5t66 26.5q21 0 37.5 -13t16.5 -35
q0 -8 -2 -13q-33 0 -62.5 -15.5t-29.5 -40t15.5 -37.5z" />
    <glyph glyph-name="uni0947" unicode="&#x947;" horiz-adv-x="0" 
d="M-325 831q-36 0 -52 -37q-20 4 -31.5 20t-11.5 38t18.5 38.5t55.5 16.5t81.5 -36t73.5 -82.5t47.5 -86.5t18.5 -53q0 -25 -24 -25q-16 39 -38.5 80.5t-62 84t-75.5 42.5z" />
    <glyph glyph-name="uni0948" unicode="&#x948;" horiz-adv-x="0" 
d="M-280 964q40 0 72 -31.5t50 -78.5q37 -98 37 -182q0 -43 -29 -48q-41 52 -93 95t-100 43t-59 -52q-20 0 -36 16t-16 42t22 43.5t54 17.5q59 0 119 -44.5t104 -102.5q-10 65 -30.5 115t-42 70.5t-47 20.5t-39.5 -23q-26 15 -26 41t17.5 42t42.5 16z" />
    <glyph glyph-name="uni0949" unicode="&#x949;" 
d="M250.5 790.5q-50.5 -26.5 -123.5 -26.5t-136.5 40.5t-63.5 74.5q0 17 16 23q60 -81 163 -81q49 0 91.5 21t63.5 63q17 -2 28.5 -15t11.5 -31q0 -42 -50.5 -68.5zM97 92l4 407q0 72 -11 87h-70q-69 0 -69 49q0 10 2 16h283q33 0 51.5 -12.5t18.5 -29.5t-4 -23h-157
q26 -18 26 -89l-4 -412q0 -68 11 -86q-11 -4 -22 -4q-59 0 -59 97z" />
    <glyph glyph-name="uni094A" unicode="&#x94a;" 
d="M98 92l4 407q0 72 -11 87h-70q-69 0 -69 49q0 10 2 16h84q34 0 63 15t29 40t-15 37.5t-42 12.5t-75 -20.5t-78 -20.5q-53 0 -93.5 42t-40.5 97q0 37 26 63.5t65 26.5q22 0 38.5 -13t16.5 -35q0 -3 -2 -13q-33 0 -62.5 -15.5t-29.5 -40t15 -37.5t42.5 -13t74.5 21t79 21
q53 0 93.5 -42t40.5 -97q0 -14 -5 -29h59q33 0 51.5 -12.5t18.5 -29.5t-4 -23h-157q26 -18 26 -89l-4 -412q0 -68 11 -86q-11 -4 -22 -4q-59 0 -59 97z" />
    <glyph glyph-name="uni094B" unicode="&#x94b;" 
d="M97 92l4 407q0 72 -11 87h-70q-69 0 -69 49q0 10 2 16h159q-32 69 -75.5 124.5t-84 55.5t-56.5 -37q-20 4 -31.5 20t-11.5 38t18.5 38.5t55 16.5t80 -34.5t73 -80t48 -85.5t20.5 -56h88q33 0 51.5 -12.5t18.5 -29.5t-4 -23h-157q26 -18 26 -89l-4 -412q0 -68 11 -86
q-11 -4 -22 -4q-59 0 -59 97z" />
    <glyph glyph-name="uni094C" unicode="&#x94c;" 
d="M97 92l4 407q0 72 -11 87h-70q-69 0 -69 49q0 10 2 16h150q-97 111 -168 111q-50 0 -61 -52q-20 0 -36 16t-16 42t22 43.5t54 17.5q59 0 119 -44.5t104 -102.5q-10 65 -30.5 115t-42 70.5t-47 20.5t-39.5 -23q-26 15 -26 41t17.5 42t42.5 16q40 0 72 -31.5t50 -78.5
q37 -98 37 -182q0 -14 -1 -21h82q33 0 51.5 -12.5t18.5 -29.5t-4 -23h-157q26 -18 26 -89l-4 -412q0 -68 11 -86q-11 -4 -22 -4q-59 0 -59 97z" />
    <glyph glyph-name="uni094D" unicode="&#x94d;" horiz-adv-x="0" 
d="M-207 -107q-10 11 -10 29t16 32t50.5 14t85.5 -34.5t83.5 -72.5t32.5 -53.5t-15 -20.5q-103 118 -193 118q-26 0 -50 -12z" />
    <glyph glyph-name="uni0950" unicode="&#x950;" horiz-adv-x="955" 
d="M560 803.5q-13 -13.5 -36.5 -13.5t-43.5 20t-20 43t13.5 36.5t36 13.5t43 -20.5t20.5 -43t-13 -36zM664 678.5q-50 -26.5 -123 -26.5t-136.5 40.5t-63.5 74.5q0 17 16 23q60 -81 163 -81q49 0 91.5 21t63.5 63q16 -2 27.5 -14.5t11.5 -30.5q0 -43 -50 -69.5zM702 558
q72 0 128 -74t56 -162.5t-53 -155t-127 -66.5q-25 0 -41 14t-16 42q79 2 126 60.5t47 148.5q0 46 -24 88t-69 42q-30 0 -52 -24.5t-36 -59.5t-29.5 -70.5t-43.5 -60t-67 -24.5q-15 0 -30 5q14 -33 14 -65q0 -61 -40.5 -98t-99 -37t-107 24t-79.5 57.5t-50 65t-19 50.5t21 25
q33 -65 85 -110.5t107 -45.5t86.5 26.5t31.5 66t-14.5 62.5t-27.5 32q-38 -20 -74.5 -20t-61.5 15.5t-25 42t17.5 40t50.5 13.5t68 -20q52 39 52 89q0 38 -26.5 57.5t-66.5 19.5q-61 0 -106 -37q-25 14 -25 40t27 43t69 17q75 0 129.5 -49.5t54.5 -115t-47 -109.5
q35 -28 61.5 -28t47.5 25.5t35.5 61.5t31 72t44.5 61.5t67 25.5z" />
    <glyph glyph-name="uni0915093C" unicode="&#x958;" horiz-adv-x="742" 
d="M127 88q11 11 30 11t35.5 -16t16.5 -35t-10.5 -30t-30 -11t-36 16t-16.5 35t11 30zM334 303l1 196q0 72 -11 87h-299q-69 0 -69 49q0 10 2 16h749q69 0 69 -48q0 -13 -3 -17h-394q24 -18 24 -75t-4 -102q43 57 112.5 57t126.5 -59t57 -134q0 -55 -39.5 -95t-102.5 -40
q-29 0 -49 15.5t-20 37.5q0 8 2 13q22 -3 28 -3q61 0 91.5 32t30.5 75.5t-30 70.5t-70.5 27t-76 -26t-56.5 -74q-2 -142 -2 -216.5t11 -90.5q-11 -4 -22 -4q-57 0 -57 88q0 63 9 124q-41 -61 -114.5 -61t-130 59t-56.5 134q0 55 39.5 95t102.5 40q29 0 49 -15.5t20 -37.5
q0 -5 -3 -13q-20 3 -27 3q-61 0 -91.5 -32.5t-30.5 -75.5t30 -70t70.5 -27t76 25.5t57.5 71.5z" />
    <glyph glyph-name="uni0916093C" unicode="&#x959;" horiz-adv-x="780" 
d="M68 33q11 11 30 11t35.5 -16t16.5 -35t-10.5 -30t-30 -11t-36 16t-16.5 35t11 30zM293 417q0 -65 -41 -109t-109 -45q25 -66 87.5 -105.5t140.5 -39.5q103 0 171.5 59.5t68.5 147.5q0 44 -24.5 77.5t-66 33.5t-63 -28t-21.5 -63.5t18.5 -65t48.5 -46.5q-7 -13 -22 -13
q-38 0 -76 42.5t-38 98.5t36.5 92.5t98.5 36.5t110 -56v64q0 72 -12 88h-369q62 -78 62 -169zM681 497l-5 -412q0 -68 11 -86q-9 -4 -22 -4q-55 0 -55 85q0 48 7 85q-33 -49 -91.5 -79t-134.5 -30q-99 0 -181 58t-117 158q-31 12 -50.5 35t-19.5 48.5t12 39t32 13.5
q47 0 62 -81q48 4 74.5 37t26.5 87q0 76 -46 135h-157q-69 0 -69 49q0 10 2 16h786q69 0 69 -48q0 -8 -3 -17h-157q26 -18 26 -89z" />
    <glyph glyph-name="uni0917093C" unicode="&#x95a;" horiz-adv-x="567" 
d="M103 99q11 11 30 11t35.5 -16t16.5 -35t-10.5 -30t-30 -11t-36 16t-16.5 35t11 30zM393 92l4 407q0 72 -11 87h-236q41 -47 65.5 -114.5t24.5 -127.5t-24 -93t-64.5 -33t-71 26.5t-30.5 63.5q0 22 13 34.5t32 12.5t36.5 -12.5t25.5 -34.5q17 30 17 80.5t-24.5 107.5
t-59.5 90h-69q-69 0 -69 49q0 10 2 16h578q33 0 51.5 -12.5t18.5 -29.5t-4 -23h-157q26 -18 26 -89l-4 -412q0 -70 11 -86q-11 -4 -26 -4t-28 9t-18 25q-9 25 -9 63z" />
    <glyph glyph-name="uni091C093C" unicode="&#x95b;" horiz-adv-x="678" 
d="M318 29q11 11 30 11t35.5 -16t16.5 -35t-10.5 -30t-30 -11t-36 16t-16.5 35t11 30zM504 92l3 283h-193q67 -67 67 -143q0 -53 -33.5 -84t-86.5 -31t-103 37t-79.5 87t-46.5 95t-17 64t8 25.5t17 6.5q28 -91 76 -163q25 -39 58 -62t68 -23t55.5 21t20.5 54q0 61 -55 116
h-17q-69 0 -69 49q0 10 2 16h329v58q0 72 -11 88h-472q-69 0 -69 49q0 10 2 16h685q69 0 69 -48q0 -13 -3 -17h-157q26 -18 26 -89l-4 -412q0 -70 11 -86q-11 -4 -22 -4q-59 0 -59 97z" />
    <glyph glyph-name="uni0921093C" unicode="&#x95c;" horiz-adv-x="472" 
d="M209 -57q11 11 30 11t35.5 -16t16.5 -35t-10.5 -30t-30 -11t-36 16t-16.5 35t11 30zM329 249l-95 -6q-60 0 -114 44t-54 99t34.5 82.5t90 27.5t90.5 -1q49 0 49 39q0 29 -30 52h-276q-70 0 -70 49q0 7 3 16h504q69 0 69 -48q0 -13 -3 -17h-174q39 -37 39 -81
q0 -29 -24 -51.5t-80 -22.5l-70 1q-37 0 -66 -14.5t-29 -45.5t20.5 -46.5t54.5 -15.5l94 5q67 0 113.5 -47.5t46.5 -103t-45 -91t-106.5 -35.5t-114.5 16.5t-88.5 40t-57.5 48.5t-22 42.5t17 22.5q81 -104 225 -104q54 0 94 22t40 63q0 27 -17 43.5t-48 16.5z" />
    <glyph glyph-name="uni0922093C" unicode="&#x95d;" horiz-adv-x="479" 
d="M220 -27q11 11 30 11t35.5 -16t16.5 -35t-10.5 -30t-30 -11t-36 16t-16.5 35t11 30zM445 651q69 0 69 -48q0 -13 -3 -17h-175q31 -33 31 -70t-28.5 -62t-69.5 -42t-82.5 -35.5t-70 -52t-28.5 -88t49.5 -95t109.5 -40.5t101 30.5t41 78.5q0 28 -16 43.5t-39.5 15.5
t-41.5 -17q-28 -28 -12 -82q-8 -4 -24 -4t-32.5 17.5t-16.5 53t29.5 59.5t77.5 24t92.5 -40t44.5 -98.5t-48.5 -97t-131 -38.5t-164.5 65t-82 155q0 47 21 84t52 57.5t68 38.5t68 30q73 27 73 65q0 26 -28 45h-259q-69 0 -69 49q0 10 2 16h492z" />
    <glyph glyph-name="uni092B093C" unicode="&#x95e;" horiz-adv-x="768" 
d="M116 110q11 11 30 11t35.5 -16t16.5 -35t-10.5 -30t-30 -11t-36 16t-16.5 35t11 30zM143 497l-2 -165q0 -42 23.5 -68t61.5 -26t71.5 20.5t54.5 56.5q2 114 2 184t-11 87h-226q26 -18 26 -89zM72 356l1 152q0 62 -11 78h-39q-70 0 -70 49q0 7 3 16h785q33 0 51.5 -12.5
t18.5 -35.5q0 -8 -3 -17h-411q24 -18 24 -80t-6 -107q47 62 123 62t133.5 -60.5t57.5 -137.5q0 -58 -41.5 -99t-107.5 -41q-29 0 -51.5 16t-22.5 40q0 7 3 15q27 -6 50 -6q52 2 81.5 34.5t29.5 77t-31 73t-74 28.5t-81.5 -26.5t-61.5 -73.5q-3 -103 -3 -193.5t11 -108.5
q-11 -4 -22 -4q-58 0 -58 92q0 75 5 127q-42 -37 -95 -37q-74 0 -131 58.5t-57 120.5z" />
    <glyph glyph-name="uni092F093C" unicode="&#x95f;" horiz-adv-x="584" 
d="M101 88q11 11 30 11t35.5 -16t16.5 -35t-10.5 -30t-30 -11t-36 16t-16.5 35t11 30zM253 482q0 -34 -23.5 -64.5t-51 -48.5t-51 -37t-23.5 -33q0 -29 41.5 -56t93.5 -27t98 18.5t74 57.5q3 97 3 184.5t-13 109.5h-185q37 -50 37 -104zM483 497l-4 -412q0 -68 11 -86
q-11 -4 -22 -4q-56 0 -56 90q0 56 7 118q-60 -48 -147 -48t-160.5 62.5t-73.5 120.5q0 30 76 76q29 17 53 45t24 64t-27 63h-129q-69 0 -69 49q0 10 2 16h581q69 0 69 -48q0 -13 -3 -17h-158q26 -18 26 -89z" />
    <glyph glyph-name="uni0960" unicode="&#x960;" horiz-adv-x="775" 
d="M309 352l1 147q0 72 -11 87h-278q-69 0 -69 49q0 10 2 16h787q69 0 69 -48q0 -8 -3 -17h-453q26 -18 26 -81.5t-2 -179.5q24 -6 50 -6q76 0 114 31q-33 42 -33 73t15 47.5t41 16.5t49 -26.5t23 -63.5t-27 -74q48 -56 48 -90.5t-38.5 -71.5t-38.5 -62t15.5 -38t45 -13
t58 25t39.5 64q18 -2 30 -15.5t12 -33.5q0 -35 -33.5 -61.5t-87 -26.5t-96.5 34.5t-43 84.5q0 28 19.5 50.5t39.5 42.5t20 39t-19 45q-50 -38 -122 -38q-40 0 -81 13q-2 -120 -2 -188t11 -84q-11 -4 -22 -4q-58 0 -58 92t11 163q-155 -109 -239 -109q-25 0 -43 13.5
t-18 43.5q96 0 268 115q-15 9 -45.5 28.5t-45.5 28.5q-43 26 -73 26q-62 0 -74 -52q-36 12 -36 52q0 29 23 47.5t59.5 18.5t71 -17t77 -48.5t66.5 -44.5z" />
    <glyph glyph-name="uni0961" unicode="&#x961;" horiz-adv-x="709" 
d="M504 497q0 -46 -1 -70q53 -19 89 -65.5t36 -95t-28 -86.5t-55.5 -68.5t-27.5 -54t15 -38.5t37 -15q56 0 72 50q40 -12 40 -45q0 -23 -18.5 -39.5t-41 -26t-41 -29t-18.5 -43.5t15.5 -39t43.5 -15t54 21.5t34 54.5q17 -1 30 -15t13 -39t-30 -48.5t-81 -23.5t-94 35t-43 84
t34 80q-33 17 -55.5 49t-22.5 64t16 58t35.5 44t35.5 47t16 63.5t-24.5 59.5t-64.5 25q-61 0 -100 -66q13 -32 13 -61t-13 -50.5t-39 -21.5t-42 21.5t-16 58t26 79.5q-38 42 -88.5 42t-76.5 -35t-26 -87q0 -122 105 -230q-6 -14 -24.5 -14t-55 40t-66.5 106.5t-30 134.5
t42 107.5t112 39.5t134 -64q46 54 105 60v63q0 72 -11 87h-402q-69 0 -69 49q0 10 2 16h720q69 0 69 -48q0 -13 -3 -17h-262q26 -18 26 -89z" />
    <glyph glyph-name="uni0964" unicode="&#x964;" horiz-adv-x="432" 
d="M230 92l5 473q0 71 -11 86q11 4 26.5 4t28 -9t17.5 -26q8 -26 8 -62l-5 -473q0 -70 11 -87q-12 -3 -27 -3t-27.5 8.5t-17.5 24.5q-8 27 -8 64z" />
    <glyph glyph-name="uni0965" unicode="&#x965;" horiz-adv-x="645" 
d="M230 92l5 473q0 71 -11 86q11 4 26.5 4t28 -9t17.5 -26q8 -26 8 -62l-5 -473q0 -70 11 -87q-12 -3 -27 -3t-27.5 8.5t-17.5 24.5q-8 27 -8 64zM461 92l6 473q0 71 -11 86q11 4 26 4t28 -9t18 -26q8 -26 8 -62l-6 -473q0 -68 11 -87q-11 -3 -22 -3q-58 0 -58 97z" />
    <glyph glyph-name="uni0966" unicode="&#x966;" horiz-adv-x="444" 
d="M345.5 473q48.5 -59 48.5 -142t-42 -139t-121.5 -56t-129 59.5t-49.5 141t43 138t122.5 57t128 -58.5zM294.5 236.5q32.5 52.5 32.5 115.5t-23 98t-70.5 35t-80.5 -52t-33 -117q0 -133 92 -133q50 1 82.5 53.5z" />
    <glyph glyph-name="uni0967" unicode="&#x967;" horiz-adv-x="418" 
d="M367 468q0 -42 -23.5 -77.5t-56.5 -57.5t-66 -39t-56.5 -31.5t-23.5 -28t24 -38.5t52.5 -49t52.5 -57t24 -62.5t-17 -43.5t-43 -14t-41 27q28 21 28 49t-24.5 58t-53.5 53q-78 62 -78 102q0 26 25 46.5t61 37t72 35.5t61 50t25 67.5t-22 63.5t-61.5 27t-62.5 -24.5
t-23 -62.5q0 -54 57 -91q-9 -9 -25 -9q-37 0 -68.5 37t-31.5 87.5t36.5 86t95.5 35.5t111 -52.5t52 -124.5z" />
    <glyph glyph-name="uni0968" unicode="&#x968;" horiz-adv-x="460" 
d="M302.5 38q28.5 -14 58.5 -14t43 7q7 -12 7 -32t-15 -34.5t-47.5 -14.5t-66 24.5t-58.5 65.5q-43 72 -68 167q-44 9 -76.5 39t-32.5 71q0 22 14 37.5t35 15.5q62 0 87 -97q70 8 120 55.5t50 113.5t-37.5 105.5t-90.5 39.5q-70 0 -119 -49q-28 12 -28 46t36 53t78 19
q86 0 152.5 -73.5t66.5 -164.5t-62 -150t-149 -64q24 -78 49 -115t53.5 -51z" />
    <glyph glyph-name="uni0969" unicode="&#x969;" horiz-adv-x="457" 
d="M334 382q69 -69 69 -141t-49.5 -114t-126.5 -42q-25 0 -46 4q29 -80 71 -99q19 -8 42.5 -8t36.5 9q12 -15 12 -35t-16 -34.5t-44 -14.5t-54 19t-43 50q-33 57 -48 124q-90 32 -90 96q0 20 13 33.5t38.5 13.5t44.5 -25.5t26 -69.5q15 -3 30 -3q57 0 98.5 30.5t41.5 88.5
t-40 91q-38 -20 -74.5 -20t-61.5 15.5t-25 42t17.5 40t49 13.5t68.5 -20q51 38 51 88q0 38 -26.5 57.5t-65.5 19.5q-74 0 -126 -46q-25 14 -25 41.5t32.5 47.5t82.5 20q75 0 129.5 -49.5t54.5 -112.5t-47 -110z" />
    <glyph glyph-name="uni096A" unicode="&#x96a;" horiz-adv-x="477" 
d="M163.5 141q27.5 -28 69 -28t69 28.5t27.5 69.5q0 70 -87 143q-51 -40 -78.5 -73.5t-27.5 -72.5t27.5 -67zM369 292q33 -43 33 -96.5t-42 -94t-100 -40.5q-77 0 -133.5 54.5t-56.5 108t29.5 94t82.5 83.5q-90 66 -115 94q-41 44 -41 82t19 55.5t41.5 17.5t37.5 -13.5
t15 -32.5q-13 -3 -24.5 -14t-11.5 -35t29 -54.5t86 -72.5q92 68 117 93q44 46 44 89q0 14 -4 25l14 3q24 0 38.5 -17t14.5 -40.5t-11 -47t-22.5 -39.5t-40.5 -41q-32 -28 -90 -72q58 -46 91 -89z" />
    <glyph glyph-name="uni096B" unicode="&#x96b;" horiz-adv-x="515" 
d="M522 17q0 -21 -14 -35.5t-41 -14.5q-104 0 -153 209q-24 -6 -50 -6q-95 0 -161.5 60.5t-66.5 142.5q0 49 25.5 101t62 89.5t77 61.5t69 24t40.5 -15t12 -29q-82 -23 -150 -98.5t-68 -159.5q0 -52 30.5 -86t81.5 -34t84 12q-9 26 -9 58t19 51t45.5 19t46.5 -22t20 -60
q0 -63 -68 -96q16 -67 44.5 -105.5t82.5 -38.5q17 0 32 6q9 -13 9 -34z" />
    <glyph glyph-name="uni096C" unicode="&#x96c;" horiz-adv-x="485" 
d="M464 -2q0 -35 -19 -59t-45 -24t-41 12.5t-17 31.5q30 6 45 23.5t15 49t-28 75.5q-42 -22 -96 -22q-84 0 -148.5 63.5t-64.5 129.5t39 108q-57 52 -57 123t51 108t111.5 37t102.5 -24t42 -59q0 -17 -16 -25q-44 47 -105.5 47t-93.5 -31.5t-32 -73t29 -76.5q38 24 75.5 24
t60 -14t22.5 -38t-20.5 -36.5t-48 -12.5t-57.5 11q-42 -33 -42 -86.5t34.5 -85t84 -31.5t88.5 22q-20 26 -20 52.5t16.5 42.5t42.5 16t46 -24t20 -60t-33 -64q59 -70 59 -130z" />
    <glyph glyph-name="uni096D" unicode="&#x96d;" horiz-adv-x="575" 
d="M326 146q77 0 117 60t40 138.5t-33.5 130t-85.5 51.5q-32 0 -54.5 -21.5t-22.5 -63.5t37 -73q48 -38 116 -38q-3 -36 -48 -36q-68 0 -122.5 50t-54.5 119q0 51 34.5 85.5t88.5 34.5q84 0 142 -76t58 -184.5t-53.5 -176.5t-138 -68t-147.5 47t-99.5 114t-61.5 147
q-41 134 -41 230q0 39 36 39q26 -233 101 -371t192 -138z" />
    <glyph glyph-name="uni096E" unicode="&#x96e;" horiz-adv-x="431" 
d="M374 231q42 -16 42 -58t-45 -82t-124.5 -40t-147.5 56.5t-68 138t71 164.5l223 257q33 -9 33 -45q0 -26 -25 -57.5t-42.5 -51.5t-47.5 -53.5t-52 -60.5q-93 -112 -93 -179q0 -50 30.5 -78.5t80.5 -28.5t96 29t69 89z" />
    <glyph glyph-name="uni096F" unicode="&#x96f;" horiz-adv-x="395" 
d="M99 474q0 -48 26.5 -94.5t63.5 -84t75 -73.5q90 -89 90 -158q0 -36 -19.5 -56.5t-46.5 -20.5q-37 0 -52 38q45 13 45 58q0 56 -91 149q-37 38 -74.5 78.5t-64 90t-26.5 104.5t43 98t115.5 43t125.5 -55.5t53 -116.5t-35 -100t-82 -39q-19 0 -32.5 11t-18.5 28
q99 34 99 124q0 38 -26 64t-66.5 26t-71 -33t-30.5 -81z" />
    <glyph glyph-name="uni0970" unicode="&#x970;" horiz-adv-x="400" 
d="M313.5 211.5q-39.5 -45.5 -110.5 -45.5t-110.5 41.5t-39.5 102t40 106.5t110.5 46t110 -42.5t39.5 -102.5t-39.5 -105.5zM272 386.5q-23 31.5 -66.5 31.5t-68.5 -30.5t-25 -72t24 -73t67 -31.5t67.5 30.5t24.5 72t-23 73z" />
    <glyph glyph-name="uni0972" unicode="&#x972;" horiz-adv-x="712" 
d="M689.5 790.5q-50.5 -26.5 -123.5 -26.5t-136.5 40.5t-63.5 74.5q0 17 16 23q60 -81 163 -81q49 0 91.5 21t63.5 63q17 -2 28.5 -15t11.5 -31q0 -42 -50.5 -68.5zM611 497l-5 -412q0 -68 11 -86q-11 -4 -22 -4q-58 0 -58 95q0 119 8 200q-29 -9 -70.5 -9t-84.5 20
q15 -32 15 -65q0 -61 -40 -98t-99 -37t-107.5 24t-79.5 57.5t-50 65t-19 51t22 24.5q32 -65 84 -110.5t107.5 -45.5t86.5 26.5t31 66t-14 62.5t-27 32q-38 -20 -74.5 -20t-61.5 15.5t-25 42t17.5 40t48.5 13.5t68 -21q53 40 53 90q0 38 -26.5 57.5t-65.5 19.5
q-63 0 -106 -37q-26 15 -26 40.5t27.5 42.5t68.5 17q75 0 129.5 -49.5t54.5 -113.5t-49 -111q57 -42 115 -42t91 24q2 84 2 145.5t-12 78.5h-25q-69 0 -69 49q0 11 3 16h239q33 0 51.5 -12.5t18.5 -35.5q0 -8 -3 -17h-160q27 -19 27 -89z" />
    <glyph glyph-name="uni097D" unicode="&#x97d;" horiz-adv-x="566" 
d="M282 202l-2 -123q0 -59 11 -78q-11 -5 -26 -5q-55 0 -55 110t5.5 152t20.5 67q16 29 68.5 78.5t63.5 62.5t23.5 37t12.5 53t-27 53t-72 24q-91 0 -158 -67q-35 15 -35 50.5t45.5 58t98.5 22.5q90 0 151.5 -53t61.5 -127q0 -43 -31 -83q-30 -37 -60 -66t-53 -52.5
t-33 -44.5t-10 -69z" />
    <glyph glyph-name="uni200B" unicode="&#x200b;" horiz-adv-x="0" 
 />
    <glyph glyph-name="uni200C" unicode="&#x200c;" horiz-adv-x="2" 
d="M-19 -301l-1 1033q0 61 42 61q9 0 16 -4q-5 -9 -5 -41l1 -1033q0 -61 -42 -61q-9 0 -16 4q5 9 5 41z" />
    <glyph glyph-name="uni200D" unicode="&#x200d;" horiz-adv-x="0" 
d="M18 611l1 -896q0 -61 -42 -61q-9 0 -16 4q5 9 5 70.5t-0.5 413.5t-0.5 468l-39 -36q-24 -24 -45.5 -24t-29.5 25l103 96l-103 97q10 24 31.5 24t44.5 -23l65 -61l65 61q23 23 44.5 23t31.5 -24l-103 -97l103 -96q-8 -25 -29.5 -25t-45.5 24z" />
    <glyph glyph-name="endash" unicode="&#x2013;" horiz-adv-x="655" 
d="M135 379h456q4 -8 4 -17q0 -53 -76 -53h-454q-5 10 -5 18q0 52 75 52z" />
    <glyph glyph-name="emdash" unicode="&#x2014;" horiz-adv-x="1073" 
d="M135 379h874q4 -8 4 -17q0 -53 -76 -53h-872q-5 10 -5 18q0 52 75 52z" />
    <glyph glyph-name="quoteleft" unicode="&#x2018;" horiz-adv-x="224" 
d="M115 765q0 -35 18.5 -62.5t49.5 -35.5q-2 -22 -19 -38.5t-42 -16.5q-38 0 -60 33.5t-22 77.5q0 70 33.5 121t70.5 51q21 0 25 -20q-54 -37 -54 -110z" />
    <glyph glyph-name="quoteright" unicode="&#x2019;" horiz-adv-x="224" 
d="M109 757q0 35 -18.5 62.5t-50.5 34.5q2 22 19.5 38.5t42.5 16.5q38 0 59.5 -33t21.5 -77q0 -70 -33 -121.5t-69 -51.5q-22 0 -25 20q53 38 53 111z" />
    <glyph glyph-name="quotesinglbase" unicode="&#x201a;" horiz-adv-x="720" 
d="M135 -32q0 36 -18 63.5t-50 36.5q2 23 19.5 40t42.5 17q38 0 60 -34.5t22 -80.5q0 -71 -34 -124t-72 -53q-22 0 -25 22q55 39 55 113z" />
    <glyph glyph-name="quotedblleft" unicode="&#x201c;" horiz-adv-x="425" 
d="M147 765q0 -35 18.5 -62.5t49.5 -35.5q-2 -22 -19.5 -38.5t-42.5 -16.5q-38 0 -59.5 33.5t-21.5 77.5q0 70 33.5 121t70.5 51q21 0 25 -20q-54 -37 -54 -110zM284 765q0 -35 18.5 -62.5t50.5 -35.5q-2 -22 -20 -38.5t-42 -16.5q-39 0 -60.5 33.5t-21.5 77.5
q0 69 33.5 120.5t70.5 51.5q22 0 25 -20q-54 -37 -54 -110z" />
    <glyph glyph-name="quotedblright" unicode="&#x201d;" horiz-adv-x="425" 
d="M109 743q0 35 -19 62.5t-50 35.5q2 22 19.5 38t42.5 16q38 0 59.5 -33t21.5 -77q0 -70 -33 -121.5t-69 -51.5q-22 0 -25 20q53 38 53 111zM310 743q0 34 -19 62t-50 36q2 22 19.5 38t42.5 16q38 0 59.5 -33t21.5 -77q0 -70 -33 -121.5t-70 -51.5q-22 0 -25 20
q54 39 54 111z" />
    <glyph glyph-name="quotedblbase" unicode="&#x201e;" horiz-adv-x="720" 
d="M135 -32q0 36 -18 63.5t-50 36.5q2 23 19.5 40t42.5 17q38 0 60 -34.5t22 -80.5q0 -71 -34 -124t-72 -53q-22 0 -25 22q55 39 55 113z" />
    <glyph glyph-name="dagger" unicode="&#x2020;" horiz-adv-x="656" 
d="M285 413l4 117q-216 -3 -233 -3q-3 12 -3 18q0 52 75 52q53 -2 161 -4q-4 100 -5 150q0 77 53 77q12 0 20 -5q-5 -16 -5 -63v-160q74 5 234 5q3 -15 3 -19q0 -51 -76 -51q-6 0 -162 3q5 -50 5 -698q0 -80 -56 -80q-14 0 -23 2q8 15 8.5 64t0.5 160z" />
    <glyph glyph-name="daggerdbl" unicode="&#x2021;" horiz-adv-x="637" 
d="M352 -22l4 -149q0 -77 -52 -77q-11 0 -21 5q6 14 6 109t1 112q-74 -4 -234 -4q-3 6 -3 19q0 51 76 51l160 -3q-3 55 -3 249l3 240q-216 -3 -233 -3q-3 12 -3 18q0 52 75 52q53 -2 161 -4q-4 100 -5 150q0 77 53 77q12 0 20 -5q-5 -16 -5 -63v-160q74 5 234 5q3 -15 3 -19
q0 -51 -76 -51q-6 0 -162 3q3 -29 3.5 -250t-2.5 -239l233 3q5 -7 5 -18q0 -52 -76 -52q-56 2 -162 4z" />
    <glyph glyph-name="bullet" unicode="&#x2022;" horiz-adv-x="377" 
d="M267.5 483.5q24.5 -25.5 24.5 -69.5t-37.5 -81.5t-81.5 -37.5t-69 25.5t-25 69t39 81.5t82 38t67.5 -25.5z" />
    <glyph glyph-name="ellipsis" unicode="&#x2026;" horiz-adv-x="857" 
d="M222 112.5q15 -15.5 15 -41.5t-23 -49.5t-49.5 -23.5t-41.5 15.5t-15 41.5t23.5 49.5t49.5 23.5t41 -15.5zM478 112.5q15 -15.5 15 -41.5t-23 -49.5t-49.5 -23.5t-41.5 15.5t-15 41.5t23.5 49.5t49.5 23.5t41 -15.5zM734 112.5q15 -15.5 15 -41.5t-23 -49.5t-49.5 -23.5
t-41.5 15.5t-15 41.5t23.5 49.5t49.5 23.5t41 -15.5z" />
    <glyph glyph-name="perthousand" unicode="&#x2030;" horiz-adv-x="1193" 
d="M1066.5 55q-45.5 -64 -112 -64t-102 54t-35.5 133.5t43.5 144t110 64.5t104 -54t37.5 -134t-45.5 -144zM1026.5 285.5q-21.5 38.5 -60 38.5t-63 -40.5t-24.5 -97.5t23.5 -95t60.5 -38t61 40.5t24 97t-21.5 95zM330.5 394q-45.5 -64 -112 -64t-102 53.5t-35.5 133.5
t43 144t110.5 64t104.5 -53t37 -133.5t-45.5 -144.5zM291 625q-22 38 -60.5 38t-63 -40.5t-24.5 -97t23.5 -94.5t60.5 -38t61.5 41t24.5 97t-22 94zM625 693q26 32 48 32t37 -19q-8 -3 -29 -31l-457 -650q-24 -34 -47 -34t-36 20q11 8 27 31zM722.5 55q-45.5 -64 -112 -64
t-102 54t-35.5 133.5t43.5 144t110.5 64.5t104 -54t37 -134t-45.5 -144zM682.5 285.5q-21.5 38.5 -60 38.5t-63 -40.5t-24.5 -97.5t23.5 -95t61 -38t61 40t23.5 97t-21.5 95.5z" />
    <glyph glyph-name="guilsinglleft" unicode="&#x2039;" horiz-adv-x="389" 
d="M212.5 505.5q-30.5 -52.5 -30.5 -101t31 -102t98 -127.5q-9 -21 -29.5 -21t-70 46.5t-91.5 107.5t-42 96.5t42 97t91.5 108t70 46.5t29.5 -21q-68 -77 -98.5 -129.5z" />
    <glyph glyph-name="guilsinglright" unicode="&#x203a;" horiz-adv-x="389" 
d="M268.5 501.5q42.5 -61.5 42.5 -97t-42 -96.5t-92 -107.5t-71 -46.5q-10 0 -18 7.5t-10 13.5q67 74 97.5 127.5t30.5 102t-30.5 101.5t-97.5 129q2 6 10 13.5t18 7.5q21 0 70.5 -46.5t92 -108z" />
    <glyph glyph-name="fraction" unicode="&#x2044;" horiz-adv-x="625" 
d="M512 693q22 32 46.5 32t38.5 -19q-7 -3 -28 -31l-456 -650q-26 -34 -49 -34t-37 20q12 7 28 31z" />
    <glyph glyph-name="Euro" unicode="&#x20ac;" horiz-adv-x="691" 
d="M207 357l1 -41h268q4 -6 4 -16q0 -47 -74 -47h-188q20 -91 77.5 -139t143.5 -48q59 0 111 24.5t84 58.5q20 -3 20 -32q0 -37 -70.5 -81.5t-174 -44.5t-183.5 70.5t-102 191.5h-82q-4 8 -4 17q0 46 74 46h5q-1 8 -1 25.5t2 51.5h-76q-4 8 -4 17q0 46 74 46h17
q30 125 118 197t205 72q86 0 144.5 -34.5t58.5 -83.5q0 -24 -16.5 -38t-39 -14t-37.5 7q1 6 1 12q0 33 -30.5 59.5t-100 26.5t-131.5 -52.5t-84 -151.5h259q4 -6 4 -15q0 -48 -74 -48h-198q-1 -12 -1 -36z" />
    <glyph glyph-name="uni20B9" unicode="&#x20b9;" horiz-adv-x="450" 
d="M478 487q0 -45 -63 -45h-42q2 -22 2 -34q0 -77 -45 -130.5t-119 -60.5q47 -165 150 -165q18 0 38 5v-13.5t-14 -29.5t-59 -19t-86 37t-63.5 85t-37.5 108q-33 11 -55 32.5t-22 45.5t13 38t35 14q63 0 90 -92q50 10 81 49t31 97q0 17 -3 33h-298q-3 4 -3 16q0 44 63 44
h219q-23 53 -63 90h-216q-3 3 -3 15q0 44 63 44h404q3 -9 3 -15q0 -44 -63 -44h-111q33 -39 53 -90h118q3 -9 3 -15z" />
    <glyph glyph-name="trademark" unicode="&#x2122;" horiz-adv-x="937" 
d="M78 722h232q34 0 34 -31q0 -19 -10 -26q-14 9 -39 9h-77v-332q0 -18 14 -24q-8 -18 -36 -18q-39 0 -39 41v333h-95q-34 0 -34 29q0 15 9 28q15 -9 41 -9zM846 300q-39 0 -43 40l-20 305l-134 -320q-6 -15 -21.5 -15t-21.5 14l-121 301l-20 -283q-3 -42 -35 -42
q-24 0 -36 12q11 7 11 31l26 341q1 17 -7 31q19 13 43 13q33 0 48 -40l119 -285l115 275q13 29 26 39.5t36.5 10.5t37.5 -12q-7 -7 -7 -17v-14l24 -341q2 -25 11 -35q-14 -9 -31 -9z" />
    <glyph glyph-name="minus" unicode="&#x2212;" horiz-adv-x="587" 
d="M101 439h459q2 -6 2 -16q0 -53 -74 -53h-458q-4 8 -4 18q0 51 75 51z" />
    <glyph glyph-name="uni25CC" unicode="&#x25cc;" horiz-adv-x="723" 
d="M112 272l94 21q4 -16 17 -47l-82 -48q-22 38 -29 74zM204 327h-97q0 39 11 78l93 -30q-7 -22 -7 -48zM174 154l69 64q13 -16 39 -33l-45 -79q-41 22 -63 48zM192 515l63 -70q-20 -16 -31 -39l-83 49q21 35 51 60zM363 165v-89q-41 0 -77 10l28 86q22 -7 49 -7zM521 327
h99q0 -42 -13 -79l-92 30q6 30 6 49zM311 573l20 -91q-25 -6 -48 -17l-46 81q33 19 74 27zM416 80l-19 88q32 9 47 18l45 -80q-32 -18 -73 -26zM363 485v92q40 0 78 -11l-30 -89q-22 8 -48 8zM535 137l-64 69q21 21 30 40l83 -48q-19 -36 -49 -61zM553 498l-72 -65
q-15 18 -38 31l47 82q34 -19 63 -48zM585 454q22 -35 28 -75l-96 -20q-3 24 -16 47z" />
    <glyph glyph-name="uni0915094D" horiz-adv-x="545" 
d="M334 303l1 196q0 72 -11 87h-299q-69 0 -69 49q0 10 2 16h562q69 0 69 -48q0 -8 -3 -17h-207q24 -18 24 -75.5t-4 -102.5q44 58 118 58q51 0 93 -33t42 -66q0 -22 -20 -22h-5q-25 61 -91 61q-40 0 -76 -26.5t-57 -74.5q-2 -142 -2 -216t11 -90q-11 -4 -22 -4
q-57 0 -57 88q0 63 9 124q-41 -61 -114.5 -61t-130 59t-56.5 134q0 55 39.5 95t102.5 40q29 0 49 -15.5t20 -37.5q0 -5 -3 -13q-20 3 -27 3q-61 0 -91.5 -32.5t-30.5 -75.5t30 -70t70.5 -27t76 25.5t57.5 71.5z" />
    <glyph glyph-name="uni0916094D" horiz-adv-x="581" 
d="M293 417q0 -65 -41 -109t-109 -45q25 -66 87.5 -105.5t140.5 -39.5q103 0 171.5 59.5t68.5 147.5q0 44 -24.5 77.5t-66 33.5t-63 -28t-21.5 -63.5t18.5 -65t48.5 -46.5q-7 -13 -22 -13q-38 0 -76 42.5t-38 98.5t36.5 92.5t93.5 36.5q73 0 118.5 -58t45.5 -137
q0 -101 -75.5 -170t-194.5 -69q-99 0 -181 58t-117 158q-31 12 -50.5 35t-19.5 48.5t12 39t32 13.5q47 0 62 -81q48 4 74.5 37t26.5 87q0 76 -46 135h-157q-69 0 -69 49q0 10 2 16h587q32 0 50.5 -13t18.5 -35q0 -8 -3 -17h-382q62 -78 62 -169z" />
    <glyph glyph-name="uni0917094D" horiz-adv-x="345" 
d="M311 651q33 0 51.5 -12.5t18.5 -35.5q0 -8 -3 -17h-228q41 -47 65.5 -114.5t24.5 -127.5t-24 -93t-64.5 -33t-71 26.5t-30.5 63.5q0 22 13 34.5t32 12.5t36.5 -12.5t25.5 -34.5q17 30 17 80.5t-24.5 107.5t-59.5 90h-69q-69 0 -69 49q0 10 2 16h357z" />
    <glyph glyph-name="uni0918094D" horiz-adv-x="404" 
d="M123 486q0 -38 23 -70q38 23 74.5 23t58.5 -14t22 -38t-19.5 -36.5t-46 -12.5t-56.5 11q-35 -26 -35 -72t34.5 -73t90 -27t110 38.5t80.5 101.5q42 -9 42 -51.5t-61 -95t-145.5 -52.5t-148.5 58.5t-64 117t33 96.5q-53 51 -53 118q0 44 24 82q-36 -4 -69 -4q-65 0 -65 49
q0 10 2 16h418q69 0 69 -48q0 -8 -3 -17h-272q-43 -38 -43 -100z" />
    <glyph glyph-name="uni0919094D" horiz-adv-x="546" 
d="M185 -33q16 14 50.5 14t85.5 -34.5t83.5 -72.5t32.5 -53.5t-15 -20.5q-103 118 -193 118q-26 0 -50 -12q-10 11 -10 29t16 32zM440.5 416.5q12.5 12.5 34.5 12.5t41.5 -19t19.5 -41t-12.5 -35t-35 -13t-41.5 19t-19 41.5t12.5 35zM329 249l-95 -6q-60 0 -114 44t-54 99
t34.5 82.5t90 27.5t90.5 -1q49 0 49 39q0 29 -30 52h-276q-70 0 -70 49q0 7 3 16h554q69 0 69 -48q0 -13 -3 -17h-224q39 -37 39 -81q0 -29 -24 -51.5t-80 -22.5l-70 1q-37 0 -66 -14.5t-29 -45.5t20.5 -46.5t54.5 -15.5l94 5q67 0 113.5 -47.5t46.5 -103t-45 -91
t-106.5 -35.5t-114.5 16.5t-88.5 40t-57.5 48.5t-22 42.5t17 22.5q81 -104 225 -104q54 0 94 22t40 63q0 27 -17 43.5t-48 16.5z" />
    <glyph glyph-name="uni091A094D" horiz-adv-x="394" 
d="M2 586q-69 0 -69 49q0 11 3 16h451q69 0 69 -48q0 -8 -3 -17h-451zM291 399q-54 0 -86.5 -30.5t-32.5 -73.5t33 -69.5t82 -26.5t97 29.5t73 88.5q37 -12 37 -53t-53 -83t-127 -42t-136 54.5t-62 130.5q0 49 39 82q-49 -7 -81 -7q-77 0 -77 50q0 9 3 14h266q69 0 69 -48
q0 -4 -4 -16h-40z" />
    <glyph glyph-name="uni091B094D" horiz-adv-x="657" 
d="M128 468q0 -40 19 -72q35 18 69.5 18t57 -14t22.5 -38.5t-18.5 -36.5t-46.5 -12t-58 14q-43 -29 -43 -82.5t47.5 -88t114.5 -34.5q119 0 189.5 70.5t70.5 159.5q0 53 -27 80q0 -25 -17.5 -40.5t-46.5 -15.5t-50.5 21t-21.5 49.5t21 45t49 16.5q66 0 108 -56.5t42 -125.5
q0 -116 -79 -190t-200 -74q-98 0 -179.5 60.5t-81.5 147.5q0 62 43 102q-46 53 -46 115.5t36 101.5q-41 -3 -80 -3q-66 0 -66 49q0 11 3 16h663q69 0 69 -48q0 -13 -3 -17h-491q-69 -39 -69 -118z" />
    <glyph glyph-name="uni091C094D" horiz-adv-x="452" 
d="M25 586q-69 0 -69 49q0 10 2 16h493q69 0 69 -48q0 -8 -3 -17h-492zM493 440q69 0 69 -48q0 -8 -3 -17h-245q67 -67 67 -143q0 -53 -33.5 -84t-86.5 -31t-103 37t-79.5 87t-46.5 95t-17 64t8 25.5t17 6.5q28 -91 76 -163q25 -39 58 -62t68 -23t55.5 21t20.5 54
q0 61 -55 116h-17q-69 0 -69 49q0 10 2 16h314z" />
    <glyph glyph-name="uni091D094D" horiz-adv-x="506" 
d="M206 492l67 -1q54 0 54 38q0 29 -35 57h-271q-69 0 -69 49q0 10 2 16h534q32 0 50.5 -13t18.5 -35q0 -8 -3 -17h-209q44 -38 44 -85q0 -33 -26 -54.5t-78 -21.5l-68 1q-32 0 -59 -14t-27 -41t19.5 -43t54.5 -16l71 3q24 0 72 -11.5t81 -11.5q92 0 146 52q20 -17 20 -44
t-37.5 -45.5t-75 -18.5t-67.5 6q26 -37 26 -81q0 -61 -50 -99t-122 -38q-43 0 -82 10q52 -100 122 -100q33 0 54 21q25 -14 25 -38.5t-18 -39t-49 -14.5q-51 0 -99.5 48t-80.5 138q-42 17 -68 44.5t-26 62.5q0 18 12 30.5t34.5 12.5t41.5 -26t27 -66q29 -18 83 -18t96 24.5
t42 67.5q0 31 -19.5 49.5t-55.5 18.5l-71 -3q-58 0 -111.5 45.5t-53.5 97t35.5 77.5t98.5 26z" />
    <glyph glyph-name="uni091E094D" horiz-adv-x="488" 
d="M21 586q-69 0 -69 49q0 10 2 16h523q33 0 51.5 -12.5t18.5 -29.5t-4 -23h-522zM567 360q17 -20 17 -42.5t-25 -38.5t-65.5 -16t-73.5 12q-7 -53 -48.5 -84.5t-99.5 -31.5t-110 33t-83.5 77t-50 84t-18.5 59q0 27 25 27q81 -213 216 -213q54 0 84 30.5t30 68.5t-21 63
t-57 25q-48 0 -76 -50q-37 16 -37 45.5t24 47.5t56 18q62 0 108.5 -43t56.5 -108q18 -2 26 -2q73 0 122 39z" />
    <glyph glyph-name="uni091F094D" horiz-adv-x="445" 
d="M159 9q16 14 50.5 14t85.5 -34.5t83.5 -72.5t32.5 -53.5t-15 -20.5q-103 118 -193 118q-26 0 -50 -12q-10 11 -10 29t16 32zM411 651q32 0 50.5 -13t18.5 -35q0 -8 -3 -17h-177q33 -31 33 -70.5t-25 -66.5t-60.5 -45t-71.5 -37.5t-61 -50.5t-25 -76t39 -78t93 -33
t98.5 32t53.5 86q21 -1 36 -15.5t15 -38.5q0 -46 -49.5 -82.5t-126.5 -36.5t-150.5 57.5t-73.5 135.5q0 49 25.5 86.5t61.5 59.5t72 40t61.5 39t25.5 48.5t-27 45.5h-220q-70 0 -70 49q0 7 3 16h454z" />
    <glyph glyph-name="uni0920094D" horiz-adv-x="486" 
d="M170 -7q16 14 50.5 14t85.5 -34.5t83.5 -72.5t32.5 -53.5t-15 -20.5q-103 118 -193 118q-26 0 -50 -12q-10 11 -10 29t16 32zM335.5 153.5q46.5 39.5 46.5 96.5t-41.5 97t-113.5 50q-75 -42 -99 -66q-39 -40 -39 -95t41.5 -88.5t100 -33.5t105 39.5zM452 651q69 0 69 -48
q0 -8 -3 -17h-226q34 -32 34 -78t-52 -82q81 -17 128 -73.5t47 -127t-55.5 -119t-139.5 -48.5t-156.5 61.5t-72.5 146.5q0 48 24.5 85.5t59.5 60t71 40.5q84 45 84 86q0 30 -27 48h-213q-70 0 -70 49q0 7 3 16h495z" />
    <glyph glyph-name="uni0921094D" horiz-adv-x="472" 
d="M191 -26q16 14 50.5 14t85.5 -34.5t83.5 -72.5t32.5 -53.5t-15 -20.5q-103 118 -193 118q-26 0 -50 -12q-10 11 -10 29t16 32zM329 249l-95 -6q-60 0 -114 44t-54 99t34.5 82.5t90 27.5t90.5 -1q49 0 49 39q0 29 -30 52h-276q-70 0 -70 49q0 7 3 16h504q69 0 69 -48
q0 -13 -3 -17h-174q39 -37 39 -81q0 -29 -24 -51.5t-80 -22.5l-70 1q-37 0 -66 -14.5t-29 -45.5t20.5 -46.5t54.5 -15.5l94 5q67 0 113.5 -47.5t46.5 -103t-45 -91t-106.5 -35.5t-114.5 16.5t-88.5 40t-57.5 48.5t-22 42.5t17 22.5q81 -104 225 -104q54 0 94 22t40 63
q0 27 -17 43.5t-48 16.5z" />
    <glyph glyph-name="uni0922094D" horiz-adv-x="479" 
d="M178 -19q16 14 50.5 14t85.5 -34.5t83.5 -72.5t32.5 -53.5t-15 -20.5q-103 118 -193 118q-26 0 -50 -12q-10 11 -10 29t16 32zM445 651q69 0 69 -48q0 -13 -3 -17h-175q31 -33 31 -70t-28.5 -62t-69.5 -42t-82.5 -35.5t-70 -52t-28.5 -88t49.5 -95t109.5 -40.5t101 30.5
t41 78.5q0 28 -16 43.5t-39.5 15.5t-41.5 -17q-28 -28 -12 -82q-8 -4 -24 -4t-32.5 17.5t-16.5 53t29.5 59.5t77.5 24t92.5 -40t44.5 -98.5t-48.5 -97t-131 -38.5t-164.5 65t-82 155q0 47 21 84t52 57.5t68 38.5t68 30q73 27 73 65q0 26 -28 45h-259q-69 0 -69 49q0 10 2 16
h492z" />
    <glyph glyph-name="uni0923094D" horiz-adv-x="479" 
d="M136 497l-1 -127q1 -57 23 -93t68 -36q93 0 93 177q0 115 -22 168h-187q26 -18 26 -89zM443 651q69 0 69 -48q0 -13 -3 -17h-171q23 -36 36.5 -96.5t13.5 -117.5q0 -98 -36.5 -142t-100.5 -44t-123.5 56t-61.5 131v126q0 72 -11 87h-34q-69 0 -69 49q0 10 2 16h489z" />
    <glyph glyph-name="uni0924094D" horiz-adv-x="308" 
d="M294 651q69 0 69 -48q0 -8 -3 -17h-336q-70 0 -70 49q0 7 3 16h337zM371 368h-124q-124 0 -124 -107q0 -61 28.5 -124t76.5 -110q-6 -14 -24.5 -14t-55 40.5t-66 107t-29.5 131t44.5 103t123 38.5t197.5 -11q4 -6 4 -18q0 -36 -51 -36z" />
    <glyph glyph-name="uni0925094D" horiz-adv-x="407" 
d="M436.5 182q-63.5 -39 -152 -39t-163 59.5t-74.5 114.5q0 43 113 87q43 17 78.5 49t35.5 66.5t-18.5 54t-49 19.5t-52 -22.5t-21.5 -58.5t26 -60q-6 -4 -14 -4q-30 0 -52.5 30t-22.5 73t32 72.5t77 29.5q60 0 107 -49.5t47 -111.5q0 -46 -34 -82t-75 -54
q-108 -48 -108 -74q0 -28 40.5 -53t96 -25t115 26t96.5 81q36 -16 36 -48q0 -42 -63.5 -81z" />
    <glyph glyph-name="uni0926094D" horiz-adv-x="488" 
d="M231 -3q16 14 50.5 14t85.5 -34.5t83.5 -72.5t32.5 -53.5t-15 -20.5q-103 118 -193 118q-26 0 -50 -12q-10 11 -10 29t16 32zM384 523q0 -35 -29 -59t-70 -39t-82.5 -32t-70.5 -47.5t-29 -81t43.5 -81.5t93.5 -31t85 15q-14 25 -14 48.5t15.5 41t41.5 17.5t45 -24t19 -53
q0 -48 -36 -76q30 -41 61.5 -41t50.5 27q23 -18 23 -43t-15.5 -40t-42.5 -15q-63 0 -114 93q-33 -11 -71 -11q-97 0 -173.5 63t-76.5 140q0 54 29.5 92t71.5 58t84 34.5t71.5 31.5t29.5 39.5t-18 36.5h-283q-69 0 -69 49q0 11 3 16h497q69 0 69 -48q0 -8 -3 -17h-162
q26 -28 26 -63z" />
    <glyph glyph-name="uni0927094D" horiz-adv-x="394" 
d="M213 586q-47 0 -74.5 -32.5t-27.5 -73t22 -69.5q38 23 74 23t58.5 -14t22.5 -38t-19.5 -36.5t-46 -12.5t-56.5 11q-33 -29 -33 -72t33.5 -69t91 -26t113 35.5t82.5 95.5q38 -10 38 -46q0 -48 -64 -96t-147 -48t-146 56t-63 114.5t32 95.5q-53 50 -53 117q0 52 37 89
q-51 -4 -82 -4q-65 0 -65 49q0 11 3 16h222q69 0 69 -48q0 -13 -3 -17h-18z" />
    <glyph glyph-name="uni0928094D" horiz-adv-x="327" 
d="M307 651q32 0 50.5 -13t18.5 -35q0 -8 -3 -17h-349q-70 0 -70 49q0 7 3 16h350zM86 217.5q-56 52.5 -56 106.5t37 81.5t100 27.5q152 0 281 -12q4 -6 4 -16q0 -37 -53 -37h-215q-38 0 -64 -18t-26 -50t22.5 -52.5t51.5 -20.5t47 15.5t20 38.5q4 10 2 22q24 -2 38.5 -19
t14.5 -45.5t-24 -51t-65 -22.5q-59 0 -115 52.5z" />
    <glyph glyph-name="uni092A094D" horiz-adv-x="332" 
d="M144 497l-1 -169q0 -42 23 -68t67.5 -26t89.5 30t74 83q35 -14 35 -50t-53 -80t-122 -44t-126 59.5t-57 120.5v159q-2 60 -11 74h-40q-70 0 -70 49q0 7 3 16h344q69 0 69 -48q0 -13 -3 -17h-248q26 -18 26 -89z" />
    <glyph glyph-name="uni092B094D" horiz-adv-x="556" 
d="M143 497l-2 -165q0 -42 23.5 -68t61.5 -26t71.5 20.5t54.5 56.5q2 114 2 184t-11 87h-226q26 -18 26 -89zM72 356l1 152q0 62 -11 78h-39q-70 0 -70 49q0 7 3 16h591q69 0 69 -48q0 -13 -3 -17h-216q24 -18 24 -80t-6 -107q48 62 130 62q49 0 87 -27t38 -53t-20 -28
q-26 48 -85 48q-43 0 -81.5 -26.5t-61.5 -73.5q-3 -103 -3 -193.5t11 -108.5q-11 -4 -22 -4q-58 0 -58 92q0 75 5 127q-42 -37 -95 -37q-74 0 -131 58.5t-57 120.5z" />
    <glyph glyph-name="uni092C094D" horiz-adv-x="354" 
d="M330 651q32 0 50.5 -13t18.5 -35q0 -8 -3 -17h-371q-69 0 -69 49q0 10 2 16h372zM136 400q-36 -33 -36 -84.5t35.5 -82.5t80.5 -31t82 19zM438 289q0 -50 -57 -98t-133.5 -48t-141.5 61t-65 146q0 63 45.5 106t113.5 43q44 0 70.5 -17t26.5 -43q0 -12 -5 -22
q-30 15 -64 15t-59 -11l161 -180q48 37 70 96q38 -11 38 -48z" />
    <glyph glyph-name="uni092D094D" horiz-adv-x="362" 
d="M398 292h-161q-10 -91 -55 -91q-35 0 -67 34.5t-32 67.5q0 53 85 55q3 33 3 74q0 161 -63 161q-22 0 -33.5 -17.5t-11.5 -50.5t22 -61q-6 -4 -15 -4q-28 0 -48 32.5t-20 71t21.5 63.5t59.5 25q67 0 110.5 -83t45.5 -212q94 -2 210 -11q3 -9 3 -16q0 -38 -54 -38z" />
    <glyph glyph-name="uni092E094D" horiz-adv-x="335" 
d="M207 536q5 -37 5 -98t-1 -81q118 -2 211 -12q3 -9 3 -15q0 -38 -54 -38h-164q-10 -91 -53 -91q-35 0 -67 34.5t-32 67.5q0 53 86 55q2 44 2 66q0 146 -14 162h-108q-69 0 -69 49q0 10 2 16h359q69 0 69 -48q0 -8 -3 -17h-195q18 -13 23 -50z" />
    <glyph glyph-name="uni092F094D" horiz-adv-x="376" 
d="M253 482q0 -34 -23.5 -64.5t-51 -48.5t-51 -37t-23.5 -33q0 -29 41.5 -56t98 -27t110 27.5t81.5 83.5q32 -18 32 -51q0 -43 -56 -82t-141 -39t-158.5 62.5t-73.5 120.5q0 30 76 76q29 17 53 45t24 64t-27 63h-129q-69 0 -69 49q0 10 2 16h380q33 0 51.5 -12.5t18.5 -29.5
t-4 -23h-198q37 -50 37 -104z" />
    <glyph glyph-name="uni0930094D" horiz-adv-x="395" 
d="M141 -57q16 14 50.5 14t85.5 -34.5t83.5 -72.5t32.5 -53.5t-15 -20.5q-103 118 -193 118q-26 0 -50 -12q-10 11 -10 29t16 32zM360 651q69 0 69 -48q0 -8 -3 -17h-161q74 -81 74 -178q0 -73 -50 -118t-116 -45h-12q18 -81 50.5 -128.5t95.5 -47.5q22 0 34 6
q7 -14 7 -32.5t-15 -33t-45.5 -14.5t-60.5 25t-51 67q-40 77 -60 167q-41 14 -67 42t-26 67q0 22 14 38t36 16q53 0 75 -102h5q57 1 89.5 36t32.5 84q0 98 -66 151h-186q-69 0 -69 49q0 10 2 16h404z" />
    <glyph glyph-name="uni0932094D" horiz-adv-x="489" 
d="M474 651q69 0 69 -48q0 -8 -3 -17h-516q-70 0 -70 49q0 7 3 16h517zM461 435q52 0 88 -27.5t36 -55.5q0 -16 -15 -23q-32 41 -91.5 41t-92.5 -60q13 -34 13 -63.5t-13 -51.5t-40 -22t-43 21.5t-16 59t26 82.5q-38 42 -87.5 42t-76.5 -34.5t-27 -91t35.5 -117t95.5 -109.5
q-5 -14 -26 -14t-63 38.5t-77 104t-35 135t42 110.5t112.5 41t134.5 -66q51 60 120 60z" />
    <glyph glyph-name="uni0933094D" horiz-adv-x="710" 
d="M355 212q50 -34 108 -34t99 36.5t41 86t-26.5 77t-68.5 27.5q-49 0 -79 -45q-21 -31 -42.5 -80t-31.5 -68zM318.5 302q19.5 46 29.5 64q-48 35 -106.5 35t-100 -36.5t-41.5 -86t27 -77t72 -27.5t72.5 41t47 87zM361 388q48 76 119 76t127.5 -59t56.5 -127.5t-48.5 -115.5
t-120.5 -47q-47 0 -88 20.5t-64 55.5q-47 -76 -119 -76t-128 58.5t-56 127.5t48.5 116t120.5 47q47 0 88 -20.5t64 -55.5zM675 651q69 0 69 -48q0 -8 -3 -17h-716q-69 0 -69 49q0 10 2 16h717z" />
    <glyph glyph-name="uni0935094D" horiz-adv-x="337" 
d="M325 651q32 0 50.5 -13t18.5 -35q0 -8 -3 -17h-366q-69 0 -69 49q0 10 2 16h367zM139 391.5q-32 -33.5 -32 -80.5t33 -76.5t81 -29.5q113 0 172 120q33 -14 33 -54t-52 -82.5t-127 -42.5t-137 60t-62 134t46.5 112.5t96 38.5t75 -15.5t25.5 -41.5q0 -12 -5 -22
q-32 13 -61 13q-54 0 -86 -33.5z" />
    <glyph glyph-name="uni0936094D" horiz-adv-x="459" 
d="M186 226h-5q57 -158 161 -158q22 0 46 7q8 -13 8 -32t-15 -33.5t-41 -14.5q-126 0 -206 238q-44 12 -72.5 40.5t-28.5 63.5q0 20 13 34.5t38 14.5t46 -29t31 -67q79 2 127 47t48 125q0 53 -24 92t-65 39q-29 0 -46.5 -20.5t-17.5 -52.5t22.5 -61.5t56.5 -44.5
q-8 -15 -25 -15q-40 0 -80.5 43.5t-40.5 94t29 83.5t75 33q71 0 125 -71.5t54 -156t-61.5 -142t-151.5 -57.5z" />
    <glyph glyph-name="uni0937094D" horiz-adv-x="358" 
d="M144 489l-1 -161q0 -42 23 -68t66 -26q81 0 142 63q-145 154 -237 232q7 -17 7 -40zM376 207.5q-49 -34.5 -118.5 -34.5t-126.5 59.5t-57 120.5v156q0 61 -11 77h-40q-70 0 -70 49q0 7 3 16h394q69 0 69 -48q0 -8 -3 -17h-294q38 -18 244 -225l80 -80q-21 -39 -70 -73.5z
" />
    <glyph glyph-name="uni0938094D" horiz-adv-x="443" 
d="M339 408q0 -38 -16 -72q33 -11 67 -11q77 0 134 32q15 -17 15 -36q0 -30 -33 -43.5t-71 -13.5q-71 0 -137 35q-49 -54 -125 -54h-12q18 -81 50.5 -128.5t95.5 -47.5q22 0 34 6q7 -14 7 -32.5t-15 -33t-45.5 -14.5t-60.5 25t-51 67q-40 77 -60 167q-41 14 -67 42t-26 67
q0 22 14 38t36 16q53 0 75 -102h5q57 1 89.5 36t32.5 84q0 98 -66 151h-186q-69 0 -69 49q0 10 2 16h464q33 0 51.5 -12.5t18.5 -35.5q0 -8 -3 -17h-222q74 -81 74 -178z" />
    <glyph glyph-name="uni0939094D" horiz-adv-x="457" 
d="M214 490l72 -1q23 0 35.5 11t12.5 27q0 37 -38 59h-272q-70 0 -70 49q0 7 3 16h498q69 0 69 -48q0 -13 -3 -17h-169q42 -38 42 -88q0 -33 -24.5 -53.5t-67.5 -20.5l-82 1q-41 0 -63 -22t-22 -53.5t29 -65.5q52 30 131 30q136 0 244 -12q2 -2 2 -12q0 -35 -50 -35h-171
q-75 0 -123.5 -36t-48.5 -107t61.5 -115t147.5 -44q11 0 31 2q2 -4 2 -12q0 -31 -49 -31q-102 0 -181 65.5t-79 163.5q0 73 50 120q-56 56 -56 110t34 86.5t105 32.5z" />
    <glyph glyph-name="uni0915093C094D" horiz-adv-x="545" 
d="M127 88q11 11 30 11t35.5 -16t16.5 -35t-10.5 -30t-30 -11t-36 16t-16.5 35t11 30zM334 303l1 196q0 72 -11 87h-299q-69 0 -69 49q0 10 2 16h562q69 0 69 -48q0 -8 -3 -17h-207q24 -18 24 -75.5t-4 -102.5q44 58 118 58q51 0 93 -33t42 -66q0 -22 -20 -22h-5
q-25 61 -91 61q-40 0 -76 -26.5t-57 -74.5q-2 -142 -2 -216t11 -90q-11 -4 -22 -4q-57 0 -57 88q0 63 9 124q-41 -61 -114.5 -61t-130 59t-56.5 134q0 55 39.5 95t102.5 40q29 0 49 -15.5t20 -37.5q0 -5 -3 -13q-20 3 -27 3q-61 0 -91.5 -32.5t-30.5 -75.5t30 -70t70.5 -27
t76 25.5t57.5 71.5z" />
    <glyph glyph-name="uni0916093C094D" horiz-adv-x="581" 
d="M68 33q11 11 30 11t35.5 -16t16.5 -35t-10.5 -30t-30 -11t-36 16t-16.5 35t11 30zM293 417q0 -65 -41 -109t-109 -45q25 -66 87.5 -105.5t140.5 -39.5q103 0 171.5 59.5t68.5 147.5q0 44 -24.5 77.5t-66 33.5t-63 -28t-21.5 -63.5t18.5 -65t48.5 -46.5q-7 -13 -22 -13
q-38 0 -76 42.5t-38 98.5t36.5 92.5t93.5 36.5q73 0 118.5 -58t45.5 -137q0 -101 -75.5 -170t-194.5 -69q-99 0 -181 58t-117 158q-31 12 -50.5 35t-19.5 48.5t12 39t32 13.5q47 0 62 -81q48 4 74.5 37t26.5 87q0 76 -46 135h-157q-69 0 -69 49q0 10 2 16h587q32 0 50.5 -13
t18.5 -35q0 -8 -3 -17h-382q62 -78 62 -169z" />
    <glyph glyph-name="uni0917093C094D" horiz-adv-x="345" 
d="M103 99q11 11 30 11t35.5 -16t16.5 -35t-10.5 -30t-30 -11t-36 16t-16.5 35t11 30zM311 651q33 0 51.5 -12.5t18.5 -35.5q0 -8 -3 -17h-228q41 -47 65.5 -114.5t24.5 -127.5t-24 -93t-64.5 -33t-71 26.5t-30.5 63.5q0 22 13 34.5t32 12.5t36.5 -12.5t25.5 -34.5
q17 30 17 80.5t-24.5 107.5t-59.5 90h-69q-69 0 -69 49q0 10 2 16h357z" />
    <glyph glyph-name="uni091C093C094D" horiz-adv-x="452" 
d="M25 586q-69 0 -69 49q0 10 2 16h493q69 0 69 -48q0 -8 -3 -17h-492zM318 29q11 11 30 11t35.5 -16t16.5 -35t-10.5 -30t-30 -11t-36 16t-16.5 35t11 30zM493 440q69 0 69 -48q0 -8 -3 -17h-245q67 -67 67 -143q0 -53 -33.5 -84t-86.5 -31t-103 37t-79.5 87t-46.5 95
t-17 64t8 25.5t17 6.5q28 -91 76 -163q25 -39 58 -62t68 -23t55.5 21t20.5 54q0 61 -55 116h-17q-69 0 -69 49q0 10 2 16h314z" />
    <glyph glyph-name="uni0928093C094D" horiz-adv-x="327" 
d="M307 651q32 0 50.5 -13t18.5 -35q0 -8 -3 -17h-349q-70 0 -70 49q0 7 3 16h350zM86 217.5q-56 52.5 -56 106.5t37 81.5t100 27.5q152 0 281 -12q4 -6 4 -16q0 -37 -53 -37h-215q-38 0 -64 -18t-26 -50t22.5 -52.5t51.5 -20.5t47 15.5t20 38.5q4 10 2 22q24 -2 38.5 -19
t14.5 -45.5t-24 -51t-65 -22.5q-59 0 -115 52.5zM139.5 27q-16.5 16 -16.5 35t11 30t30 11t35.5 -16t16.5 -35t-10.5 -30t-30 -11t-36 16z" />
    <glyph glyph-name="uni092B093C094D" horiz-adv-x="556" 
d="M116 110q11 11 30 11t35.5 -16t16.5 -35t-10.5 -30t-30 -11t-36 16t-16.5 35t11 30zM143 497l-2 -165q0 -42 23.5 -68t61.5 -26t71.5 20.5t54.5 56.5q2 114 2 184t-11 87h-226q26 -18 26 -89zM72 356l1 152q0 62 -11 78h-39q-70 0 -70 49q0 7 3 16h591q69 0 69 -48
q0 -13 -3 -17h-216q24 -18 24 -80t-6 -107q48 62 130 62q49 0 87 -27t38 -53t-20 -28q-26 48 -85 48q-43 0 -81.5 -26.5t-61.5 -73.5q-3 -103 -3 -193.5t11 -108.5q-11 -4 -22 -4q-58 0 -58 92q0 75 5 127q-42 -37 -95 -37q-74 0 -131 58.5t-57 120.5z" />
    <glyph glyph-name="uni092F093C094D" horiz-adv-x="376" 
d="M101 88q11 11 30 11t35.5 -16t16.5 -35t-10.5 -30t-30 -11t-36 16t-16.5 35t11 30zM253 482q0 -34 -23.5 -64.5t-51 -48.5t-51 -37t-23.5 -33q0 -29 41.5 -56t98 -27t110 27.5t81.5 83.5q32 -18 32 -51q0 -43 -56 -82t-141 -39t-158.5 62.5t-73.5 120.5q0 30 76 76
q29 17 53 45t24 64t-27 63h-129q-69 0 -69 49q0 10 2 16h380q33 0 51.5 -12.5t18.5 -29.5t-4 -23h-198q37 -50 37 -104z" />
    <glyph glyph-name="uni09080902" horiz-adv-x="488" 
d="M206 492l64 -1q54 0 54 36q0 32 -34 59h-269q-69 0 -69 49q0 10 2 16h250q-28 22 -48.5 61t-20.5 88t32 82t76.5 33t72.5 -25t28 -49t-16 -27q-23 39 -68 39q-30 0 -49 -22t-19 -60q0 -73 66 -120h199q69 0 69 -48q0 -8 -3 -17h-180q44 -38 44 -85q0 -32 -26.5 -54
t-78.5 -22l-65 1q-32 0 -59 -14.5t-27 -42.5t19.5 -45t54.5 -17l68 3q64 0 116 -42.5t52 -105t-50 -100.5t-122 -38q-43 0 -82 10q52 -100 122 -100q33 0 54 21q25 -14 25 -38.5t-18 -39t-49 -14.5q-51 0 -99.5 48t-80.5 138q-94 39 -94 107q0 18 12 30.5t34.5 12.5
t41.5 -26t27 -66q29 -18 83 -18t96 24.5t42 67.5q0 29 -19.5 46.5t-55.5 17.5l-71 -3q-59 0 -112 46.5t-53 99t35.5 78.5t98.5 26zM255 783.5q9 9.5 25 9.5t29.5 -14t13.5 -30t-8.5 -25t-25 -9t-30 13.5t-13.5 29.5t9 25.5z" />
    <glyph glyph-name="uni09300941" horiz-adv-x="571" 
d="M533 651q69 0 69 -48q0 -8 -3 -17h-334q71 -78 71 -162q0 -26 -6 -44q26 14 57 14q60 0 104.5 -47.5t44.5 -99.5t-31.5 -86.5t-81.5 -34.5q-27 0 -41 14t-14 24.5t1 15.5q52 0 82.5 26.5t30.5 59t-20 51.5t-51 19t-61 -14t-52 -31.5t-55.5 -31.5t-69.5 -14h-12
q18 -81 50.5 -128.5t95.5 -47.5q22 0 34 6q7 -14 7 -32.5t-15 -33t-45.5 -14.5t-60.5 25t-51 67q-40 77 -60 167q-41 14 -67 42t-26 67q0 22 14 38t36 16q53 0 75 -102h5q57 1 89.5 36t32.5 84q0 98 -66 151h-186q-69 0 -69 49q0 10 2 16h577z" />
    <glyph glyph-name="uni09300942" horiz-adv-x="665" 
d="M479 434q67 0 114 -56t47 -122t-38.5 -105.5t-98.5 -39.5q-28 0 -48 14.5t-20 39.5q0 7 2 13q16 -4 34 -4q48 0 80 28.5t32 81.5q0 35 -21.5 66.5t-57.5 31.5q-23 0 -39 -17t-16 -41q0 -38 29 -58q-6 -15 -31.5 -15t-47 24t-21.5 64.5t29 67.5t72 27zM627 651
q69 0 69 -48q0 -8 -3 -17h-428q74 -81 74 -178q0 -73 -50 -118t-116 -45h-12q18 -81 50.5 -128.5t95.5 -47.5q22 0 34 6q7 -14 7 -32.5t-15 -33t-45.5 -14.5t-60.5 25t-51 67q-40 77 -60 167q-41 14 -67 42t-26 67q0 22 14 38t36 16q53 0 75 -102h5q57 1 89.5 36t32.5 84
q0 98 -66 151h-186q-69 0 -69 49q0 10 2 16h671z" />
    <glyph glyph-name="uni09390941" horiz-adv-x="488" 
d="M214 490l72 -1q23 0 35.5 11t12.5 27q0 37 -38 59h-272q-70 0 -70 49q0 7 3 16h498q69 0 69 -48q0 -13 -3 -17h-169q42 -38 42 -88q0 -33 -24.5 -53.5t-67.5 -20.5l-82 1q-41 0 -63 -22t-22 -52.5t26 -63.5q44 27 101 27q77 0 129 -50t52 -108q0 -38 -23.5 -65.5
t-53.5 -27.5t-46.5 13t-17.5 36q38 2 59.5 22t21.5 51t-25.5 51.5t-72.5 20.5t-92 -36t-45 -91t29 -88.5t71 -52t83.5 -37t70.5 -49.5t29 -79t-42 -81.5t-104 -33.5t-125.5 35.5t-98.5 76.5t-35 63t17 27q42 -64 99.5 -103t114.5 -39t88.5 24.5t31.5 52.5t-16 42t-39 14
q-49 0 -68 -47q-19 1 -30.5 14.5t-11.5 28.5q0 29 28 46q-73 28 -116 80t-43 121t48 117q-54 56 -54 109.5t34 86t105 32.5z" />
    <glyph glyph-name="uni09390942" horiz-adv-x="488" 
d="M214 490l72 -1q23 0 35.5 11t12.5 27q0 37 -38 59h-272q-70 0 -70 49q0 7 3 16h498q69 0 69 -48q0 -13 -3 -17h-169q42 -38 42 -88q0 -33 -24.5 -53.5t-67.5 -20.5l-82 1q-41 0 -63 -22t-22 -53t27 -63q44 27 100 27q77 0 129 -50t52 -108q0 -38 -23.5 -65.5t-53.5 -27.5
t-46.5 13t-17.5 36q38 2 59.5 22t21.5 51t-25.5 51.5t-72 20.5t-92 -36t-45.5 -89t27.5 -87.5t62.5 -52t86.5 -44.5t86.5 -57t59.5 -69t24.5 -61t-20 -26q-34 70 -91.5 120.5t-128.5 50.5q-42 0 -69.5 -23t-27.5 -49.5t13.5 -39.5t35.5 -13q43 0 63 37q18 -4 28 -16.5
t10 -31.5t-20 -35t-47 -16q-51 0 -97 42.5t-46 96.5q0 39 28 66.5t73 35.5q-54 30 -86 77t-32 111t49 113q-55 59 -55 111.5t34 85t105 32.5z" />
    <glyph glyph-name="uni09260943" horiz-adv-x="468" 
d="M200 495l68 -1q49 0 49 38q0 31 -32 54h-263q-70 0 -70 49q0 7 3 16h480q69 0 69 -48q0 -8 -3 -17h-163q41 -36 41 -82q0 -29 -24 -51.5t-81 -22.5l-54 1q-47 0 -71 -20.5t-24 -50.5t17 -56q33 14 64.5 14t53.5 -13.5t22 -38t-19.5 -37t-45.5 -12.5t-54 14
q-38 -24 -38 -65t33 -65.5t82 -24.5t91.5 23t61.5 66q17 -2 30.5 -17.5t13.5 -34.5q0 -41 -47.5 -69t-123 -28t-139.5 54t-64 115t44 98q-42 47 -42 100.5t36 82.5t99 29z" />
    <glyph glyph-name="uni09390943" horiz-adv-x="597" 
d="M214 499l112 -2q23 0 35.5 11t12.5 27q0 30 -38 51h-312q-70 0 -70 49q0 7 3 16h610q69 0 69 -48q0 -8 -3 -17h-239q40 -35 40 -73.5t-24.5 -59t-67.5 -20.5l-122 1q-41 0 -63 -22.5t-22 -52t29 -60.5q58 40 127 40t116 -37.5t47 -89.5q0 -19 -16 -52t-16 -50
q0 -38 40 -38q28 0 56.5 26t41.5 80q20 -1 33 -14.5t13 -33.5q0 -42 -32.5 -72.5t-82.5 -30.5t-88 35t-38 74q0 21 15.5 54t15.5 50.5t-17 31t-48 13.5q-71 0 -127 -45t-56 -125.5t62.5 -131.5t150.5 -51q19 0 28 1q1 -2 1 -11q0 -31 -49 -31q-100 0 -180 72t-80 181
q0 74 53 129q-59 55 -59 108t34 85.5t105 32.5z" />
    <glyph glyph-name="uni094D0930" horiz-adv-x="0" 
d="M-387 -141q0 31 69 84t110 53t120.5 -66.5t79.5 -94.5q0 -15 -16 -21q-54 54 -101 86.5t-67.5 32.5t-65.5 -32t-96 -86q-33 13 -33 44z" />
    <glyph glyph-name="uni0930094D.1" horiz-adv-x="297" 
d="M264 651q69 0 69 -48q0 -13 -3 -17h-307q-70 0 -70 49q0 7 3 16h308zM371 355q0 -34 -39.5 -55t-100.5 -21t-119 30.5t-58 62.5q0 15 14 24q51 -51 137.5 -51t147.5 46q18 -14 18 -36z" />
    <glyph glyph-name="uni0930094D.2" horiz-adv-x="0" 
d="M-134 847q-24 0 -42 -19.5t-18 -56t21 -69t50 -53.5q-5 -14 -21 -14q-30 0 -68 51t-38 107t30 87.5t75 31.5t75.5 -35t30.5 -71.5t-28 -36.5q-11 78 -67 78z" />
    <glyph glyph-name="uni0930094D0902" horiz-adv-x="0" 
d="M-122 853q-30 0 -49 -22t-19 -60.5t20.5 -71t48.5 -50.5q-5 -14 -21 -14q-30 0 -67.5 50t-37.5 107t32 90t76.5 33t72.5 -25t28 -49t-16 -27q-23 39 -68 39zM-67.5 724q-8.5 -9 -25 -9t-30 13.5t-13.5 29.5t9 25.5t25 9.5t29.5 -14t13.5 -30t-8.5 -25z" />
    <glyph glyph-name="uni0930094D.aMatraI" horiz-adv-x="0" 
d="M-12 941.5q-17 -21.5 -17 -60.5t23 -86t23 -53q0 -14 -17 -19q-28 33 -54.5 88.5t-26.5 105.5t28 80t71.5 30t72 -34.5t28.5 -71.5t-27 -37q-11 79 -63 79q-24 0 -41 -21.5z" />
    <glyph glyph-name="uni0902.aMatraI" horiz-adv-x="0" 
d="M93 792.5q-13 -13.5 -36.5 -13.5t-43.5 20t-20 42.5t13.5 36t36 13.5t43 -20t20.5 -42.5t-13 -36z" />
    <glyph glyph-name="uni0930094D0902.aMatraI" horiz-adv-x="0" 
d="M99 815q-9 -9 -25.5 -9t-30 14t-13.5 29.5t9 25t25 9.5t30 -14t14 -30t-9 -25zM-11.5 943.5q-17.5 -21.5 -17.5 -61.5t23 -87t23 -53q0 -14 -17 -19q-28 33 -54.5 88.5t-26.5 105.5t28 80t67 30t65 -27t26 -53t-19 -30q-6 20 -20.5 34t-37 14t-40 -21.5z" />
    <glyph glyph-name="uni09400930094D" 
d="M98 92l4 412q0 47 -4 82h-77q-69 0 -69 49q0 10 2 16h136q-19 97 -60.5 150t-98.5 53q-31 0 -51.5 -20.5t-20.5 -52.5t28 -65q-6 -7 -17 -7q-29 0 -52 30.5t-23 74t31 73t79 29.5q97 0 174 -108q3 40 29 62.5t65.5 22.5t67.5 -32.5t28 -67t-27 -34.5q-11 74 -63 74
q-24 0 -41 -18t-17 -40.5t4.5 -38.5t13 -41t13.5 -44h85q33 0 51.5 -12.5t18.5 -29.5t-4 -23h-137q6 -38 6 -84l-4 -417q0 -68 11 -86q-11 -4 -22 -4q-59 0 -59 97z" />
    <glyph glyph-name="uni09400902" 
d="M263 767.5q-13 -13.5 -36.5 -13.5t-43.5 20t-20 42.5t13.5 36t36 13.5t43 -20t20.5 -42.5t-13 -36zM98 92l4 412q0 47 -4 82h-77q-69 0 -69 49q0 10 2 16h136q-19 97 -60.5 150t-98.5 53q-31 0 -51.5 -20.5t-20.5 -52.5t28 -65q-6 -7 -17 -7q-29 0 -52 30.5t-23 74t31 73
t79 29.5q81 0 148.5 -75.5t98.5 -189.5h85q33 0 51.5 -12.5t18.5 -29.5t-4 -23h-137q6 -42 6 -84l-4 -417q0 -68 11 -86q-11 -4 -22 -4q-59 0 -59 97z" />
    <glyph glyph-name="uni09400930094D0902" 
d="M98 92l4 412q0 47 -4 82h-77q-69 0 -69 49q0 10 2 16h136q-19 97 -60.5 150t-98.5 53q-31 0 -51.5 -20.5t-20.5 -52.5t28 -65q-6 -7 -17 -7q-29 0 -52 30.5t-23 74t31 73t79 29.5q99 0 176 -110q2 44 29.5 73t66.5 29t62.5 -21t23.5 -46q0 -10 -7 -19q-24 28 -58.5 28
t-55 -23t-20.5 -48.5t4 -43t12.5 -44.5t12.5 -40h86q33 0 51.5 -12.5t18.5 -29.5t-4 -23h-137q6 -36 6 -84l-4 -417q0 -68 11 -86q-11 -4 -22 -4q-59 0 -59 97zM184.5 784q8.5 9 24.5 9t30 -14t14 -29.5t-9 -25t-25 -9.5t-29.5 14t-13.5 30t8.5 25z" />
    <glyph glyph-name="uni0940.aLong" 
d="M98 92l4 412q0 42 -9 82h-72q-69 0 -69 49q0 10 2 16h119q-38 91 -114.5 147t-176.5 56q-54 0 -84.5 -24.5t-30.5 -58t24 -54.5q-5 -8 -18 -8q-31 0 -53 29.5t-22 63.5q0 49 39 81.5t108 32.5q123 0 231 -76.5t160 -188.5h101q33 0 51.5 -12.5t18.5 -29.5t-4 -23h-143
q12 -42 12 -84l-4 -417q0 -68 11 -86q-11 -4 -22 -4q-59 0 -59 97z" />
    <glyph glyph-name="uni09400930094D.aLong" 
d="M98 92l4 412q0 42 -9 82h-72q-69 0 -69 49q0 10 2 16h119q-38 91 -114.5 147t-176.5 56q-54 0 -84.5 -24.5t-30.5 -58t24 -54.5q-5 -8 -18 -8q-31 0 -53 29.5t-22 63.5q0 49 39 81.5t108 32.5q164 0 293 -129q-1 8 -1 23q0 42 27 72t72.5 30t75.5 -35t30 -71.5t-28 -36.5
q-11 78 -67 78q-24 0 -41.5 -19.5t-17.5 -44.5t5 -42t9.5 -27t16 -32.5t15.5 -30.5h103q33 0 51.5 -12.5t18.5 -29.5t-4 -23h-143q12 -41 12 -84l-4 -417q0 -68 11 -86q-11 -4 -22 -4q-59 0 -59 97z" />
    <glyph glyph-name="uni09400902.aLong" 
d="M250 771.5q-13 -13.5 -36.5 -13.5t-43.5 20t-20 42.5t13.5 36t36 13.5t43 -20t20.5 -42.5t-13 -36zM98 92l4 412q0 42 -9 82h-72q-69 0 -69 49q0 10 2 16h119q-38 91 -114.5 147t-176.5 56q-54 0 -84.5 -24.5t-30.5 -58t24 -54.5q-5 -8 -18 -8q-31 0 -53 29.5t-22 63.5
q0 49 39 81.5t108 32.5q123 0 231 -76.5t160 -188.5h101q33 0 51.5 -12.5t18.5 -29.5t-4 -23h-143q12 -42 12 -84l-4 -417q0 -68 11 -86q-11 -4 -22 -4q-59 0 -59 97z" />
    <glyph glyph-name="uni09400930094D0902.aLong" 
d="M98 92l4 412q0 42 -9 82h-72q-69 0 -69 49q0 10 2 16h119q-38 91 -114.5 147t-176.5 56q-54 0 -84.5 -24.5t-30.5 -58t24 -54.5q-5 -8 -18 -8q-31 0 -53 29.5t-22 63.5q0 49 39 81.5t113.5 32.5t150.5 -34.5t136 -92.5q-1 4 -1 14q0 48 30 81t73.5 33t72 -25.5t28.5 -49
t-14 -28.5q-25 39 -68 39q-30 0 -49.5 -22.5t-19.5 -59.5t32 -95q9 -17 13 -25h103q33 0 51.5 -12.5t18.5 -29.5t-4 -23h-142q11 -38 11 -84l-4 -417q0 -68 11 -86q-11 -4 -22 -4q-59 0 -59 97zM152 783.5q9 9.5 25 9.5t30 -14t14 -30t-9 -25t-25 -9t-30 13.5t-14 29.5
t9 25.5z" />
    <glyph glyph-name="uni09470930094D" horiz-adv-x="0" 
d="M-197 795q0 42 27 67t67 25t68.5 -32.5t28.5 -66.5t-27 -34q-13 74 -64 74q-24 0 -41 -19t-17 -47t15 -66t15 -47q0 -25 -24 -25q-16 39 -38.5 80.5t-62 84t-75.5 42.5t-52 -37q-20 4 -31.5 20t-11.5 38t18.5 38.5t55 16.5t77.5 -32t72 -82v2z" />
    <glyph glyph-name="uni09470902" horiz-adv-x="0" 
d="M-325 831q-36 0 -52 -37q-20 4 -31.5 20t-11.5 38t18.5 38.5t55.5 16.5t81.5 -36t73.5 -82.5t47.5 -86.5t18.5 -53q0 -25 -24 -25q-16 39 -38.5 80.5t-62 84t-75.5 42.5zM-11 765.5q-13 -13.5 -36.5 -13.5t-43.5 20t-20 42.5t13.5 36t36 13.5t43 -20t20.5 -42.5t-13 -36z
" />
    <glyph glyph-name="uni09470901" horiz-adv-x="0" 
d="M16.5 817.5q-10.5 -10.5 -29 -10.5t-34 15.5t-15.5 33.5t10.5 28.5t28.5 10.5t34 -15.5t16 -33.5t-10.5 -28.5zM-127 812q40 -49 114 -49t103 56q15 -2 25 -14t10 -27q0 -29 -35.5 -47.5t-87.5 -18.5t-97 27.5t-45 52.5q0 12 13 20zM-325 831q-36 0 -52 -37
q-20 4 -31.5 20t-11.5 38t18.5 38.5t55.5 16.5t81.5 -36t73.5 -82.5t47.5 -86.5t18.5 -53q0 -25 -24 -25q-16 39 -38.5 80.5t-62 84t-75.5 42.5z" />
    <glyph glyph-name="uni09470930094D0902" horiz-adv-x="0" 
d="M-94 783.5q9 9.5 25 9.5t30 -14t14 -30t-9 -25t-25.5 -9t-30 13.5t-13.5 29.5t9 25.5zM-196 791q0 48 29 79t68.5 31t62.5 -21t23 -46q0 -12 -7 -19q-24 28 -58 28t-54.5 -22.5t-20.5 -55t14 -71t14 -45.5q0 -25 -24 -25q-16 39 -38.5 80.5t-62 84t-75.5 42.5t-52 -37
q-20 4 -31.5 20t-11.5 38t18.5 38.5t55 16.5t78 -33t72.5 -84v1z" />
    <glyph glyph-name="uni09480930094D" horiz-adv-x="0" 
d="M-127 759l6 -87q0 -43 -29 -48q-41 52 -93 95t-100 43t-59 -52q-20 0 -36 16t-16 42t22 43.5t54 17.5q59 0 119 -44.5t104 -102.5q-10 65 -30.5 115t-42 70.5t-47 20.5t-39.5 -23q-26 15 -26 41t17.5 42t42.5 16q44 0 77 -37.5t51 -95.5q7 25 26.5 40.5t51 15.5t57 -26.5
t25.5 -55.5q0 -11 -6.5 -20t-18.5 -9q-9 52 -55 52q-23 0 -39 -18.5t-16 -50.5z" />
    <glyph glyph-name="uni09480902" horiz-adv-x="0" 
d="M-280 964q40 0 72 -31.5t50 -78.5q37 -98 37 -182q0 -43 -29 -48q-41 52 -93 95t-100 43t-59 -52q-20 0 -36 16t-16 42t22 43.5t54 17.5q59 0 119 -44.5t104 -102.5q-10 65 -30.5 115t-42 70.5t-47 20.5t-39.5 -23q-26 15 -26 41t17.5 42t42.5 16zM-74.5 838.5
q13.5 13.5 36 13.5t43 -20t20.5 -42.5t-13 -36t-36.5 -13.5t-43.5 20t-20 42.5t13.5 36z" />
    <glyph glyph-name="uni09480901" horiz-adv-x="0" 
d="M48.5 817.5q-10.5 -10.5 -28.5 -10.5t-34 15.5t-16 33.5t11 28.5t28.5 10.5t33.5 -15.5t16 -33.5t-10.5 -28.5zM-280 964q40 0 72 -31.5t50 -78.5q37 -98 37 -182q0 -43 -29 -48q-41 52 -93 95t-100 43t-59 -52q-20 0 -36 16t-16 42t22 43.5t54 17.5q59 0 119 -44.5
t104 -102.5q-10 65 -30.5 115t-42 70.5t-47 20.5t-39.5 -23q-26 15 -26 41t17.5 42t42.5 16zM158 778q0 -29 -36 -47.5t-87.5 -18.5t-96.5 27.5t-45 52.5q0 12 12 20q40 -49 109 -49q34 0 64 14t45 42q15 -2 25 -14t10 -27z" />
    <glyph glyph-name="uni09480930094D0902" horiz-adv-x="0" 
d="M-69 783.5q9 9.5 25 9.5t30 -14t14 -30t-9 -25t-25.5 -9t-30 13.5t-13.5 29.5t9 25.5zM-128 765l7 -93q0 -43 -29 -48q-41 52 -93 95t-100 43t-59 -52q-20 0 -36 16t-16 42t22 43.5t54 17.5q59 0 119 -44.5t104 -102.5q-10 65 -30.5 115t-42 70.5t-47 20.5t-39.5 -23
q-26 15 -26 41t17.5 42t42.5 16q43 0 75 -35.5t51 -91.5q9 29 31.5 46.5t55.5 17.5t56 -21t23 -46q0 -12 -7 -19q-26 28 -60 28t-53.5 -22.5t-19.5 -55.5z" />
    <glyph glyph-name="uni094B0930094D" 
d="M98 92l4 407q0 72 -11 87h-70q-69 0 -69 49q0 10 2 16h158q-32 69 -75.5 124.5t-84 55.5t-56.5 -37q-20 4 -31.5 20t-11.5 38t18.5 38.5t55 16.5t77.5 -32t72 -82v2q0 42 27 67t67 25t68.5 -32.5t28.5 -66.5t-27 -34q-13 74 -64 74q-24 0 -41 -19t-17 -47t14.5 -65.5
t15.5 -45.5h89q33 0 51.5 -12.5t18.5 -29.5t-4 -23h-157q26 -18 26 -89l-4 -412q0 -68 11 -86q-11 -4 -22 -4q-59 0 -59 97z" />
    <glyph glyph-name="uni094B0902" 
d="M262 765.5q-13 -13.5 -36.5 -13.5t-43.5 20t-20 42.5t13.5 36t36 13.5t43 -20t20.5 -42.5t-13 -36zM98 92l4 407q0 72 -11 87h-70q-69 0 -69 49q0 10 2 16h158q-32 69 -75.5 124.5t-84 55.5t-56.5 -37q-20 4 -31.5 20t-11.5 38t18.5 38.5t55 16.5t80 -34.5t73 -80
t48 -85.5t20.5 -56h89q33 0 51.5 -12.5t18.5 -29.5t-4 -23h-157q26 -18 26 -89l-4 -412q0 -68 11 -86q-11 -4 -22 -4q-59 0 -59 97z" />
    <glyph glyph-name="uni094B0930094D0902" 
d="M98 92l4 407q0 72 -11 87h-70q-69 0 -69 49q0 10 2 16h158q-32 69 -75.5 124.5t-84 55.5t-56.5 -37q-20 4 -31.5 20t-11.5 38t18.5 38.5t55 16.5t78 -33t72.5 -84v1q0 48 29 79t68.5 31t62.5 -21t23 -46q0 -12 -7 -19q-24 28 -58 28t-54.5 -22.5t-20.5 -55t14 -71
t14 -43.5h89q33 0 51.5 -12.5t18.5 -29.5t-4 -23h-157q26 -18 26 -89l-4 -412q0 -68 11 -86q-11 -4 -22 -4q-59 0 -59 97zM179 783.5q9 9.5 25 9.5t30 -14t14 -30t-9 -25t-25.5 -9t-30 13.5t-13.5 29.5t9 25.5z" />
    <glyph glyph-name="uni094C0930094D" 
d="M149 759l6 -87q0 -14 -1 -21h83q33 0 51.5 -12.5t18.5 -29.5t-4 -23h-157q26 -18 26 -89l-4 -412q0 -68 11 -86q-11 -4 -22 -4q-59 0 -59 97l4 407q0 72 -11 87h-70q-69 0 -69 49q0 10 2 16h149q-97 111 -168 111q-50 0 -61 -52q-20 0 -36 16t-16 42t22 43.5t54 17.5
q59 0 119 -44.5t104 -102.5q-10 65 -30.5 115t-42 70.5t-47 20.5t-39.5 -23q-26 15 -26 41t17.5 42t42.5 16q44 0 77 -37.5t51 -95.5q7 25 26.5 40.5t51 15.5t57 -26.5t25.5 -55.5q0 -11 -6.5 -20t-18.5 -9q-9 52 -55 52q-23 0 -39 -18.5t-16 -50.5z" />
    <glyph glyph-name="uni094C0902" 
d="M289 753.5q-13 -13.5 -36.5 -13.5t-43.5 20t-20 42.5t13.5 36t36 13.5t43 -20t20.5 -42.5t-13 -36zM98 92l4 407q0 72 -11 87h-70q-69 0 -69 49q0 10 2 16h149q-97 111 -168 111q-50 0 -61 -52q-20 0 -36 16t-16 42t22 43.5t54 17.5q59 0 119 -44.5t104 -102.5
q-10 65 -30.5 115t-42 70.5t-47 20.5t-39.5 -23q-26 15 -26 41t17.5 42t42.5 16q40 0 72 -31.5t50 -78.5q37 -98 37 -182q0 -14 -1 -21h83q33 0 51.5 -12.5t18.5 -29.5t-4 -23h-157q26 -18 26 -89l-4 -412q0 -68 11 -86q-11 -4 -22 -4q-59 0 -59 97z" />
    <glyph glyph-name="uni094C0930094D0902" 
d="M148 765l7 -93q0 -14 -1 -21h83q33 0 51.5 -12.5t18.5 -29.5t-4 -23h-157q26 -18 26 -89l-4 -412q0 -68 11 -86q-11 -4 -22 -4q-59 0 -59 97l4 407q0 72 -11 87h-70q-69 0 -69 49q0 10 2 16h149q-97 111 -168 111q-50 0 -61 -52q-20 0 -36 16t-16 42t22 43.5t54 17.5
q59 0 119 -44.5t104 -102.5q-10 65 -30.5 115t-42 70.5t-47 20.5t-39.5 -23q-26 15 -26 41t17.5 42t42.5 16q43 0 75 -35.5t51 -91.5q9 29 31.5 46.5t55.5 17.5t56 -21t23 -46q0 -12 -7 -19q-26 28 -60 28t-53.5 -22.5t-19.5 -55.5zM211.5 728.5q-13.5 13.5 -13.5 29.5
t9 25.5t25 9.5t30 -14t14 -30t-9 -25t-25.5 -9t-30 13.5z" />
    <glyph glyph-name="uni0915094D0937" horiz-adv-x="723" 
d="M164 513q0 -55 62 -95q44 26 67 49.5t23 56.5t-19.5 54t-51.5 21t-56.5 -23.5t-24.5 -62.5zM557 423l1 76q0 46 -7 63t-31 32.5t-24 40.5q0 7 3 16h193q33 0 51.5 -12.5t18.5 -29.5t-4 -23h-160q29 -18 29 -89l-4 -412q0 -68 11 -86q-11 -4 -22 -4q-59 0 -59 97
q0 135 8 252q-59 -28 -143 -28t-163 34q-79 -45 -102 -68q-37 -36 -37 -81.5t33.5 -75t82 -29.5t81.5 16q-12 19 -12 41t16 38t40 16t42 -20t18 -55t-32 -62q44 -62 44 -114q0 -31 -17.5 -50t-40 -19t-38 12t-19.5 33q24 1 38.5 16t14.5 43t-17 59q-32 -13 -69 -13
q-87 0 -159.5 55.5t-72.5 135.5q0 60 43 100q32 31 90 65q-85 66 -85 144q0 57 36 88t89.5 31t106 -46t52.5 -111.5t-73 -115.5q38 -9 69 -9q109 0 180 49z" />
    <glyph glyph-name="uni0915094D0937094D" horiz-adv-x="499" 
d="M164 513q0 -55 62 -95q44 26 67 49.5t23 56.5t-19.5 54t-51.5 21t-56.5 -23.5t-24.5 -62.5zM154 282q-38 -36 -38 -81.5t33.5 -75t82 -29.5t81.5 16q-12 19 -12 41t16 38t40 16t42 -20t18 -55t-32 -62q44 -62 44 -114q0 -31 -17.5 -50t-40 -19t-38 12t-19.5 33
q24 1 38.5 16t14.5 43t-17 59q-32 -13 -69 -13q-87 0 -159.5 55.5t-72.5 135.5q0 57 35.5 93.5t98.5 71.5q-86 65 -86 144q0 57 36 88t89.5 31t106 -46t52.5 -111.5t-73 -115.5q38 -9 69 -9q141 0 228 71q21 -17 21 -40q0 -38 -60.5 -63.5t-146 -25.5t-163.5 35
q-79 -46 -102 -69z" />
    <glyph glyph-name="uni0915094D0937094D092E" horiz-adv-x="1009" 
d="M627.5 535.5q5.5 -37.5 5.5 -98t-1 -79.5q134 -2 207 -9q1 47 1 133.5t-11 103.5h-224q17 -13 22.5 -50.5zM164 513q0 -58 46 -104q52 28 79 54t27 60t-19.5 55t-51.5 21t-56.5 -23.5t-24.5 -62.5zM910 497l-4 -412q0 -70 11 -86q-11 -4 -23 -4q-58 0 -58 97q0 60 2 200
h-210q-12 -91 -54 -91q-30 0 -58.5 26.5t-37.5 57.5q-21 -4 -50 -4q-109 0 -198 55q-55 -32 -84.5 -62t-29.5 -74.5t33.5 -74t82 -29.5t81.5 16q-12 19 -12 41t16 38t40 16t42 -20t18 -55t-32 -62q44 -62 44 -114q0 -31 -17.5 -50t-40 -19t-38 12t-19.5 33q24 1 38.5 16
t14.5 43t-17 59q-32 -13 -69 -13q-87 0 -159.5 55.5t-72.5 135.5q0 53 31.5 88.5t87.5 68.5q-71 71 -71 152q0 57 36 88t89.5 31t106 -46t52.5 -111q0 -44 -26.5 -74.5t-75.5 -60.5q54 -23 98.5 -23t98.5 8.5t86 8.5q2 44 2 66q0 144 -14 162h-69q-70 0 -70 49q0 7 3 16h561
q69 0 69 -48q0 -8 -3 -17h-157q26 -18 26 -89z" />
    <glyph glyph-name="uni0915094D0937094D092E094D" horiz-adv-x="757" 
d="M164 513q0 -58 46 -104q52 28 79 54t27 60t-19.5 55t-51.5 21t-56.5 -23.5t-24.5 -62.5zM628.5 535.5q5.5 -37.5 5.5 -98.5t-1 -80q117 -2 210 -12q3 -5 3 -15q0 -38 -53 -38h-164q-12 -91 -54 -91q-30 0 -58.5 26.5t-37.5 57.5q-32 -4 -51 -4q-109 0 -198 55
q-55 -32 -84.5 -62t-29.5 -74.5t33.5 -74t82 -29.5t81.5 16q-12 19 -12 41t16 38t40 16t42 -20t18 -55t-32 -62q44 -62 44 -114q0 -31 -17.5 -50t-40 -19t-38 12t-19.5 33q24 1 38.5 16t14.5 43t-17 59q-32 -13 -69 -13q-87 0 -159.5 55.5t-72.5 135.5q0 53 31.5 88.5
t87.5 68.5q-71 71 -71 152q0 57 36 88t89.5 31t106 -46t52.5 -111q0 -44 -26.5 -74.5t-75.5 -60.5q54 -23 98.5 -23t99 8.5t86.5 8.5q2 44 2 66q0 144 -14 162h-94q-69 0 -69 49q0 11 3 16h343q69 0 69 -48q0 -13 -3 -17h-194q17 -13 22.5 -50.5z" />
    <glyph glyph-name="uni0915094D0937094D092E094D092F" horiz-adv-x="1329" 
d="M997 482q0 -34 -23 -64.5t-51 -48.5q-74 -48 -74 -70q0 -29 41.5 -56t93.5 -27t98 18.5t74 57.5q3 97 3 184.5t-13 109.5h-185q36 -49 36 -104zM628 536q5 -37 5 -98t-1 -81q92 -2 154 -7q9 23 82 70q26 17 47 43t21 61t-27 62h-303q17 -13 22 -50zM164 513
q0 -58 46 -104q52 28 79 54t27 60t-19.5 55t-51.5 21t-56.5 -23.5t-24.5 -62.5zM1228 497l-4 -412q0 -68 11 -86q-11 -4 -22 -4q-56 0 -56 90q0 56 7 118q-60 -48 -138 -48t-141.5 42t-89.5 95h-167q-10 -91 -53 -91q-30 0 -58.5 26.5t-37.5 57.5q-32 -4 -51 -4
q-109 0 -198 55q-55 -32 -84.5 -62t-29.5 -74.5t33.5 -74t82 -29.5t81.5 16q-12 19 -12 41t16 38t40 16t42 -20t18 -55t-32 -62q44 -62 44 -114q0 -31 -17.5 -50t-40 -19t-38 12t-19.5 33q24 1 38.5 16t14.5 43t-17 59q-32 -13 -69 -13q-87 0 -159.5 55.5t-72.5 135.5
q0 53 31.5 88.5t87.5 68.5q-71 71 -71 152q0 57 36 88t89.5 31t106 -46t52.5 -111q0 -44 -26.5 -74.5t-75.5 -60.5q54 -23 98.5 -23t99 8.5t86.5 8.5q2 44 2 66q0 144 -14 162h-70q-70 0 -70 49q0 7 3 16h880q69 0 69 -48q0 -13 -3 -17h-158q26 -18 26 -89z" />
    <glyph glyph-name="uni0915094D0937094D092F" horiz-adv-x="1038" 
d="M707 482q0 -34 -23 -64.5t-51 -48.5q-74 -48 -74 -70q0 -29 41.5 -56t93 -27t97.5 18.5t74 56.5q3 97 3 185t-13 110h-185q37 -50 37 -104zM164 513q0 -61 46 -105q53 30 79.5 55t26.5 59.5t-19.5 55.5t-51.5 21t-56.5 -23.5t-24.5 -62.5zM938 497l-4 -412q0 -70 11 -86
q-11 -4 -23 -4q-56 0 -56 90q0 59 8 118q-60 -48 -139.5 -48t-143.5 43.5t-89 98.5q-37 -12 -88 -12q-97 0 -183 51q-56 -32 -85.5 -61.5t-29.5 -74.5t33.5 -74.5t82 -29.5t81.5 16q-12 19 -12 41t16 38t40 16t42 -20t18 -55t-32 -62q44 -62 44 -114q0 -31 -17.5 -50
t-40 -19t-38 12t-19.5 33q24 1 38.5 16t14.5 43t-17 59q-32 -13 -69 -13q-87 0 -159.5 55.5t-72.5 135.5q0 53 31.5 88.5t87.5 68.5q-71 73 -71 152q0 57 36 88t89.5 31t106 -46t52.5 -111q0 -44 -27 -75t-76 -60q44 -19 96.5 -19t92 12.5t75.5 37.5t52 37.5t33.5 36.5
t17.5 57t-27 60h-120q-70 0 -70 49q0 7 3 16h572q33 0 51.5 -12.5t18.5 -35.5q0 -8 -3 -17h-158q26 -18 26 -89z" />
    <glyph glyph-name="uni0915094D0937094D0935" horiz-adv-x="995" 
d="M164 513q0 -58 48 -103q51 28 77.5 53.5t26.5 59.5t-19.5 55t-51.5 21t-56.5 -23.5t-24.5 -62.5zM895 497l-4 -412q0 -70 11 -86q-4 -4 -23 -4q-57 0 -57 88q0 60 9 120q-43 -57 -120 -57t-137 53.5t-68 128.5q-46 -32 -122.5 -32t-150.5 41q-57 -32 -87 -62t-30 -75
t33.5 -74.5t82 -29.5t81.5 16q-12 19 -12 41t16 38t40 16t42 -20t18 -55t-32 -62q44 -62 44 -114q0 -31 -17.5 -50t-40 -19t-38 12t-19.5 33q24 1 38.5 16t14.5 43t-17 59q-32 -13 -69 -13q-87 0 -159.5 55.5t-72.5 135.5q0 53 31.5 88.5t87.5 68.5q-71 71 -71 152
q0 57 36 88t89.5 31t106 -46t52.5 -111q0 -43 -25.5 -73.5t-71.5 -58.5q39 -14 74.5 -14t69 14t59 34.5t50.5 40.5q59 49 122 49q41 0 65 -15.5t24 -41.5q0 -13 -6 -22q-32 13 -60 13q-54 0 -86 -33t-32 -80.5t32.5 -77t78 -29.5t85.5 27t63 76q2 120 2 190.5t-11 87.5h-316
q-70 0 -70 49q0 7 3 16h529q69 0 69 -48q0 -8 -3 -17h-157q26 -18 26 -89z" />
    <glyph glyph-name="uni091C094D091E" horiz-adv-x="663" 
d="M139 167l17 -1q53 0 82.5 29.5t29.5 72.5q0 72 -62 118h-35q-69 0 -69 49q0 10 2 16h390v48q0 70 -11 87h-461q-70 0 -70 49q0 7 3 16h674q69 0 69 -48q0 -8 -3 -17h-157q26 -18 26 -89l-5 -412q0 -68 11 -86q-9 -4 -22 -4q-58 0 -58 97l3 294h-229q68 -62 68 -136
t-46.5 -111.5t-109.5 -37.5q-14 0 -22 1q19 -50 56 -82.5t85 -32.5q26 0 47 9q8 -16 8 -34t-15 -32.5t-41 -14.5q-67 0 -113 60t-70 136q-36 12 -59 34.5t-23 47.5t12.5 38.5t31.5 13.5q45 0 66 -78z" />
    <glyph glyph-name="uni091C094D091E094D" horiz-adv-x="409" 
d="M411 651q69 0 69 -48q0 -8 -3 -17h-470q-69 0 -69 49q0 11 3 16h470zM523 423q0 -36 -44 -37h-229q68 -62 68 -136t-46.5 -111.5t-110.5 -37.5q-14 0 -20 1q18 -50 55 -82.5t85 -32.5q25 0 47 9q8 -16 8 -34t-15 -32.5t-46 -14.5t-62.5 19t-53.5 51q-43 62 -62 126
q-36 12 -59 34.5t-23 47.5t12.5 38.5t31.5 13.5q46 0 65 -77q10 -2 18 -2q52 0 82 29.5t30 72.5q0 71 -63 118h-35q-69 0 -69 49q0 7 3 16h405q28 -6 28 -28z" />
    <glyph glyph-name="uni091C094D091E094D092F" horiz-adv-x="981" 
d="M650 482q0 -34 -23 -64.5t-51 -48.5q-74 -48 -74 -70q0 -29 41.5 -56t93 -27t97.5 18.5t74 56.5q3 97 3 184.5t-12 110.5h-185q36 -49 36 -104zM881 497l-4 -412q0 -70 11 -86q-11 -4 -22 -4q-57 0 -57 90q0 59 8 118q-60 -48 -144 -48q-56 0 -107.5 25.5t-85.5 64.5
q-49 57 -72.5 80.5t-60.5 42t-82 18.5h-15q68 -62 68 -136t-46.5 -111.5t-110.5 -37.5q-14 0 -20 1q18 -50 55 -82.5t85 -32.5q25 0 47 9q8 -16 8 -34t-15 -32.5t-46 -14.5t-62.5 19t-53.5 51q-43 62 -62 126q-36 12 -59 34.5t-23 47.5t12.5 38.5t31.5 13.5q46 0 65 -77
q10 -2 18 -2q52 0 82 29.5t30 72.5q0 71 -63 118h-35q-69 0 -69 49q0 7 3 16h154q119 0 199 -94q10 16 48.5 41.5t68 55t29.5 67.5t-27 65h-555q-69 0 -69 49q0 11 3 16h1006q69 0 69 -48q0 -8 -3 -17h-158q26 -18 26 -89z" />
    <glyph glyph-name="uni0915094D0928" horiz-adv-x="742" 
d="M334 303l1 196q0 72 -11 87h-299q-69 0 -69 49q0 10 2 16h749q69 0 69 -48q0 -13 -3 -17h-394q24 -18 24 -75t-4 -102q43 57 112.5 57t126.5 -59t57 -134q0 -55 -39.5 -95t-102.5 -40q-29 0 -49 15.5t-20 37.5q0 8 2 13q22 -3 29 -3q60 0 90.5 32.5t30.5 75.5t-30 70
t-70.5 27t-76 -26.5t-56.5 -74.5q-2 -140 -2 -215t11 -91q-11 -4 -22 -4q-57 0 -57 88q0 57 8 123q-16 -21 -42.5 -39.5t-58 -36.5t-34 -19.5t-6 -3.5t-6.5 -4q23 -40 23 -61.5t-16.5 -34t-46 -12.5t-59 22.5t-29.5 51.5q0 41 113 95q-56 11 -97 61t-41 109.5t39.5 99.5
t102.5 40q29 0 49 -15.5t20 -37.5q0 -5 -3 -13q-21 3 -28 3q-60 0 -90.5 -32.5t-30.5 -75.5t30 -70t70.5 -27t76 25.5t57.5 71.5z" />
    <glyph glyph-name="uni0916094D0928" horiz-adv-x="780" 
d="M293 417q0 -65 -41 -109t-109 -45q25 -66 87.5 -105.5t140.5 -39.5q103 0 171.5 59.5t68.5 147.5q0 44 -24.5 77.5t-66 33.5t-63 -28t-21.5 -63.5t18.5 -65t48.5 -46.5q-7 -13 -22 -13q-38 0 -76 42.5t-38 98.5t36.5 92.5t98.5 36.5t110 -56v62q0 73 -12 90h-369
q62 -78 62 -169zM681 497l-5 -412q0 -68 11 -86q-9 -4 -22 -4q-55 0 -55 85q0 45 6 81q-38 -53 -116.5 -90.5t-252.5 -92.5q9 -27 9 -48q0 -46 -48 -46q-34 0 -65.5 27t-31.5 57.5t41.5 47.5t114.5 32.5t92 19.5q-92 7 -162 59t-104 145q-31 12 -50.5 35t-19.5 48.5t12 39
t32 13.5q47 0 62 -81q48 4 74.5 37t26.5 87q0 76 -46 135h-157q-69 0 -69 49q0 10 2 16h786q69 0 69 -48q0 -8 -3 -17h-157q26 -18 26 -89z" />
    <glyph glyph-name="uni0917094D0928" horiz-adv-x="567" 
d="M467 497l-4 -412q0 -70 11 -86q-11 -4 -22 -4q-58 0 -58 89q0 70 8 128l-162 -106q21 -39 21 -59.5t-16 -32.5t-45.5 -12t-59.5 22t-30 50q0 32 56 68q51 32 122.5 69.5t106.5 56.5q2 142 2 222.5t-11 95.5h-231q39 -39 62 -92t23 -105.5t-24 -84.5t-64.5 -32t-71 27
t-30.5 64q0 21 13 34t32 13t36.5 -13t25.5 -35q17 27 17 68.5t-22.5 85t-55.5 70.5h-75q-69 0 -69 49q0 10 2 16h578q33 0 51.5 -12.5t18.5 -29.5t-4 -23h-157q26 -18 26 -89z" />
    <glyph glyph-name="uni0918094D0928" horiz-adv-x="612" 
d="M123 486q0 -38 23 -70q38 23 74.5 23t58.5 -14t22 -38t-19.5 -36.5t-46 -12.5t-56.5 11q-35 -26 -35 -72t34.5 -73t86.5 -27t102 28.5t73 73.5q3 102 3 196t-11 111h-266q-43 -38 -43 -100zM512 497l-4 -412q0 -68 11 -86q-11 -4 -22 -4q-57 0 -57 86q0 59 7 107
q-19 -23 -46.5 -39.5t-86.5 -41.5t-90 -40q17 -37 17 -58.5t-15.5 -33t-44 -11.5t-59 24.5t-30.5 52.5q0 51 144 94q-64 14 -109 62t-45 101.5t33 91.5q-53 51 -53 118q0 44 24 82q-36 -4 -69 -4q-65 0 -65 49q0 10 2 16h623q33 0 51.5 -12.5t18.5 -35.5q0 -8 -3 -17h-158
q26 -18 26 -89z" />
    <glyph glyph-name="uni091A094D0928" horiz-adv-x="608" 
d="M508 497l-4 -412q0 -70 11 -86q-5 -4 -23 -4q-56 0 -56 87q0 71 9 122q-17 -23 -38 -38l-28 -20t-24 -16.5t-26 -17.5q-20 -12 -66 -41q23 -40 23 -62t-16 -34t-44.5 -12t-59.5 22.5t-31 48t35 51t114 65.5q-66 5 -117 55.5t-51 118.5q0 49 39 82q-49 -7 -81 -7
q-77 0 -77 50q0 9 3 14h266q69 0 69 -48q0 -4 -4 -16h-40q-54 0 -86.5 -30.5t-32.5 -73.5t33 -69.5t79.5 -26.5t87.5 27t64 81q2 120 2 191t-11 88h-425q-69 0 -69 49q0 11 3 16h637q69 0 69 -48q0 -13 -3 -17h-157q26 -18 26 -89z" />
    <glyph glyph-name="uni091B094D0928" horiz-adv-x="657" 
d="M128 468q0 -40 19 -72q36 17 68.5 17t55.5 -14t23 -38t-18 -36t-45 -12t-58 13q-43 -27 -43 -81t47.5 -88.5t119.5 -34.5t132 34q-3 50 -38.5 124t-35.5 119t24 79.5t64 40.5q-2 53 -12 67h-234q-69 -39 -69 -118zM553 364q0 42 -18 70t-49.5 28t-50.5 -25.5t-19 -60.5
t9 -63.5t27 -64.5t25 -56q76 71 76 172zM426 -196l1 102h-169q-2 -45 -13.5 -66.5t-40.5 -21.5t-57 34.5t-28 66t22.5 42t70.5 10.5q115 0 216 -13q2 38 2 120q-50 -16 -100 -16q-98 0 -179.5 60.5t-81.5 147.5q0 61 43 102q-46 51 -46 114.5t36 102.5q-41 -3 -80 -3
q-66 0 -66 49q0 11 3 16h663q69 0 69 -48q0 -13 -3 -17h-205q23 -17 25 -75q47 -19 74 -68.5t27 -104.5q0 -150 -114 -227q2 -22 2 -34l-4 -279q0 -68 10 -84q-9 -5 -20 -5q-57 0 -57 95z" />
    <glyph glyph-name="uni091C094D0928" horiz-adv-x="678" 
d="M40 460q68 -205 178 -205q33 0 53.5 21t20.5 55t-29 70h-17q-69 0 -69 49q0 10 2 16h329v33q0 72 -11 87h-472q-69 0 -69 49q0 10 2 16h685q69 0 69 -48q0 -13 -3 -17h-157q26 -18 26 -89l-4 -412q0 -70 11 -86q-11 -4 -22 -4q-57 0 -57 85q0 59 7 100l-160 -96
q19 -35 19 -56t-16 -33t-45 -12t-59.5 22.5t-30.5 49.5q0 21 29 44q32 24 69 43t60 30.5t61 29.5t66 32q2 54 2 167h-194q37 -46 37 -98.5t-33.5 -83.5t-83.5 -31t-93.5 31.5t-69.5 74t-41 81t-15 55.5t8 23.5t17 6.5z" />
    <glyph glyph-name="uni091D094D0928" horiz-adv-x="862" 
d="M693 364l1 135q0 73 -11 87h-322q44 -38 44 -85q0 -33 -26.5 -54.5t-78.5 -21.5l-83 1q-32 0 -59 -14t-27 -41t19.5 -43t54.5 -16l75 3q22 0 86 -7t106 -7q153 0 221 63zM206 492l82 -1q54 0 54 38q0 30 -34 57h-287q-69 0 -69 49q0 10 2 16h874q32 0 50.5 -13t18.5 -35
q0 -8 -3 -17h-157q26 -18 26 -89l-5 -431q0 -67 12 -86q-15 -4 -23 -4q-56 0 -56 89q0 51 9 102l-98 -66q24 -43 24 -64.5t-15.5 -33t-44 -11.5t-58.5 21.5t-30 48.5q0 16 10 31t41 36q46 31 94 57t51.5 28t9 5t10.5 6q2 44 4 64q-76 -44 -185 -44q-49 0 -109 10
q37 -42 37 -98.5t-50 -94.5t-122 -38q-43 0 -82 10q52 -100 122 -100q33 0 54 21q25 -14 25 -38.5t-18 -39t-49 -14.5q-51 0 -99.5 48t-80.5 138q-42 17 -68 44.5t-26 62.5q0 18 12 30.5t34.5 12.5t41.5 -26t27 -66q29 -18 83 -18t96 24.5t42 67.5q0 31 -19.5 49.5
t-55.5 18.5l-71 -3q-58 0 -111.5 45.5t-53.5 97t35.5 77.5t98.5 26z" />
    <glyph glyph-name="uni091F094D0928" horiz-adv-x="449" 
d="M361 109l-3 -226q0 -64 11 -80q-9 -5 -20 -5q-54 0 -54 91q0 26 2 110h-129q-3 -46 -14 -68t-40.5 -22t-57 34.5t-27.5 66t22.5 42t80.5 10.5t166 -9v57q0 33 -3 57q-28 -5 -53 -5q-79 0 -147.5 51.5t-68.5 122.5q0 43 25 73t61 45t72.5 26.5t61.5 27t25 39t-26 39.5
h-221q-70 0 -70 49q0 7 3 16h454q32 0 50.5 -13t18.5 -35q0 -8 -3 -17h-178q31 -28 31 -62t-24.5 -56t-60 -35l-71 -26t-60 -37t-24.5 -61.5t35 -64t89.5 -26.5t101.5 31t58 86q21 -1 36 -15.5t15 -40t-21 -52t-58 -43.5q15 -19 15 -75z" />
    <glyph glyph-name="uni0920094D0928" horiz-adv-x="486" 
d="M334.5 243q45.5 30 45.5 72t-42.5 71t-112.5 38q-6 -3 -21.5 -9.5t-22.5 -9.5t-20.5 -10t-20 -11.5t-17 -11.5t-15.5 -13.5t-10 -14.5q-11 -17 -11 -38q0 -43 42 -68t101 -25t104.5 30zM369 109l-3 -226q0 -64 10 -80q-8 -5 -19 -5q-55 0 -55 91q0 26 2 110h-129
q-3 -46 -14 -68t-40 -22t-57 35t-28 66t22.5 41.5t80.5 10.5t166 -9v57q0 36 -2 51q-21 -4 -51 -4q-86 0 -157.5 53.5t-71.5 123.5q0 37 24.5 65t59.5 44.5t70 30.5q84 34 84 70q0 26 -26 42h-214q-69 0 -69 49q0 10 2 16h495q69 0 69 -48q0 -13 -3 -17h-225q33 -30 33 -68
t-46 -67q79 -14 124 -58t45 -97q0 -81 -89 -119q12 -20 12 -68z" />
    <glyph glyph-name="uni0921094D0928" horiz-adv-x="476" 
d="M199 514l87 -1q50 0 50 30q0 24 -28 43h-284q-70 0 -70 49q0 7 3 16h504q69 0 69 -48q0 -13 -3 -17h-166q37 -30 37 -67q0 -22 -14 -38q-28 -30 -91 -30l-70 1q-36 0 -66 -11.5t-30 -37.5q0 -47 74 -47l102 5q64 0 106.5 -41t42.5 -87q0 -61 -68 -92q11 -21 11 -68
l-3 -204q0 -64 10 -80q-8 -5 -19 -5q-54 0 -54 90q0 28 2 112h-129q-3 -46 -14 -68t-40.5 -22t-57 34.5t-27.5 66t22.5 42t80.5 10.5t166 -9v34q0 36 -2 51q-20 -3 -40 -3q-70 0 -135.5 26.5t-100.5 59t-35 53t17 27.5q77 -101 223 -101q54 0 95.5 18.5t41.5 52.5
q0 18 -14 29t-41 11l-105 -6q-59 0 -112.5 39t-53.5 93q0 42 34.5 66t94.5 24z" />
    <glyph glyph-name="uni0924094D0928" horiz-adv-x="622" 
d="M523 497l-4 -412q0 -70 11 -86q-11 -4 -22 -4q-59 0 -59 95q0 112 12 194l-109 -66q18 -36 18 -55q0 -43 -54 -43q-34 0 -63 21.5t-29 49.5t45 55t109.5 56t72.5 33l1 34h-196q-133 0 -133 -112q0 -60 28.5 -122.5t76.5 -109.5q-6 -15 -24.5 -15t-55 40.5t-66 107
t-29.5 132t47.5 105t120.5 39.5t232 -14v79q0 72 -11 87h-418q-70 0 -70 49q0 7 3 16h630q33 0 51.5 -12.5t18.5 -29.5t-4 -23h-156q26 -18 26 -89z" />
    <glyph glyph-name="uni0925094D0928" horiz-adv-x="619" 
d="M520 497l-4 -412q0 -70 11 -86q-11 -4 -23 -4q-56 0 -56 90q0 55 7 118q-19 -19 -48 -35.5t-80.5 -41.5t-88.5 -46q20 -35 20 -55.5t-16.5 -33t-45 -12.5t-59 22.5t-30.5 49.5q0 48 147 104q-81 7 -144 58.5t-63 103.5q0 43 113 87q43 17 78.5 49t35.5 66.5t-18.5 54
t-49 19.5t-52 -22.5t-21.5 -58.5t26 -60q-6 -4 -14 -4q-30 0 -52.5 30t-22.5 73t32 72.5t77 29.5q60 0 107 -49.5t47 -111.5q0 -46 -34 -82t-75 -54q-108 -48 -108 -74q0 -28 41 -53t93.5 -25t106.5 22.5t90 68.5q3 192 3 221t-6.5 46t-25.5 29q-29 18 -29 44q0 11 3 16h193
q69 0 69 -48q0 -8 -3 -17h-160q29 -18 29 -89z" />
    <glyph glyph-name="uni0926094D0928" horiz-adv-x="476" 
d="M433 651q32 0 50.5 -13t18.5 -35q0 -8 -3 -17h-141q26 -28 26 -62.5t-29 -58t-70 -38t-82.5 -30.5t-70.5 -46t-29 -78.5t44 -78t97.5 -29.5t91.5 18q-17 27 -17 51.5t14.5 40.5t38.5 16t39 -21t15 -52t-23 -61q77 -65 77 -130q0 -26 -16.5 -44.5t-42.5 -18.5
q-38 0 -51 33q43 11 43 49.5t-38 82.5q-28 -25 -127 -91q23 -43 23 -63.5t-16 -32.5t-44.5 -12t-59.5 22.5t-31 49t35 52.5t113 64h-7q-86 0 -154.5 55.5t-68.5 128.5q0 44 21 77.5t53 52t69 34.5t69 25.5t53 24.5t21 35.5t-18 34.5h-283q-69 0 -69 49q0 11 3 16h476z" />
    <glyph glyph-name="uni0927094D0928" horiz-adv-x="600" 
d="M501 497l-5 -412q0 -68 11 -86q-11 -4 -22 -4q-57 0 -57 87q0 61 8 107q-19 -23 -46.5 -39.5t-86.5 -41.5t-91 -41q17 -37 17 -58.5t-15.5 -33t-44 -11.5t-59 24.5t-30.5 52.5q0 51 140 93q-63 14 -106 60.5t-43 99.5t32 90q-53 50 -53 117q0 52 37 89q-51 -4 -82 -4
q-65 0 -65 49q0 11 3 16h222q69 0 69 -48q0 -13 -3 -17h-18q-47 0 -74.5 -32.5t-27.5 -72.5t22 -71q36 24 73 24t59.5 -14t22.5 -38t-19.5 -36.5t-46 -12.5t-56.5 11q-33 -29 -33 -72t33.5 -69t86.5 -26t102.5 28t72.5 74q3 204 3 235t-7 48t-30.5 32.5t-23.5 40.5
q0 10 2 16h194q69 0 69 -48q0 -8 -3 -17h-161q30 -19 30 -89z" />
    <glyph glyph-name="uni0928094D0928" horiz-adv-x="534" 
d="M363 330l1 168q0 72 -11 88h-329q-70 0 -70 49q0 7 3 16h542q69 0 69 -48q0 -13 -3 -17h-157q26 -18 26 -89l-4 -412q0 -70 11 -86q-11 -4 -22 -4q-58 0 -58 93.5t9 162.5l-176 -98q23 -41 23 -63t-17 -34.5t-46 -12.5t-60 22.5t-31 50.5q0 37 65 77t211 102
q-68 71 -167 94q-14 -77 -61 -77q-32 0 -55 29.5t-23 61t21 49.5t56 18q61 0 131.5 -41.5t121.5 -98.5z" />
    <glyph glyph-name="uni092A094D0928" horiz-adv-x="550" 
d="M379 317l1 182q0 72 -11 87h-251q26 -18 26 -89l-1 -169q0 -42 23 -68t64 -26t81 22t68 61zM450 497l-4 -412q0 -70 11 -86q-11 -4 -22 -4q-59 0 -59 85.5t8 146.5q-18 -18 -46 -36q-48 -31 -135 -86q24 -42 24 -63.5t-16 -33.5t-45 -12t-59.5 22.5t-30.5 48.5t32.5 52.5
t110.5 63.5q-61 15 -103 65.5t-42 104.5v154q0 63 -11 79h-40q-70 0 -70 49q0 7 3 16h559q69 0 69 -48q0 -13 -3 -17h-157q26 -18 26 -89z" />
    <glyph glyph-name="uni092B094D0928" horiz-adv-x="768" 
d="M143 497l-2 -165q0 -41 24 -67.5t60.5 -26.5t70.5 20.5t56 57.5q2 114 2 183.5t-11 86.5h-226q26 -18 26 -89zM72 356l1 152q0 62 -11 78h-39q-70 0 -70 49q0 7 3 16h785q33 0 51.5 -12.5t18.5 -35.5q0 -8 -3 -17h-411q24 -18 24 -80t-6 -107q47 62 123 62t133.5 -60.5
t57.5 -137.5q0 -58 -41.5 -99t-107.5 -41q-29 0 -51.5 16t-22.5 40q0 5 2 15q27 -5 37 -5q65 0 95 33t30 77.5t-31 73t-73.5 28.5t-80.5 -25t-63 -69q-3 -108 -3 -199t11 -109q-11 -4 -22 -4q-58 0 -58 87t6 142q-19 -21 -49 -42t-116 -77q23 -40 23 -62t-16 -34t-45 -12
t-59.5 22.5t-30.5 49t33.5 53t115.5 66.5q-60 16 -100 67.5t-40 100.5z" />
    <glyph glyph-name="uni092C094D0928" horiz-adv-x="541" 
d="M97 316q0 -51 35 -82.5t79.5 -31.5t81.5 20l-160 178q-36 -33 -36 -84zM370 305l1 194q0 70 -11 87h-338q-70 0 -70 49q0 7 3 16h551q69 0 69 -48q0 -13 -3 -17h-157q26 -18 26 -89l-4 -412q0 -70 11 -86q-4 -4 -22 -4q-58 0 -58 88q0 70 12 126q-15 -21 -45.5 -43
t-60.5 -40t-32 -19.5t-5 -3t-6 -3.5q23 -43 23 -63.5t-16 -32.5t-45 -12t-59.5 22.5t-30.5 49.5q0 43 110 90q-73 8 -124 65t-51 125.5t45.5 111.5t113.5 43q44 0 70.5 -17t26.5 -43q0 -13 -6 -22q-30 15 -63.5 15t-58.5 -11l158 -177q29 26 46 61z" />
    <glyph glyph-name="uni092D094D0928" horiz-adv-x="614" 
d="M514 497l-4 -412q0 -68 11 -86q-11 -4 -22 -4q-56 0 -56 85q0 58 7 99l-161 -91q19 -35 19 -55.5t-16 -32.5t-45 -12t-59.5 22.5t-30.5 49.5q0 30 55 62q48 27 121 61t109 52l1 70h-207q-8 -88 -54 -88q-35 0 -67 33.5t-32 65.5q0 53 86 55q2 36 2 61q0 161 -63 161
q-22 0 -33.5 -17.5t-11.5 -50.5t22 -61q-6 -4 -15 -4q-28 0 -48 32.5t-20 71t21.5 63.5t59.5 25q67 0 110.5 -81t45.5 -200q132 -2 205 -9q1 44 1 125.5t-11 98.5h-70q-69 0 -69 49q0 10 2 16h283q32 0 50.5 -13t18.5 -35q0 -8 -3 -17h-158q26 -18 26 -89z" />
    <glyph glyph-name="uni092E094D0928" horiz-adv-x="589" 
d="M212 418v-43q117 -2 206 -9q1 42 1 123.5t-11 96.5h-224q18 -13 23 -50t5 -118zM142 375l1 49q0 146 -14 162h-108q-69 0 -69 49q0 10 2 16h600q69 0 69 -48q0 -13 -3 -17h-157q26 -18 26 -89l-4 -412q0 -70 11 -86q-11 -4 -22 -4q-57 0 -57 85q0 57 7 99l-160 -92
q19 -33 19 -54t-16 -33t-45 -12t-59.5 22.5t-30.5 49.5q0 30 56 62q47 27 120 61t109 52l1 74h-211q-10 -88 -56 -88q-34 0 -65 33.5t-31 64.5q0 54 87 56z" />
    <glyph glyph-name="uni092F094D0928" horiz-adv-x="584" 
d="M253 482q0 -34 -23.5 -64.5t-51 -48.5t-51 -37t-23.5 -33q0 -29 41.5 -56t93.5 -27t98 18.5t74 57.5q3 97 3 184.5t-13 109.5h-185q37 -50 37 -104zM483 497l-4 -412q0 -68 11 -86q-11 -4 -22 -4q-56 0 -56 90q0 58 7 120q-14 -13 -35 -25.5t-62.5 -36.5t-78.5 -47
q22 -41 22 -62.5t-16.5 -34t-45.5 -12.5t-60 23t-31 51q0 47 126 104q-80 9 -140 65t-60 108q0 30 76 76q29 17 53 45t24 64t-27 63h-129q-69 0 -69 49q0 10 2 16h581q69 0 69 -48q0 -13 -3 -17h-158q26 -18 26 -89z" />
    <glyph glyph-name="uni0935094D0928" horiz-adv-x="538" 
d="M438 497l-4 -412q0 -68 11 -86q-4 -4 -22 -4q-57 0 -57 88q0 71 9 125q-18 -24 -43.5 -42t-35.5 -25q-44 -29 -76 -51q23 -41 23 -62t-16 -33t-45 -12t-59.5 22.5t-30.5 49.5q0 49 119 104q-68 9 -115.5 63t-47.5 123t46.5 107.5t96 38.5t75 -15.5t25.5 -41.5
q0 -12 -5 -22q-32 13 -61 13q-54 0 -86 -33.5t-32 -80.5t33 -76.5t78.5 -29.5t85.5 27t63 77q2 120 2 189t-12 88h-332q-69 0 -69 49q0 10 2 16h545q33 0 51.5 -12.5t18.5 -29.5t-4 -23h-157q26 -18 26 -89z" />
    <glyph glyph-name="uni0936094D0928" horiz-adv-x="671" 
d="M163 513q0 -63 69 -115q78 57 78 120q0 31 -19.5 54t-53 23t-54 -24t-20.5 -58zM572 497l-4 -412q0 -70 11 -86q-11 -4 -23 -4q-57 0 -57 85t8 149l-175 -110q23 -40 23 -62.5t-16 -34.5t-45.5 -12t-60.5 22.5t-31 53.5t56 68.5t187 103.5q-109 31 -184 70
q-46 -31 -96 -50.5t-77 -19.5q-58 0 -60 56q80 11 161 57q-98 71 -98 160q0 54 35.5 88t91.5 34t105 -49.5t49 -116t-73 -130.5q79 -39 201 -70q2 130 2 194t-6.5 81t-25.5 29q-29 18 -29 44q0 11 3 16h193q69 0 69 -48q0 -8 -3 -17h-160q29 -18 29 -89z" />
    <glyph glyph-name="uni0938094D0928" horiz-adv-x="775" 
d="M333 429q0 -17 -1 -25q41 27 97 27q81 0 174 -95q2 102 2 168.5t-11 81.5h-329q68 -73 68 -157zM675 497l-4 -412q0 -70 11 -86q-11 -4 -22 -4q-59 0 -59 95q0 61 9 175l-124 -61q14 -34 14 -54.5t-13.5 -31.5t-40.5 -11t-58 24t-31 52.5t48 55.5t166 67q-66 57 -134 57
q-43 0 -77.5 -18.5t-54.5 -40.5t-54.5 -40.5t-77.5 -18.5h-12q18 -81 50.5 -128.5t95.5 -47.5q22 0 34 6q7 -14 7 -32.5t-15 -33t-45.5 -14.5t-60.5 25t-51 67q-40 77 -60 167q-41 14 -67 42t-26 67q0 22 14 38t36 16q53 0 75 -102h5q57 1 89.5 36t32.5 84q0 99 -67 151
h-185q-69 0 -69 49q0 10 2 16h784q69 0 69 -48q0 -13 -3 -17h-157q26 -18 26 -89z" />
    <glyph glyph-name="uni0939094D0928" horiz-adv-x="559" 
d="M214 497l143 -1q23 0 35.5 11t12.5 27q0 29 -38 52h-343q-70 0 -70 49q0 7 3 16h572q67 0 67 -48q0 -8 -3 -17h-168q40 -35 40 -74.5t-24.5 -60t-67.5 -20.5l-153 1q-41 0 -63 -22t-22 -53t30 -61q57 39 139 39t147 -62.5t65 -136.5l-1 -62q0 -60 11 -77q-9 -4 -20 -4
q-51 0 -51 86l1 81q0 18 -4 31l-97 -61q20 -40 20 -58.5t-15.5 -30t-42 -11.5t-55.5 21t-29 48t47.5 58.5t146.5 79.5q-35 40 -104.5 40t-122 -45t-52.5 -126.5t64 -135t152 -53.5q21 0 31 2q2 -4 2 -12q0 -31 -49 -31q-103 0 -185 74.5t-82 184.5q0 79 54 135
q-60 56 -60 109t34 85.5t105 32.5z" />
    <glyph glyph-name="uni0915094D0930" horiz-adv-x="742" 
d="M334 303l1 196q0 72 -11 87h-299q-69 0 -69 49q0 10 2 16h749q69 0 69 -48q0 -13 -3 -17h-394q24 -18 24 -75t-4 -102q43 57 112.5 57t126.5 -59t57 -134q0 -55 -39.5 -95t-102.5 -40q-29 0 -49 15.5t-20 37.5q0 8 2 13q22 -3 30 -3q59 0 89.5 32.5t30.5 75.5t-30 70
t-70.5 27t-76 -26.5t-56.5 -74.5q-2 -140 -2 -215t11 -91q-11 -4 -22 -4q-57 0 -57 88q0 65 9 128q-41 -57 -115 -113t-113 -56q-22 0 -37.5 12t-18.5 34q73 23 147 71q-64 2 -114 55t-50 125q0 55 39.5 95t102.5 40q29 0 49 -15.5t20 -37.5q0 -5 -3 -13q-18 2 -28 2
q-61 0 -91 -32.5t-30 -75t30 -69.5t70.5 -27t76 25.5t57.5 71.5z" />
    <glyph glyph-name="uni0916094D0930" horiz-adv-x="780" 
d="M293 417q0 -65 -41 -109t-109 -45q25 -66 87.5 -105.5t140.5 -39.5q103 0 171.5 59.5t68.5 147.5q0 44 -24.5 77.5t-66 33.5t-63 -28t-21.5 -63.5t18.5 -65t48.5 -46.5q-7 -13 -22 -13q-38 0 -76 42.5t-38 98.5t36.5 92.5t98.5 36.5t110 -56v62q0 73 -12 90h-369
q62 -78 62 -169zM167 -26q-71 0 -71 54q0 5 1 11h21q114 0 240 29q-89 5 -159.5 56.5t-105.5 147.5q-31 12 -50.5 35t-19.5 48.5t12 39t32 13.5q47 0 62 -81q48 4 74.5 37t26.5 87q0 76 -46 135h-157q-69 0 -69 49q0 10 2 16h786q69 0 69 -48q0 -8 -3 -17h-157
q26 -18 26 -89l-5 -412q0 -68 11 -86q-9 -4 -22 -4q-55 0 -55 85q0 49 7 86q-39 -58 -138.5 -105t-184 -67t-127.5 -20z" />
    <glyph glyph-name="uni0917094D0930" horiz-adv-x="567" 
d="M467 497l-4 -412q0 -70 11 -86q-11 -4 -22 -4q-58 0 -58 89q0 76 9 130q-67 -60 -145 -108t-117 -48q-22 0 -38 14t-19 38q72 17 158.5 70.5t152.5 108.5q2 130 2 206t-11 91h-231q39 -39 62 -92t23 -105.5t-24 -84.5t-64.5 -32t-71 27t-30.5 64q0 21 13 34t32 13
t36.5 -13t25.5 -35q17 27 17 68.5t-22.5 85t-55.5 70.5h-75q-69 0 -69 49q0 10 2 16h578q33 0 51.5 -12.5t18.5 -29.5t-4 -23h-157q26 -18 26 -89z" />
    <glyph glyph-name="uni0918094D0930" horiz-adv-x="612" 
d="M123 486q0 -38 23 -70q38 23 74.5 23t58.5 -14t22 -38t-19.5 -36.5t-46 -12.5t-56.5 11q-35 -26 -35 -72t34.5 -73t87 -27t100.5 28.5t75 76.5q2 134 2 210.5t-11 93.5h-266q-43 -38 -43 -100zM512 497l-4 -412q0 -68 11 -86q-11 -4 -22 -4q-57 0 -57 86q0 61 8 109
q-57 -68 -159.5 -128t-147.5 -60q-24 0 -41 14t-19 38q87 16 211 76h-12q-78 0 -138 52.5t-60 111t33 96.5q-53 51 -53 118q0 44 24 82q-36 -4 -69 -4q-65 0 -65 49q0 10 2 16h623q33 0 51.5 -12.5t18.5 -35.5q0 -8 -3 -17h-158q26 -18 26 -89z" />
    <glyph glyph-name="uni0919094D0930" horiz-adv-x="550" 
d="M149.5 -55q69.5 53 110.5 53t120.5 -66.5t79.5 -94.5q0 -14 -17 -21q-29 31 -84 75t-80 44t-70 -32t-95 -86q-34 13 -34 44t69.5 84zM440.5 416.5q12.5 12.5 34.5 12.5t41.5 -19t19.5 -41t-12.5 -35t-35 -13t-41.5 19t-19 41.5t12.5 35zM329 249l-95 -6q-60 0 -114 44
t-54 99t34.5 82.5t90 27.5t90.5 -1q49 0 49 39q0 29 -30 52h-276q-70 0 -70 49q0 7 3 16h554q69 0 69 -48q0 -13 -3 -17h-224q39 -37 39 -81q0 -29 -24 -51.5t-80 -22.5l-70 1q-37 0 -66 -14.5t-29 -45.5t20.5 -46.5t54.5 -15.5l94 5q67 0 113.5 -47.5t46.5 -103t-45 -91
t-106.5 -35.5t-114.5 16.5t-88.5 40t-57.5 48.5t-22 42.5t17 22.5q81 -104 225 -104q54 0 94 22t40 63q0 27 -17 43.5t-48 16.5z" />
    <glyph glyph-name="uni091A094D0930" horiz-adv-x="608" 
d="M508 497l-4 -412q0 -70 11 -86q-5 -4 -23 -4q-56 0 -56 87q0 68 8 121q-53 -61 -151 -124.5t-144 -63.5q-22 0 -37.5 14t-18.5 38q90 20 199 83h-2q-68 2 -121 53t-53 121q0 49 39 82q-49 -7 -81 -7q-77 0 -77 50q0 9 3 14h266q69 0 69 -48q0 -4 -4 -16h-40
q-54 0 -86.5 -30.5t-32.5 -73.5t33 -69.5t79.5 -26.5t87.5 27t64 81q2 120 2 191t-11 88h-425q-69 0 -69 49q0 11 3 16h637q69 0 69 -48q0 -13 -3 -17h-157q26 -18 26 -89z" />
    <glyph glyph-name="uni091B094D0930" horiz-adv-x="657" 
d="M216.5 -32q69.5 53 110.5 53t120.5 -66.5t79.5 -94.5q0 -14 -17 -21q-29 31 -84 75t-80 44t-70 -32t-95 -86q-34 13 -34 44t69.5 84zM128 468q0 -40 19 -72q35 18 69.5 18t57 -14t22.5 -38.5t-18.5 -36.5t-46.5 -12t-58 14q-43 -29 -43 -82.5t47.5 -88t114.5 -34.5
q119 0 189.5 74.5t70.5 167.5q0 42 -17 70t-48.5 28t-49.5 -27t-18 -64q0 -56 47 -105q-5 -9 -17 -9q-28 0 -59 46t-31 94t23 81.5t61 40.5q-2 53 -12 67h-234q-69 -39 -69 -118zM622 651q69 0 69 -48q0 -13 -3 -17h-205q23 -16 25 -75q47 -19 74 -68t27 -105
q0 -122 -79 -199t-200 -77q-98 0 -179.5 60.5t-81.5 147.5q0 62 43 102q-46 53 -46 115.5t36 101.5q-41 -3 -80 -3q-66 0 -66 49q0 11 3 16h663z" />
    <glyph glyph-name="uni091C094D0930" horiz-adv-x="678" 
d="M40 458q68 -205 178 -205q33 0 53.5 20.5t20.5 56t-31 71.5h-15q-69 0 -69 49q0 10 2 16h329v33q0 72 -11 87h-472q-69 0 -69 49q0 10 2 16h685q69 0 69 -48q0 -13 -3 -17h-157q26 -18 26 -89l-4 -412q0 -70 11 -86q-11 -4 -22 -4q-57 0 -57 84q0 70 9 115
q-63 -60 -142.5 -110.5t-120.5 -50.5q-22 0 -38 13.5t-19 37.5q71 17 159 70.5t152 107.5q2 46 2 139h-196q39 -46 39 -99.5t-33.5 -84.5t-83.5 -31t-93.5 31.5t-69.5 74t-41 81t-15 55.5t8 23.5t17 6.5z" />
    <glyph glyph-name="uni091D094D0930" horiz-adv-x="836" 
d="M666 364l1 135q0 70 -11 87h-295q44 -38 44 -85q0 -33 -26.5 -54.5t-78.5 -21.5l-83 1q-32 0 -59 -14t-27 -41t19.5 -43t54.5 -16l75 3q25 0 86 -7t101 -7q135 0 199 63zM206 492l82 -1q54 0 54 38q0 30 -34 57h-287q-69 0 -69 49q0 10 2 16h847q69 0 69 -48
q0 -13 -3 -17h-157q26 -18 26 -89l-4 -412q0 -68 11 -86q-11 -4 -22 -4q-55 0 -55 84q0 29 6 85q-40 -55 -82.5 -93.5t-77 -38.5t-48.5 40q88 40 204 166q0 24 3 50q-66 -43 -164 -43q-47 0 -102 10q36 -45 36 -100t-50 -93t-122 -38q-43 0 -82 10q52 -100 122 -100
q33 0 54 21q25 -14 25 -38.5t-18 -39t-49 -14.5q-51 0 -99.5 48t-80.5 138q-42 17 -68 44.5t-26 62.5q0 18 12 30.5t34.5 12.5t41.5 -26t27 -66q29 -18 83 -18t96 24.5t42 67.5q0 31 -19.5 49.5t-55.5 18.5l-71 -3q-58 0 -111.5 45.5t-53.5 97t35.5 77.5t98.5 26z" />
    <glyph glyph-name="uni091E094D0930" horiz-adv-x="689" 
d="M589 497l-4 -412q0 -70 11 -86q-11 -4 -23 -4q-56 0 -56 86q0 70 9 115q-66 -62 -144.5 -111t-118.5 -49q-22 0 -38.5 14t-19.5 37q72 17 158 68.5t154 105.5l1 47q-15 -3 -45.5 -3t-57.5 10q-10 -49 -51 -77.5t-91.5 -28.5t-92.5 20.5t-71.5 50.5t-51.5 64
q-44 66 -44 96.5t24 30.5q80 -196 209 -196q54 0 85 29.5t31 64.5t-19.5 57t-53.5 22q-50 0 -76 -49q-35 12 -35 42.5t24 48.5t57 18q60 0 104.5 -42t52.5 -105q18 -2 26 -2q45 0 77 19v121q0 70 -11 87h-487q-69 0 -69 49q0 10 2 16h701q32 0 50.5 -13t18.5 -35
q0 -8 -3 -17h-158q26 -18 26 -89z" />
    <glyph glyph-name="uni091F094D0930" horiz-adv-x="445" 
d="M106 -20q69 53 103 53t83 -33t86.5 -71.5t37.5 -54.5t-16 -22q-54 54 -101 86.5t-67.5 32.5t-65.5 -32t-96 -86q-33 13 -33 43.5t69 83.5zM411 651q32 0 50.5 -13t18.5 -35q0 -8 -3 -17h-177q33 -31 33 -70.5t-25 -66.5t-60.5 -45t-71.5 -37.5t-61 -50.5t-25 -76t39 -78
t93 -33t98.5 32t53.5 86q21 -1 36 -15.5t15 -38.5q0 -46 -49.5 -82.5t-126.5 -36.5t-150.5 57.5t-73.5 135.5q0 49 25.5 86.5t61.5 59.5t72 40t61.5 39t25.5 48.5t-27 45.5h-220q-70 0 -70 49q0 7 3 16h454z" />
    <glyph glyph-name="uni0920094D0930" horiz-adv-x="486" 
d="M122 -36q69 53 110 53t120.5 -66.5t79.5 -94.5q0 -13 -16 -21q-30 31 -84.5 75.5t-79.5 44.5t-70 -32t-96 -86q-33 12 -33 43t69 84zM335.5 153.5q46.5 39.5 46.5 96.5t-41.5 97t-113.5 50q-75 -42 -99 -66q-39 -40 -39 -95t41.5 -88.5t100 -33.5t105 39.5zM452 651
q69 0 69 -48q0 -8 -3 -17h-226q34 -32 34 -78t-52 -82q81 -17 128 -73.5t47 -127t-55.5 -119t-139.5 -48.5t-156.5 61.5t-72.5 146.5q0 48 24.5 85.5t59.5 60t71 40.5q84 45 84 86q0 30 -27 48h-213q-70 0 -70 49q0 7 3 16h495z" />
    <glyph glyph-name="uni0921094D0930" horiz-adv-x="472" 
d="M130.5 -55q69.5 53 110.5 53t120.5 -66.5t79.5 -94.5q0 -14 -17 -21q-29 31 -84 75t-80 44t-70 -32t-95 -86q-34 13 -34 44t69.5 84zM329 249l-95 -6q-60 0 -114 44t-54 99t34.5 82.5t90 27.5t90.5 -1q49 0 49 39q0 29 -30 52h-276q-70 0 -70 49q0 7 3 16h504
q69 0 69 -48q0 -13 -3 -17h-174q39 -37 39 -81q0 -29 -24 -51.5t-80 -22.5l-70 1q-37 0 -66 -14.5t-29 -45.5t20.5 -46.5t54.5 -15.5l94 5q67 0 113.5 -47.5t46.5 -103t-45 -91t-106.5 -35.5t-114.5 16.5t-88.5 40t-57.5 48.5t-22 42.5t17 22.5q81 -104 225 -104q54 0 94 22
t40 63q0 27 -17 43.5t-48 16.5z" />
    <glyph glyph-name="uni0922094D0930" horiz-adv-x="479" 
d="M134 -48q69 53 103 53t83 -33t86.5 -71.5t37.5 -54.5t-16 -22q-54 54 -101 86.5t-67.5 32.5t-65.5 -32t-96 -86q-33 13 -33 43.5t69 83.5zM445 651q69 0 69 -48q0 -13 -3 -17h-175q31 -33 31 -70t-28.5 -62t-69.5 -42t-82.5 -35.5t-70 -52t-28.5 -88t49.5 -95
t109.5 -40.5t101 30.5t41 78.5q0 28 -16 43.5t-39.5 15.5t-41.5 -17q-28 -28 -12 -82q-8 -4 -24 -4t-32.5 17.5t-16.5 53t29.5 59.5t77.5 24t92.5 -40t44.5 -98.5t-48.5 -97t-131 -38.5t-164.5 65t-82 155q0 47 21 84t52 57.5t68 38.5t68 30q73 27 73 65q0 26 -28 45h-259
q-69 0 -69 49q0 10 2 16h492z" />
    <glyph glyph-name="uni0923094D0930" horiz-adv-x="730" 
d="M135 406q0 -115 91 -115q93 0 93 146q0 103 -22 149h-188q24 -18 26 -74v-106zM631 497l-4 -412q0 -70 11 -86q-11 -4 -23 -4q-57 0 -57 84t9 135q-66 -59 -144.5 -108t-118.5 -49q-22 0 -38 14t-19 38q72 17 159.5 70.5t152.5 108.5q2 130 2 205.5t-11 92.5h-211
q22 -32 34.5 -85t12.5 -102q0 -85 -36 -123.5t-100.5 -38.5t-124 52.5t-59.5 121.5v101q-2 61 -11 74h-34q-69 0 -69 49q0 10 2 16h742q69 0 69 -48q0 -8 -3 -17h-157q26 -18 26 -89z" />
    <glyph glyph-name="uni0924094D0930" horiz-adv-x="512" 
d="M412 497l-4 -412q0 -70 11 -86q-11 -4 -22 -4q-59 0 -59 88.5t12 172.5q-59 -58 -124 -103t-110 -45q-23 0 -39.5 13.5t-16.5 41.5q42 0 109.5 40t131.5 99q-40 39 -89 65.5t-90 26.5t-55 -36q-39 16 -39 53q0 25 21 40.5t51 15.5q55 0 121.5 -43.5t118.5 -103.5
q2 112 2 181.5t-11 84.5h-307q-70 0 -70 49q0 7 3 16h520q69 0 69 -48q0 -13 -3 -17h-157q26 -18 26 -89z" />
    <glyph glyph-name="uni0925094D0930" horiz-adv-x="619" 
d="M520 497l-4 -412q0 -70 11 -86q-11 -4 -23 -4q-56 0 -56 90q0 62 8 122q-64 -62 -168.5 -121t-157.5 -59q-26 0 -43 15t-18 40q110 16 223 73q-5 -1 -17 -1q-87 0 -157.5 53.5t-70.5 109.5q0 43 113 87q43 17 78.5 49t35.5 66.5t-18.5 54t-49 19.5t-52 -22.5t-21.5 -58.5
t26 -60q-6 -4 -14 -4q-30 0 -52.5 30t-22.5 73t32 72.5t77 29.5q60 0 107 -49.5t47 -111.5q0 -46 -34 -82t-75 -54q-108 -48 -108 -74q0 -28 41 -53t93.5 -25t106.5 22.5t90 68.5q3 192 3 221t-6.5 46t-25.5 29q-29 18 -29 44q0 11 3 16h193q69 0 69 -48q0 -8 -3 -17h-160
q29 -18 29 -89z" />
    <glyph glyph-name="uni0926094D0930" horiz-adv-x="477" 
d="M433 651q32 0 50.5 -13t18.5 -35q0 -8 -3 -17h-141q26 -28 26 -62.5t-28.5 -58t-69.5 -37.5t-82.5 -30.5t-70 -46t-28.5 -78t45 -78t97.5 -29.5t88.5 17q-17 27 -17 51.5t14.5 40.5t38.5 16t39 -21t15 -51t-22 -63q76 -64 76 -129q0 -26 -16.5 -44.5t-42.5 -18.5
q-38 0 -51 33q43 11 43 49.5t-34 77.5q-50 -55 -131.5 -97t-123.5 -42q-22 0 -38 13t-17 37q113 23 227 85q-14 -3 -29 -3q-89 0 -159 56t-70 129q0 44 21 77.5t53 52t69 34.5t69 25.5t53 24.5t21 35.5t-18 34.5h-283q-69 0 -69 49q0 11 3 16h476z" />
    <glyph glyph-name="uni0927094D0930" horiz-adv-x="600" 
d="M501 497l-5 -412q0 -68 11 -86q-11 -4 -22 -4q-57 0 -57 87q0 66 10 117q-56 -75 -159.5 -137t-151.5 -62q-22 0 -38.5 14.5t-18.5 39.5q89 18 207 75q-5 -1 -14 -1q-75 0 -133.5 51.5t-58.5 109.5t32 95q-53 50 -53 117q0 52 37 89q-51 -4 -82 -4q-65 0 -65 49
q0 11 3 16h222q69 0 69 -48q0 -13 -3 -17h-18q-47 0 -74.5 -32.5t-27.5 -72.5t22 -71q36 24 73 24t59.5 -14t22.5 -38t-19.5 -36.5t-46 -12.5t-56.5 11q-33 -29 -33 -72t33.5 -69t84.5 -26t100.5 28.5t76.5 76.5q3 100 3 181.5t-7 98.5t-30.5 32.5t-23.5 40.5q0 10 2 16h194
q69 0 69 -48q0 -8 -3 -17h-161q30 -19 30 -89z" />
    <glyph glyph-name="uni0928094D0930" horiz-adv-x="556" 
d="M456 497l-4 -412q0 -68 11 -86q-11 -4 -22 -4q-56 0 -56 86q0 57 7 93q-69 -60 -146 -108t-115 -48q-22 0 -38 14t-19 38q72 16 157 65.5t153 103.5l2 117q-100 52 -201 52q-38 0 -65 -18t-27 -49.5t22.5 -51t51 -19.5t46 14.5t19.5 38.5q4 11 2 22q22 -2 36 -18.5
t14 -43.5t-23.5 -50t-63.5 -23q-57 0 -112 50.5t-55 103t35.5 80t91 27.5t119 -19t111.5 -49v95q0 70 -11 88h-352q-70 0 -70 49q0 7 3 16h565q32 0 50.5 -13t18.5 -35q0 -8 -3 -17h-158q26 -18 26 -89z" />
    <glyph glyph-name="uni092A094D0930" horiz-adv-x="550" 
d="M379 317l1 182q0 72 -11 87h-251q26 -18 26 -89l-1 -169q0 -42 23 -68t64 -26t81 22t68 61zM450 497l-4 -412q0 -70 11 -86q-11 -4 -22 -4q-59 0 -59 91q0 74 7 138q-63 -63 -159 -125.5t-139 -62.5q-22 0 -38 14t-19 39q88 20 206 90q-66 11 -113 64.5t-47 109.5v153
q0 62 -11 80h-40q-70 0 -70 49q0 7 3 16h559q69 0 69 -48q0 -13 -3 -17h-157q26 -18 26 -89z" />
    <glyph glyph-name="uni092B094D0930" horiz-adv-x="768" 
d="M142 497l-1 -165q0 -41 24 -67.5t60.5 -26.5t70.5 20.5t56 57.5q2 114 2 183.5t-11 86.5h-226q25 -18 25 -89zM72 356l1 154q0 60 -11 76h-39q-70 0 -70 49q0 7 3 16h785q33 0 51.5 -12.5t18.5 -35.5q0 -8 -3 -17h-411q24 -18 24 -80t-6 -107q47 62 123 62t133.5 -60.5
t57.5 -137.5q0 -58 -41.5 -99t-107.5 -41q-29 0 -51.5 16t-22.5 40q0 5 2 15q24 -5 37 -5t19 1q50 3 78 35t28 75.5t-31 72t-73.5 28.5t-80.5 -25t-63 -69q-3 -108 -3 -199t11 -109q-11 -4 -22 -4q-58 0 -58 87.5t6 142.5q-51 -67 -127 -117t-113 -50q-23 0 -39.5 13.5
t-18.5 37.5q77 21 169 77q-66 11 -110.5 64.5t-44.5 105.5z" />
    <glyph glyph-name="uni092C094D0930" horiz-adv-x="544" 
d="M136 400q-36 -33 -36 -84.5t35.5 -82.5t80 -31t81.5 20zM444 497l-4 -412q0 -68 11 -86q-4 -4 -22 -4q-56 0 -56 85q0 62 9 127q-43 -52 -127.5 -114.5t-131.5 -62.5t-57 48q86 24 172 75h-8q-74 0 -131.5 58.5t-57.5 138.5q0 63 45.5 106t113.5 43q44 0 70.5 -17
t26.5 -43q0 -12 -5 -22q-30 15 -64 15t-59 -11l159 -178q27 24 45 61q2 122 2 192.5t-12 89.5h-338q-69 0 -69 49q0 10 2 16h551q33 0 51.5 -12.5t18.5 -29.5t-4 -23h-157q26 -18 26 -89z" />
    <glyph glyph-name="uni092D094D0930" horiz-adv-x="614" 
d="M514 497l-4 -412q0 -68 11 -86q-11 -4 -22 -4q-57 0 -57 87q0 61 8 97q-67 -61 -144.5 -110.5t-117.5 -49.5q-22 0 -38.5 14t-19.5 37q72 17 159.5 71t153.5 109l1 55h-208q-8 -88 -54 -88q-35 0 -67 33.5t-32 65.5q0 53 86 55q2 36 2 61q0 161 -63 161
q-22 0 -33.5 -17.5t-11.5 -50.5t22 -61q-6 -4 -15 -4q-28 0 -48 32.5t-20 71t21.5 63.5t59.5 25q67 0 110.5 -81t45.5 -200q134 -2 205 -9q1 44 1 125.5t-11 98.5h-70q-69 0 -69 49q0 10 2 16h283q32 0 50.5 -13t18.5 -35q0 -8 -3 -17h-158q26 -18 26 -89z" />
    </font>
</defs>
</svg>
