<svg xmlns="http://www.w3.org/2000/svg" xmlns:xlink="http://www.w3.org/1999/xlink" version="1.1" x="0px" y="0px" viewBox="0 0 100 100" enable-background="new 0 0 100 100" xml:space="preserve"><path d="M66.6,46.1c1.3-1.4,1.9-3.2,1.7-5.1c-0.2-2.2-1.6-5.7-3.3-8.5c-2.4-4-5.2-6.1-8.1-6.1c-4.7,0-7.4,4.6-7.4,12.8  c0,1.7,0.3,4.1,1.5,6.2c1.4,2.4,3.6,3.7,6.5,3.9c0.2,0,0.4,0,0.7,0C61.7,49.3,64.7,48.2,66.6,46.1z M54.5,43.5  c-0.6-1.1-0.9-2.5-0.9-4.2c0-1.3,0.1-3.9,0.8-6c0.9-2.7,2.1-2.7,2.6-2.7c1.3,0,3.1,1.6,4.7,4.2c1.7,2.7,2.6,5.6,2.7,6.8  c0.1,0.7-0.2,1.4-0.7,1.9c-1.1,1.2-3.1,1.9-5.5,1.9c-0.2,0-0.3,0-0.5,0C56.2,45.2,55.2,44.7,54.5,43.5z M82,18.2  C73.5,9.7,62.2,5,50.2,5c-12,0-23.3,4.7-31.8,13.2C9.9,26.7,5.2,38,5.2,50c0,12,4.7,23.3,13.2,31.8C26.9,90.3,38.2,95,50.2,95  c12,0,23.3-4.7,31.8-13.2C90.5,73.3,95.2,62,95.2,50C95.2,38,90.5,26.7,82,18.2z M31.8,13.4C31.8,13.4,31.8,13.4,31.8,13.4  c0,0.1-0.1,0.2-0.2,0.3C31.6,13.6,31.7,13.5,31.8,13.4z M31.5,13.7c-0.1,0.2-0.3,0.3-0.5,0.4C31.3,14,31.4,13.9,31.5,13.7z M9.2,50  c0-10.9,4.3-21.2,12-29c2.6-2.6,5.5-4.8,8.7-6.6c0.1,0,0.3,0,0.4,0c0.4,0,1.8,0.1,3.2,0.5c1.7,0.4,2.5,1.1,2.6,1.5  c0.2,0.5-0.2,1.4-1,2.5c-1.4,1.9-3.9,4.1-7.6,6.6c-0.8,0.6-3.4,2.4-3.2,4.9c0.2,2.7,3,4.1,5.9,5.6c2,1,4.6,2.3,5,3.6  c0,0.1,0.2,0.5-0.3,1.4c-0.6,1.2-1.5,2.3-2.3,3.5c-1.9,2.7-3.9,5.5-4.1,8.9c-0.2,3.9,2,7.6,6.9,11.6c5.7,4.7,5.6,6.8,5.5,7.4  c-0.2,0.5-0.9,1.6-4.2,2.6c-2.7,0.8-5.9,1.2-8.8,1.6c-3.7,0.5-6.1,0.8-7.3,1.8C13.3,70.7,9.2,60.7,9.2,50z M58.9,90  c0-1.7,0.4-4.5,2.1-6.4c1.2-1.4,3-2,5.4-2c5.6,0,7.8,0.8,8.5,1.2C70.1,86.3,64.6,88.8,58.9,90z M79.1,79c-0.4,0.4-0.8,0.7-1.2,1.1  c-0.3-0.3-0.8-0.7-1.4-1c-2.1-1-5.5-1.6-10.3-1.6c-3.5,0-6.4,1.1-8.4,3.4c-2.8,3.2-3.1,7.7-3.1,9.8c-1.5,0.2-3.1,0.3-4.6,0.3  c-9.7,0-18.9-3.4-26.3-9.5c0,0,0-0.1,0-0.1c1.1-0.3,3.1-0.5,4.6-0.7c6.6-0.9,14.9-2,16.3-7.1c1.2-4.3-3.3-8.7-6.8-11.6  c-3.8-3.1-5.6-5.8-5.4-8.3c0.1-2.2,1.7-4.4,3.3-6.7c0.9-1.2,1.8-2.5,2.6-3.9c0.8-1.5,1.1-3,0.6-4.5c-0.9-2.9-4.2-4.6-7.1-6  c-1.2-0.6-3.2-1.6-3.7-2.3c0.1-0.2,0.5-0.6,1.5-1.3c8-5.6,11.2-9.9,10.2-13.5c-0.5-1.9-2.1-3.1-3.9-3.8c4.4-1.6,9.2-2.5,14-2.5  c3.4,0,6.7,0.4,9.8,1.2c-0.8,4.6,3.9,11,8.8,17.7c2.6,3.5,5,6.9,6.4,9.6c1.2,2.4,1.5,4.6,0.7,6.7c-1.1,3-4.3,5.9-9.1,8  c-2.5,1.1-4.8,3-6.5,5.2c-1.7,2.2-2.6,4.7-2.6,6.9c-0.1,2.8,1.3,5.1,3.7,6.3c0.9,0.5,2.1,0.6,3.5,0.6c3.1,0,7.3-1,11.8-2  c2.6-0.6,5.1-1.2,7.2-1.5c1.8-0.3,2.7-0.3,3.2-0.2c0,0.1,0,0.1,0,0.2C85.1,71.9,82.5,75.6,79.1,79z M75.8,65.3  C73,66,70.1,66.6,67.7,67c-3.2,0.5-4.3,0.2-4.6,0c-1-0.5-1.5-1.3-1.5-2.6c0.1-3.5,3.5-7.1,6.8-8.5c5.9-2.6,9.8-6.2,11.3-10.3  c1.1-3.1,0.8-6.5-0.9-9.9c-1.5-3-4.1-6.5-6.8-10.1c-2.4-3.2-4.8-6.6-6.4-9.5c-1.4-2.5-1.7-3.9-1.7-4.7c5.7,2,10.8,5.3,15.2,9.6  c7.7,7.7,12,18,12,29c0,4.8-0.8,9.4-2.4,13.8C86.3,63,82.1,63.9,75.8,65.3z"/></svg>